<svg width="1000" height="260" viewBox="0 0 1000 260" fill="none" xmlns="http://www.w3.org/2000/svg">
<rect width="1000" height="260" fill="white"/>
<path d="M353.299 119.852C351.751 119.766 350.547 119.25 349.515 118.218C348.483 117.186 347.967 115.982 347.967 114.434V95.342H369.725V63.006H333.777V66.532H355.535V91.902H333.777V119.25C333.777 121.744 334.637 123.894 336.443 125.614C338.163 127.334 340.313 128.194 342.807 128.194C342.979 128.194 343.667 128.28 344.699 128.28C345.731 128.28 346.591 128.28 347.107 128.28C347.623 128.28 348.483 128.194 349.859 128.022C351.149 127.85 352.525 127.592 353.901 127.162C355.277 126.818 357.083 126.302 359.233 125.614C361.297 125.012 363.791 124.152 366.715 123.034C369.553 122.002 372.735 120.712 376.261 119.164V138.944H389.419V62.318H376.261V103.512H362.157V107.038H376.261V115.38C364.221 118.476 356.567 120.024 353.299 119.852ZM392.601 140.148H405.759V61.114H392.601V140.148ZM446.964 119.078C443.61 119.766 441.374 119.766 440.17 119.25C437.59 118.304 436.386 116.67 436.386 114.434V93.622H446.964V119.078ZM446.964 63.006V90.096H436.386V63.006H422.196V119.25C422.196 121.744 423.056 123.894 424.776 125.614C426.496 127.334 428.646 128.194 431.14 128.194C431.312 128.194 431.828 128.28 432.602 128.28C433.29 128.28 433.806 128.28 433.978 128.28C434.15 128.28 434.666 128.194 435.44 128.108C436.128 128.022 436.816 127.85 437.332 127.678C437.848 127.506 438.622 127.334 439.74 126.99C440.772 126.646 441.976 126.302 443.18 125.786C444.384 125.356 445.846 124.754 447.652 124.066C449.372 123.378 451.35 122.604 453.586 121.658C455.736 120.712 458.23 119.594 461.068 118.39H461.154V94.31H467.088V138.944H480.246V62.318H467.088V90.87H461.154V63.006H446.964ZM483.428 140.148H496.586V61.114H483.428V140.148ZM510.662 63.006V66.532H540.246V79.088C540.16 82.958 539.816 86.742 539.128 90.526H510.662V94.052H538.354C537.494 97.578 536.29 100.846 534.828 103.942C533.28 107.038 531.732 109.704 530.184 111.768C528.636 113.918 526.916 115.896 525.024 117.702C523.132 119.508 521.412 120.884 520.036 121.916C518.574 122.948 517.112 123.894 515.65 124.668C514.102 125.528 513.156 126.044 512.64 126.216C512.124 126.388 511.694 126.56 511.436 126.646L513.328 129.57C518.918 128.022 523.992 125.786 528.464 123.034C532.936 120.282 536.634 117.358 539.386 114.434C542.138 111.51 544.546 108.242 546.61 104.63C548.674 101.104 550.136 98.008 551.082 95.342C552.028 92.59 552.802 89.838 553.318 87C553.834 84.162 554.178 82.27 554.178 81.324C554.264 80.378 554.264 79.69 554.264 79.174V63.092L510.662 63.006ZM577.828 94.138V61.2H563.724V140.234H577.828V97.664H589.524V94.138H577.828ZM639.253 75.046V71.52H625.149V61.114H610.959V71.52H596.855V75.046H610.443L595.995 128.194H610.185L618.699 96.632C620.161 97.148 621.365 98.18 622.311 99.556C623.343 101.018 624.031 102.652 624.375 104.458C624.805 106.178 625.063 108.242 625.149 110.65C625.149 112.972 625.149 115.036 624.977 116.842C624.805 118.734 624.633 120.626 624.375 122.604C624.117 124.668 623.945 125.958 623.773 126.646C623.601 127.334 623.515 127.85 623.429 128.194H637.533C637.533 123.12 637.103 118.562 636.243 114.52C635.383 110.392 634.265 107.21 632.975 104.802C631.685 102.394 630.137 100.33 628.417 98.61C626.697 96.89 625.149 95.686 623.773 94.998C622.397 94.31 621.021 93.708 619.559 93.364L624.461 75.132L639.253 75.046ZM640.887 90.956H626.783V94.396H640.887V139.03H654.045V62.404H640.887V90.956ZM657.227 140.234H670.385V61.2H657.227V140.234Z" fill="black"/>
<path d="M413.672 181.208H405.103V163.414H413.672H413.959C414.164 163.414 414.451 163.496 414.779 163.578C415.107 163.66 415.476 163.824 415.886 163.988C416.296 164.152 416.665 164.48 417.075 164.89C417.485 165.341 417.854 165.874 418.182 166.448C418.51 167.063 418.797 167.883 419.002 168.908C419.207 169.892 419.33 171.04 419.33 172.311C419.33 173.582 419.207 174.73 419.002 175.755C418.756 176.739 418.51 177.559 418.182 178.174C417.854 178.789 417.485 179.322 417.034 179.732C416.624 180.142 416.214 180.47 415.845 180.675C415.517 180.839 415.148 181.003 414.738 181.085C414.328 181.167 414.082 181.249 413.918 181.249L413.672 181.208ZM423.225 184.078C422.733 183.668 422.2 183.299 421.626 182.971C420.888 182.52 420.068 182.192 419.207 181.946C419.289 181.905 419.33 181.905 419.33 181.905C420.314 181.454 421.216 180.88 422.036 180.183C423.266 179.199 424.25 178.092 424.906 176.78C425.644 175.386 426.013 173.91 426.013 172.311C426.013 170.753 425.644 169.236 424.906 167.842C424.25 166.53 423.266 165.423 422.036 164.439C419.658 162.471 416.747 161.487 413.385 161.487H398.338V199.166H405.062V183.135H409.9C412.36 183.135 414.451 183.873 416.173 185.267C417.895 186.702 418.756 188.424 418.756 190.433V199.207H426.382V190.433C426.382 187.932 425.357 185.8 423.225 184.078ZM437.366 186.743C437.366 185.431 437.489 184.283 437.735 183.217C437.94 182.151 438.186 181.331 438.473 180.675C438.76 180.019 439.088 179.486 439.498 179.035C439.908 178.584 440.236 178.256 440.564 178.051C440.892 177.887 441.22 177.723 441.589 177.641C441.917 177.559 442.163 177.477 442.286 177.477H442.573C442.983 177.477 443.475 177.559 444.049 177.764C446.427 178.83 447.657 181.823 447.78 186.743H437.366ZM455.611 186.743C455.529 185.349 455.16 183.996 454.545 182.684C453.807 181.208 452.864 179.937 451.675 178.83C449.133 176.575 446.099 175.427 442.573 175.427C439.047 175.427 436.013 176.575 433.512 178.83C432.282 179.937 431.298 181.208 430.601 182.684C429.863 184.242 429.535 185.841 429.535 187.522C429.535 189.244 429.863 190.884 430.601 192.401C431.298 193.877 432.282 195.189 433.512 196.255C436.013 198.51 439.047 199.617 442.573 199.617C446.099 199.617 449.133 198.51 451.675 196.255C452.823 195.189 453.766 193.959 454.463 192.565H447.288C447.042 193.549 446.673 194.41 446.263 195.148C445.853 195.886 445.443 196.378 445.074 196.665C444.664 196.993 444.254 197.198 443.844 197.362C443.393 197.526 443.106 197.608 442.942 197.608H442.573C442.163 197.649 441.671 197.526 441.138 197.28C438.76 196.255 437.489 193.303 437.366 188.424H455.611C455.611 188.219 455.652 187.973 455.652 187.727V187.522V187.358C455.652 187.194 455.611 186.989 455.611 186.743ZM473.937 197.813H473.814H473.732H473.691C473.035 197.813 472.338 197.731 471.682 197.485C471.026 197.239 470.452 196.993 470.042 196.706C469.591 196.419 469.14 196.091 468.73 195.722C468.32 195.394 468.033 195.148 467.91 194.984C467.787 194.861 467.705 194.738 467.664 194.615V180.101C468.443 179.363 469.345 178.83 470.411 178.42C471.477 178.051 472.256 177.846 472.748 177.805C473.24 177.764 473.65 177.723 474.019 177.723C474.183 177.723 474.388 177.764 474.634 177.764C474.839 177.805 475.167 177.887 475.577 178.051C475.987 178.215 476.397 178.42 476.766 178.666C477.176 178.912 477.586 179.281 477.996 179.773C478.406 180.265 478.775 180.88 479.103 181.577C479.431 182.233 479.677 183.135 479.882 184.201C480.087 185.267 480.169 186.497 480.169 187.809C480.169 189.244 480.046 190.515 479.8 191.663C479.554 192.811 479.267 193.713 478.939 194.41C478.611 195.066 478.16 195.681 477.668 196.173C477.176 196.665 476.766 196.993 476.356 197.239C475.946 197.444 475.536 197.608 475.126 197.69C474.716 197.772 474.429 197.854 474.265 197.854C474.101 197.854 474.019 197.854 473.937 197.813ZM474.593 175.878H473.609C472.953 175.878 472.051 176.001 470.903 176.247C469.755 176.493 468.648 176.862 467.623 177.354V161.446H460.858V199.125H467.623V198.223C468.648 198.715 469.755 199.084 470.985 199.33C472.215 199.576 473.076 199.699 473.527 199.699C474.019 199.699 474.347 199.699 474.593 199.699H475.331C475.823 199.699 476.479 199.658 477.258 199.494C478.037 199.371 478.898 199.166 479.841 198.92C480.784 198.674 481.727 198.264 482.67 197.69C483.613 197.116 484.474 196.46 485.253 195.64C486.032 194.82 486.647 193.754 487.139 192.36C487.631 191.007 487.836 189.49 487.836 187.768C487.836 186.087 487.59 184.57 487.098 183.217C486.606 181.864 485.991 180.798 485.253 179.978C484.515 179.158 483.654 178.461 482.629 177.887C481.645 177.313 480.702 176.903 479.882 176.657C479.062 176.411 478.16 176.206 477.217 176.083C476.315 175.96 475.7 175.878 475.372 175.878H474.593ZM499.827 186.743C499.827 185.431 499.95 184.283 500.196 183.217C500.401 182.151 500.647 181.331 500.934 180.675C501.221 180.019 501.549 179.486 501.959 179.035C502.369 178.584 502.697 178.256 503.025 178.051C503.353 177.887 503.681 177.723 504.05 177.641C504.378 177.559 504.624 177.477 504.747 177.477H505.034C505.444 177.477 505.936 177.559 506.51 177.764C508.888 178.83 510.118 181.823 510.241 186.743H499.827ZM518.072 186.743C517.99 185.349 517.621 183.996 517.006 182.684C516.268 181.208 515.325 179.937 514.136 178.83C511.594 176.575 508.56 175.427 505.034 175.427C501.508 175.427 498.474 176.575 495.973 178.83C494.743 179.937 493.759 181.208 493.062 182.684C492.324 184.242 491.996 185.841 491.996 187.522C491.996 189.244 492.324 190.884 493.062 192.401C493.759 193.877 494.743 195.189 495.973 196.255C498.474 198.51 501.508 199.617 505.034 199.617C508.56 199.617 511.594 198.51 514.136 196.255C515.284 195.189 516.227 193.959 516.924 192.565H509.749C509.503 193.549 509.134 194.41 508.724 195.148C508.314 195.886 507.904 196.378 507.535 196.665C507.125 196.993 506.715 197.198 506.305 197.362C505.854 197.526 505.567 197.608 505.403 197.608H505.034C504.624 197.649 504.132 197.526 503.599 197.28C501.221 196.255 499.95 193.303 499.827 188.424H518.072C518.072 188.219 518.113 187.973 518.113 187.727V187.522V187.358C518.113 187.194 518.072 186.989 518.072 186.743ZM535.537 177.6H535.906C536.152 177.6 536.48 177.682 536.89 177.846C537.3 178.01 537.71 178.256 538.161 178.543C538.571 178.871 539.022 179.363 539.473 180.06C539.883 180.798 540.252 181.659 540.539 182.643H547.755C547.017 181.208 546.033 179.978 544.803 178.912C542.22 176.698 539.145 175.55 535.537 175.55C531.929 175.55 528.854 176.698 526.271 178.912C525 179.978 524.016 181.249 523.278 182.725C522.499 184.283 522.13 185.923 522.13 187.645C522.13 189.408 522.499 191.048 523.278 192.565C524.016 194.082 525 195.353 526.271 196.419C528.854 198.633 531.929 199.74 535.537 199.74C539.145 199.74 542.22 198.633 544.803 196.419C546.033 195.394 547.017 194.164 547.755 192.729H540.539C540.252 193.713 539.883 194.533 539.432 195.271C538.981 196.009 538.571 196.501 538.161 196.829C537.751 197.116 537.341 197.362 536.89 197.526C536.398 197.69 536.111 197.772 535.947 197.772H535.537H535.25C535.004 197.772 534.758 197.69 534.43 197.608C534.102 197.485 533.774 197.321 533.364 197.116C532.954 196.911 532.585 196.583 532.175 196.091C531.765 195.599 531.437 194.984 531.109 194.328C530.781 193.631 530.494 192.729 530.289 191.581C530.084 190.433 530.002 189.121 530.002 187.686C530.002 186.251 530.084 184.98 530.289 183.832C530.494 182.684 530.74 181.741 531.068 181.085C531.396 180.388 531.765 179.814 532.175 179.322C532.585 178.83 532.995 178.461 533.364 178.256C533.692 178.051 534.061 177.887 534.471 177.805C534.84 177.682 535.086 177.641 535.209 177.641L535.537 177.6ZM563.925 177.6H564.294C564.54 177.6 564.868 177.682 565.278 177.846C565.688 178.01 566.098 178.256 566.549 178.543C566.959 178.871 567.41 179.363 567.861 180.06C568.271 180.798 568.64 181.659 568.927 182.643H576.143C575.405 181.208 574.421 179.978 573.191 178.912C570.608 176.698 567.533 175.55 563.925 175.55C560.317 175.55 557.242 176.698 554.659 178.912C553.388 179.978 552.404 181.249 551.666 182.725C550.887 184.283 550.518 185.923 550.518 187.645C550.518 189.408 550.887 191.048 551.666 192.565C552.404 194.082 553.388 195.353 554.659 196.419C557.242 198.633 560.317 199.74 563.925 199.74C567.533 199.74 570.608 198.633 573.191 196.419C574.421 195.394 575.405 194.164 576.143 192.729H568.927C568.64 193.713 568.271 194.533 567.82 195.271C567.369 196.009 566.959 196.501 566.549 196.829C566.139 197.116 565.729 197.362 565.278 197.526C564.786 197.69 564.499 197.772 564.335 197.772H563.925H563.638C563.392 197.772 563.146 197.69 562.818 197.608C562.49 197.485 562.162 197.321 561.752 197.116C561.342 196.911 560.973 196.583 560.563 196.091C560.153 195.599 559.825 194.984 559.497 194.328C559.169 193.631 558.882 192.729 558.677 191.581C558.472 190.433 558.39 189.121 558.39 187.686C558.39 186.251 558.472 184.98 558.677 183.832C558.882 182.684 559.128 181.741 559.456 181.085C559.784 180.388 560.153 179.814 560.563 179.322C560.973 178.83 561.383 178.461 561.752 178.256C562.08 178.051 562.449 177.887 562.859 177.805C563.228 177.682 563.474 177.641 563.597 177.641L563.925 177.6ZM594.977 187.932V195.107L594.403 195.599C593.993 195.927 593.419 196.296 592.681 196.665C591.943 197.034 591.205 197.239 590.467 197.28C590.303 197.321 590.139 197.321 589.975 197.321H589.606C589.565 197.321 589.36 197.321 588.991 197.239C588.581 197.157 588.294 197.075 588.089 196.952C587.843 196.829 587.556 196.624 587.187 196.337C586.777 196.05 586.49 195.681 586.285 195.271C586.039 194.861 585.834 194.287 585.67 193.59C585.506 192.934 585.383 192.155 585.383 191.253V191.171V191.048V190.884C585.383 188.629 585.957 186.948 587.105 185.882C587.269 185.718 587.515 185.513 587.802 185.349C588.54 184.898 589.237 184.693 589.975 184.734C591.902 184.898 593.583 185.964 594.977 187.932ZM587.761 182.725C586.777 182.889 585.793 183.176 584.891 183.504C584.194 183.791 583.538 184.119 582.923 184.529C582.636 184.693 582.39 184.898 582.144 185.062C581.816 185.308 581.488 185.595 581.242 185.882C579.766 187.399 579.028 189.121 579.028 191.048C579.028 192.319 579.356 193.508 580.053 194.656C580.709 195.804 581.693 196.788 582.923 197.526C584.891 198.838 587.269 199.494 589.975 199.494C591.738 199.494 593.378 199.207 594.936 198.592V199.207H601.701V184.57C601.619 183.258 601.25 181.987 600.676 180.757C600.02 179.527 599.2 178.461 598.134 177.559C596.002 175.796 593.501 174.894 590.631 174.894C587.72 174.894 585.219 175.796 583.128 177.559C582.144 178.379 581.324 179.363 580.709 180.511H585.67C585.998 179.896 586.367 179.363 586.818 178.912C587.269 178.502 587.679 178.174 588.089 177.969C588.499 177.805 588.909 177.641 589.36 177.559C589.77 177.477 590.098 177.395 590.262 177.395C590.426 177.395 590.549 177.395 590.631 177.436H591.041C591.287 177.436 591.574 177.518 591.984 177.723C592.353 177.928 592.722 178.215 593.132 178.584C593.542 178.912 593.911 179.527 594.239 180.388C594.567 181.249 594.772 182.274 594.895 183.463C593.337 182.889 591.697 182.602 589.975 182.602C589.237 182.602 588.499 182.643 587.761 182.725Z" fill="black"/>
</svg>
