<?xml version="1.0" standalone="no"?>
<!DOCTYPE svg PUBLIC "-//W3C//DTD SVG 1.1//EN" "http://www.w3.org/Graphics/SVG/1.1/DTD/svg11.dtd" >
<svg xmlns="http://www.w3.org/2000/svg" xmlns:xlink="http://www.w3.org/1999/xlink" version="1.1">
<metadata>
Created by FontForge 20170731 at Thu Jun  2 08:21:14 2022
 By Aleksey,,,
Copyright (c) Earlyfont. All rights reserved. Font designed by Earlyfont.
</metadata>
<defs>
<font id="EF_Rebecca" horiz-adv-x="0" >
  <font-face 
    font-family="EF_Rebecca"
    font-weight="400"
    font-stretch="normal"
    units-per-em="1000"
    panose-1="2 0 5 3 0 0 0 0 0 0"
    ascent="800"
    descent="-200"
    x-height="442"
    cap-height="792"
    bbox="-1302 -548.667 1156 939"
    underline-thickness="50"
    underline-position="-300"
    unicode-range="U+0020-FFE6"
  />
<missing-glyph horiz-adv-x="364" 
d="M66 53h199v600h-199v-600zM33 20v666h265v-666h-265z" />
    <glyph glyph-name=".notdef" horiz-adv-x="364" 
d="M66 53h199v600h-199v-600zM33 20v666h265v-666h-265z" />
    <glyph glyph-name=".null" 
 />
    <glyph glyph-name="nonmarkingreturn" horiz-adv-x="333" 
 />
    <glyph glyph-name="glyph12935" unicode=" " horiz-adv-x="270" 
 />
    <glyph glyph-name="exclam" unicode="!" horiz-adv-x="252" 
d="M48 109v684h164v-684h-164zM48 -126v152h164v-152h-164z" />
    <glyph glyph-name="quotedbl" unicode="&#x22;" horiz-adv-x="477" 
d="M251 766l-57 -179h-140l57 179h140zM380 587h-140l58 179h139z" />
    <glyph glyph-name="numbersign" unicode="#" horiz-adv-x="1128" 
d="M978 793l-61 -238h178l-10 -41h-178l-93 -364h178l-10 -41h-178l-61 -238h-165l61 238h-251l-61 -238h-165l61 238h-158l10 41h158l93 364h-158l11 41h158l60 238h165l-61 -238h252l60 238h165zM649 150l93 364h-251l-93 -364h251z" />
    <glyph glyph-name="dollar" unicode="$" horiz-adv-x="719" 
d="M211 156q0 -48 14.5 -84t32.5 -53t42.5 -27t37.5 -12t24 -2v335q-18 7 -37 11q-99 26 -153.5 56t-75 66.5t-19.5 91.5q0 43 15 78.5t37 57.5t52.5 38t57 23.5t55.5 12t43 5t25 0.5v76h41v-77q28 -3 55 -8t63.5 -19.5t63 -35.5t46 -58.5t21.5 -84.5h-150q0 43 -9.5 76
t-25.5 52t-31.5 29t-32.5 15v-318q51 -17 86 -30t75 -35t64 -46.5t40 -60.5t16 -80q0 -42 -14.5 -76.5t-40 -56.5t-54 -38t-63 -24.5t-59.5 -12.5t-50 -6v-77h-41v76q-12 0 -27.5 0.5t-48.5 4.5t-62.5 12t-63.5 24t-58.5 38t-40.5 57.5t-16 78.5zM327 424q17 -6 35 -11v311
q-10 0 -21 -1.5t-31.5 -10.5t-36.5 -24.5t-29.5 -47t-16.5 -74.5v-9q0 -37 18 -69q21 -38 61 -57q4 -2 21 -7zM517 143q2 43 -29.5 84.5t-85.5 68.5v-313q19 4 36 13t35 26t29.5 47t14.5 69v3v2z" />
    <glyph glyph-name="percent" unicode="%" horiz-adv-x="846" 
d="M649 187h10.5t25.5 -2.5t36 -7.5t38 -16.5t36.5 -28t26 -43t10.5 -60.5q0 -117 -116 -149q-36 -10 -67 -9h-10.5t-25.5 2.5t-36.5 7.5t-38.5 16.5t-36 27.5t-25.5 43t-10.5 61t10 60.5t26 43t35.5 28t39 16.5t36 7.5t26.5 2.5h10zM715 29q0 34 -7 58.5t-16.5 35.5
t-19.5 16.5t-16 5.5h-7q-3 1 -7.5 0.5t-15.5 -6t-20 -16.5t-16 -35.5t-7 -58.5t7 -58.5t16.5 -35.5t19 -16.5t16.5 -5.5l7 -1q2 0 6.5 0.5t16 6t20 16.5t16 35.5t7.5 58.5zM222 457h-10.5t-25.5 2.5t-36.5 7.5t-38.5 16.5t-36 27.5t-25.5 43t-10.5 60.5t10 60.5t26 43
t35.5 27.5t39 16.5t36 7.5t26.5 2.5h10h10.5t25.5 -2.5t36 -7.5t38 -16.5t36.5 -27.5t26 -43t10.5 -60.5t-10.5 -60.5t-26.5 -43t-35.5 -27.5t-39 -16.5t-35.5 -7.5t-26 -2.5h-10zM222 731q-3 0 -7.5 -0.5t-15.5 -6t-20 -16t-16 -35t-7 -59.5q0 -100 53 -115l13 -1h6.5t16 6
t20 16.5t16 35t7.5 59t-7 59t-16.5 35t-19.5 16.5t-16 6h-7zM284 -126h-186l485 919h185z" />
    <glyph glyph-name="ampersand" unicode="&#x26;" horiz-adv-x="894" 
d="M820 94q-37 -30 -93 -66q80 -79 157 -153h-58l-1 -1v1h-165q-33 27 -70 63l-10 10q-9 -5 -18 -9q-11 -4 -22 -9h-1q-55 -24 -113 -40h-2q-17 -5 -33 -8q-9 -2 -18 -3q-40 -8 -80 -8q-15 0 -29 1q-72 6 -117 45q-44 34 -69 93q-30 72 -13 142q15 60 66 119q5 5 10 11l2 2
l2 2l2 3l4 3l4 4q0 1 2 2l18 18l2 1l1 1q1 1 2 3q22 19 49 39l3 3q1 0 2 1v1q-64 102 -71 157q-4 31 3.5 65t19 58t27.5 47.5t23.5 32t12.5 13.5q25 28 65 41q47 16 111 11q66 -5 109 -53q37 -38 51 -95q6 -25 6 -50q0 -28 -7 -55q-17 -65 -74 -128q-37 -40 -78 -77
q95 -104 266 -274q58 36 96 68zM259 673q-10 -33 6 -85q16 -50 56 -115q10 -16 21 -33l9 6l11 7q51 34 76.5 51.5t53 42.5t33.5 43q23 70 -21 119q-32 37 -83 41q-13 1 -25 1q-114 0 -137 -78zM546 -23l4 2q-74 75 -146 160q-43 50 -81 101q-88 -74 -120 -123
q-11 -17 -19 -35q-4 -10 -6.5 -22.5t0 -37t16.5 -41.5q27 -32 95 -39q88 -9 236 26q11 4 21 9z" />
    <glyph glyph-name="quotesingle" unicode="'" horiz-adv-x="299" 
d="M257 766l-58 -179h-139l57 179h140z" />
    <glyph glyph-name="parenleft" unicode="(" horiz-adv-x="443" 
d="M416 -119h-188q-129 255 -129 479t129 479h188q-38 -64 -68 -131q-84 -189 -84 -348q0 -71 16.5 -147.5t43.5 -142.5t48.5 -109t43.5 -80z" />
    <glyph glyph-name="parenright" unicode=")" horiz-adv-x="440" 
d="M39 -119q38 64 68 131q85 189 85 348t-85 348q-30 67 -68 131h188q129 -255 129 -479t-129 -479h-188z" />
    <glyph glyph-name="asterisk" unicode="*" horiz-adv-x="371" 
d="M88 544l54 54h-77v41h77l-54 54l29 29l54 -55v77h41v-77l54 55l29 -29l-55 -54h78v-41h-78l55 -55l-29 -29l-54 55v-77h-41v77l-54 -54z" />
    <glyph glyph-name="plus" unicode="+" horiz-adv-x="668" 
d="M262 63v205h-204v165h204v204h165v-204h204v-165h-204v-205h-165z" />
    <glyph glyph-name="comma" unicode="," horiz-adv-x="293" 
d="M226 78l-58 -179h-139l57 179h140z" />
    <glyph glyph-name="hyphen" unicode="-" horiz-adv-x="665" 
d="M58 268v165h573v-165h-573z" />
    <glyph glyph-name="period" unicode="." horiz-adv-x="261" 
d="M110 -73q-34 0 -58 24.5t-24 58.5t24 58t58 24t58 -24t24 -58t-24 -58.5t-58 -24.5z" />
    <glyph glyph-name="slash" unicode="/" horiz-adv-x="707" 
d="M699 793l-485 -919h-185l484 919h186z" />
    <glyph glyph-name="zero" unicode="0" horiz-adv-x="716" 
d="M368 -126h-18t-45.5 7.5t-64 22t-68 48t-64.5 80.5t-45.5 125t-18.5 177q0 77 11 142t30 109.5t43 80.5t51 57t54 36.5t51.5 21.5t43 9t29.5 3h11h18.5t45.5 -7.5t64.5 -22t68 -48t64.5 -80.5t45.5 -125t18.5 -176q0 -313 -175 -418q-75 -44 -150 -42zM368 750
q-6 1 -16.5 0t-37 -21.5t-47 -59t-37.5 -126t-17 -209.5q0 -319 103 -398q29 -22 52 -19q7 -1 17.5 0.5t37 21.5t47 58.5t37.5 126t17 210t-16 210.5t-39 126t-46 58.5t-39 21.5h-16z" />
    <glyph glyph-name="one" unicode="1" horiz-adv-x="611" 
d="M270 615q-29 -12 -64 -21.5t-56 -12.5l-21 -3l-28 29q29 11 57 34t47 48t34.5 49t22.5 39l8 16h164v-919h-164v741z" />
    <glyph glyph-name="two" unicode="2" horiz-adv-x="779" 
d="M489 450l15 21q31 40 44 91t5.5 96t-45 76t-100.5 31q-38 0 -68.5 -18.5t-48 -44.5t-30.5 -62t-18 -61.5t-8 -52.5h-161q22 78 62 135q44 64 109 100q96 54 211 40q92 -11 155 -59q61 -47 84 -120q26 -78 -13 -168q-32 -73 -115 -169v-1l-184 -213h-1l-131 -145h472v-54
h-621v127l340 392q22 25 38 47q2 3 5 6z" />
    <glyph glyph-name="three" unicode="3" horiz-adv-x="759" 
d="M223 206v-3q-1 -9 -1 -19q0 -188 113 -238q34 -15 63 -13q3 -1 9.5 -0.5t24.5 4.5t35 11.5t37 26t34.5 44.5t24.5 69t10 96q0 187 -110 238q-27 12 -57 14h-99l191 315h-374v40h539v-40h-1l-144 -238l2 -1q91 -39 147 -121.5t56 -184.5q0 -90 -44.5 -167t-121 -121.5
t-166.5 -44.5t-167 44.5t-121.5 121t-44.5 167.5h165z" />
    <glyph glyph-name="four" unicode="4" horiz-adv-x="744" 
d="M520 170h-291h-184l20 40l294 583h184l-294 -583h271v256h165v-256h36v-40h-36v-296h-165v296z" />
    <glyph glyph-name="five" unicode="5" horiz-adv-x="714" 
d="M674 170q0 -61 -25 -117q-23 -54 -66 -95q-90 -86 -216.5 -86t-216.5 86q-42 41 -66 95q-21 47 -24 99h163q1 -49 10 -88.5t21.5 -63t27.5 -40t30 -24t27 -11t20 -3.5h8h8t20 4t28.5 12t30 26t28.5 43.5t20 67.5t8 95q0 65 -12 113t-28 73t-37.5 40t-34.5 18.5t-25 4.5
h-4h-2h-3h-241v374h165h349v-41h-349v-293q38 10 78 10h1q126 0 216 -86q43 -41 66 -95q25 -56 25 -117v-1z" />
    <glyph glyph-name="six" unicode="6" horiz-adv-x="686" 
d="M71 46q-25 54 -25 115v9v327v1q0 61 25 116q23 54 66 95q90 86 216.5 86t215.5 -86q43 -41 67 -95q25 -56 25 -117h-164q0 53 -8 95.5t-20.5 67.5t-28 43.5t-31 26t-28 11.5t-20.5 4h-8h-8t-20 -4t-28.5 -11.5t-30 -26t-28.5 -43.5t-20.5 -67.5t-8.5 -95.5h1v-79
q67 34 142 34h1q126 0 215 -83q43 -40 67 -93q25 -54 25 -115t-25 -115q-24 -53 -67 -93q-89 -83 -214.5 -83t-215.5 83q-43 40 -67 93zM209 170v-9q0 -51 8 -92t21 -65t28 -42t30.5 -25t28 -11t20.5 -4h8h8.5t20 4t28.5 11.5t30.5 25t28.5 41.5t20 65t8 92t-8 92t-20.5 65
t-28 41.5t-31 25t-28 11.5t-20.5 4h-8q-5 0 -14 -0.5t-32 -10.5t-41.5 -28.5t-35 -62t-20.5 -104.5v-24h-1z" />
    <glyph glyph-name="seven" unicode="7" horiz-adv-x="747" 
d="M227 752v-112h-164v153h164h478v-118q-41 -100 -121 -237q-52 -89 -81 -230.5t-21 -333.5h-156q0 78 5.5 145.5t17.5 123.5t23.5 98.5t32 87.5t33 71t36.5 68.5t34 61.5q54 106 63 173q5 24 6 49h-350z" />
    <glyph glyph-name="eight" unicode="8" horiz-adv-x="761" 
d="M40 114q0 50 16.5 90.5t45 67.5t59.5 44.5t69 28.5q-148 60 -148 216q0 168 169 223q72 24 141 22q7 0 18 -0.5t43 -4t61.5 -11.5t65.5 -25.5t61.5 -42.5t43.5 -67t18 -94q0 -156 -149 -216q38 -11 69 -28.5t59.5 -44.5t45 -67.5t16.5 -90.5q0 -54 -19.5 -97.5t-50.5 -69
t-68.5 -44.5t-75 -26.5t-68.5 -12t-51 -3.5h-19q-7 -1 -20 -0.5t-49.5 4.5t-69.5 12t-73.5 26.5t-70 44t-49.5 69t-20 97.5zM392 772h-8.5t-21 -3t-29.5 -9.5t-31 -21t-29.5 -35.5t-21 -55.5t-8.5 -77.5q0 -52 12.5 -91.5t29 -59.5t38.5 -32.5t36 -15t26 -3.5h4h2h1h1h6
q12 1 26 3.5t36 15t38.5 32.5t29 59.5t12.5 91.5q0 155 -100 193q-27 11 -49 9zM328 321q-104 -46 -104 -207q0 -165 108 -208q33 -12 60 -11h10t23.5 3.5t33 10.5t35 23t33.5 38.5t23.5 59.5t9.5 84q0 162 -104 207q-34 14 -64 12q-30 2 -64 -12z" />
    <glyph glyph-name="nine" unicode="9" horiz-adv-x="691" 
d="M356 -78h8.5t20 4t28.5 11.5t30.5 26t28.5 43.5t20 67.5t8 95.5h-1v79q-67 -33 -142 -33h-1q-125 0 -215 82q-43 40 -67 93q-25 54 -25 115t25 115q24 53 67 93q90 83 215.5 83t214.5 -83q43 -40 67 -93q26 -54 26 -115q0 -5 -1 -9h1v-327q-1 0 -1 -1q0 -61 -24 -116
q-24 -54 -67 -95q-89 -86 -215.5 -86t-216.5 86q-43 41 -66 95q-25 56 -25 117h163q0 -53 8 -95.5t21 -67.5t28 -43.5t30.5 -26t28 -11.5t20.5 -4h8zM356 267q6 0 14.5 0.5t32 10.5t41.5 28.5t35 62t20 104.5v24h1v9q0 51 -8 92t-20.5 65t-28 42t-31 25t-28 11t-20.5 4h-8
h-8t-20 -4t-28.5 -11.5t-30 -25t-28.5 -41.5t-20.5 -65t-8.5 -92t8 -92t21 -65t28 -42t30.5 -25t28 -11t20.5 -4h8z" />
    <glyph glyph-name="colon" unicode=":" horiz-adv-x="311" 
d="M242 549q0 -34 -24 -58t-58 -24t-58 24t-24 58t24 58t58 24t58 -24t24 -58zM160 245q34 0 58 -24t24 -58t-24 -58t-58 -24t-58 24t-24 58t24 58t58 24z" />
    <glyph glyph-name="semicolon" unicode=";" horiz-adv-x="354" 
d="M79 117l57 179h140l-57 -179h-140zM286 546q0 -34 -24 -58t-58 -24t-58 24t-24 58t24 58.5t58 24.5t58 -24.5t24 -58.5z" />
    <glyph glyph-name="less" unicode="&#x3c;" horiz-adv-x="506" 
d="M283 -137l-203 480l203 480h178l-202 -480l202 -480h-178z" />
    <glyph glyph-name="equal" unicode="=" horiz-adv-x="673" 
d="M60 411v165h573v-165h-573zM60 125v165h573v-165h-573z" />
    <glyph glyph-name="greater" unicode="&#x3e;" horiz-adv-x="506" 
d="M240 -137h-179l203 480l-203 480h179l202 -480z" />
    <glyph glyph-name="question" unicode="?" horiz-adv-x="597" 
d="M581 567q-2 -50 -16 -83t-45 -69q-40 -49 -68 -93.5t-38.5 -73t-15.5 -50.5t-3 -32l1 -10h-150q0 27 3.5 51.5t8 43.5t15.5 42t18.5 36.5t24.5 37t25.5 34.5t31 38.5t31.5 39.5q38 47 46 103.5t-19 109.5q-40 62 -98 65h-7.5t-18 -3.5t-25.5 -10.5t-27 -23.5t-25.5 -39
t-18 -60.5t-7.5 -86h-156q1 0 1 1q0 56 22 108q22 50 62 88q83 80 200 80h3.5h3.5q71 -2 129.5 -40.5t88.5 -102.5q22 -48 23 -101zM245 -52q0 62 10.5 72t72 10t72 -10t10.5 -72t-10.5 -72t-72 -10t-72 10t-10.5 72zM396 156h1v1z" />
    <glyph glyph-name="at" unicode="@" horiz-adv-x="1005" 
d="M521 -104h-26.5t-64 6.5t-91 19.5t-97 43t-91.5 72.5t-64 112.5t-26 158q0 69 15.5 127.5t42.5 98.5t61.5 72t72.5 51t76 32.5t72.5 19t61 8.5t42.5 3l16 -1q10 1 26.5 0.5t64 -7t91 -19t96.5 -43t91.5 -72.5t64.5 -112t26 -158q0 -237 -181 -343q-4 -2 -8 -5
q-3 -2 -7 -3h-82q-20 0 -39 8q-23 11 -38.5 32t-19.5 48l-1 -1q-49 -20 -105 -20q-87 0 -151 44q-39 26 -60.5 64t-21.5 81q0 65 46 116q10 10 20 18q8 7 16 12q20 14 42 23q30 12 62 17q23 4 47 4h1q53 0 103 -20q-4 40 -14 69t-23 41t-25 19t-20 7h-8h-8t-19 -3.5
t-26.5 -9.5t-27.5 -21t-25 -36h-105q19 38 51 66q67 60 159.5 60t159.5 -60q34 -30 54 -72q19 -40 21 -85h1v-179v-10.5t2.5 -23t7 -28.5t14 -21t22.5 -7q48 88 48 219q0 63 -11 116t-29.5 89t-43 65.5t-51 46.5t-53.5 29.5t-51 17.5t-42.5 7.5t-29.5 2.5l-11 -1
q-7 1 -18.5 0.5t-45 -6t-64 -17.5t-67.5 -39t-63.5 -65.5t-45 -102t-18.5 -143.5q0 -255 174 -340q74 -37 148 -34q45 -2 101 15q23 -27 58 -33q-38 -10 -78 -15t-61 -5h-20zM605 122v161q-11 22 -26.5 37t-28.5 21.5t-25 10t-19 2.5h-6q-24 2 -47 -13q-8 -6 -15 -12
q-35 -36 -36 -113v-3v-2v-3q1 -40 12 -68.5t23 -41t29.5 -19t22 -7t11.5 -0.5q5 0 10 1q52 6 95 49z" />
    <glyph glyph-name="A" unicode="A" horiz-adv-x="851" 
d="M82 -126h-44l5 15l3 7l5 14v1l300 847l12 35h150l325 -919h-174l-123 347q-152 -2 -276 -91.5t-175 -232.5l-5 -13l-3 -9v-1zM373 697l-216 -609q71 78 166.5 123.5t202.5 50.5z" />
    <glyph glyph-name="B" unicode="B" horiz-adv-x="827" 
d="M705 569q0 -60 -29.5 -111t-78.5 -81q82 -22 135.5 -91t53.5 -156q0 -107 -75.5 -182t-181.5 -75h-312q-6 0 -12 1h-103v919h62h317q93 0 158.5 -65.5t65.5 -158.5zM266 753v-367h105q76 0 129.5 54t53.5 129.5t-53.5 129.5t-129.5 54h-105zM266 -86h118q90 0 153 63
t63 152.5t-63 152.5t-153 63h-118v-431z" />
    <glyph glyph-name="C" unicode="C" horiz-adv-x="886" 
d="M484 -88q0 1 4.5 0t14.5 1t21.5 4t26 9t29.5 16t31 25.5t30.5 36.5t28 49.5t22.5 64.5h169q-28 -60 -72 -110q-58 -67 -135 -104q-80 -39 -171 -39q-89 0 -169 39q-77 37 -136 104q-58 67 -89 152t-31 178t31 178t89 152q59 66 136 104q80 39 170 39t170 -39
q76 -38 135 -104q44 -51 72 -111h-169q-44 160 -155 198q-31 10 -53 9q-5 0 -13.5 -0.5t-33 -7t-46.5 -20t-49 -44.5t-46.5 -74.5t-32.5 -116t-13 -163.5q0 -72 8 -132t21.5 -101.5t31 -75t37 -53t38.5 -33.5t37 -19.5t31.5 -8.5t21.5 -3h8z" />
    <glyph glyph-name="D" unicode="D" horiz-adv-x="844" 
d="M555 791q106 0 181 -75t75 -181v-405q0 -107 -75 -182t-181 -75h-288h-164v919h164v-1h288zM267 751v-837h163q89 0 152.5 63t63.5 153v405q0 89 -63.5 152.5t-152.5 63.5h-163z" />
    <glyph glyph-name="E" unicode="E" horiz-adv-x="711" 
d="M682 751h-419v-367h419v-41h-419v-429h419v-41h-419h-164v919h164v-1h419v-40z" />
    <glyph glyph-name="F" unicode="F" horiz-adv-x="701" 
d="M99 -127v919h164v-1h419v-40h-419v-367h419v-41h-419v-470h-164z" />
    <glyph glyph-name="G" unicode="G" horiz-adv-x="985" 
d="M325 -96q-77 37 -135 104t-89 152t-31 178t31 178t89 152q58 66 135 104q80 39 170 39t170 -39q77 -38 135 -104q44 -51 72 -111h-168q-13 45 -31 80.5t-37 56.5t-39.5 36t-38.5 21.5t-32 9.5t-23 3h-8q-5 0 -13.5 -0.5t-32.5 -7t-46.5 -20t-49.5 -44.5t-46 -74.5
t-32.5 -116t-13.5 -163.5q0 -72 8 -132t21.5 -101.5t31 -75t37 -53t39 -33.5t37 -19.5t31 -8.5t21.5 -3h8h12.5t30.5 6t44 18t47.5 39.5t46 66.5t34.5 104t18 146h-209v41h401q0 -92 -31 -175.5t-89 -149.5q-58 -67 -135 -104q-80 -39 -170 -39t-170 39z" />
    <glyph glyph-name="H" unicode="H" horiz-adv-x="865" 
d="M266 343v-470h-164v919h164v-408h357v408h165v-919h-165v470h-357z" />
    <glyph glyph-name="I" unicode="I" horiz-adv-x="309" 
d="M77 -127v919h164v-919h-164z" />
    <glyph glyph-name="J" unicode="J" horiz-adv-x="665" 
d="M201 -120q-52 24 -91 66q-81 87 -81 209h165q0 -53 6.5 -95.5t17 -68t23 -43.5t25.5 -25.5t23.5 -12t16.5 -4.5l7 1q2 -1 6.5 -0.5t17 4t23.5 11.5t25 26t24 43.5t16.5 68t6.5 95.5v639h164v-639q0 -122 -81 -209q-38 -42 -90 -66q-53 -24 -112 -24t-112 24z" />
    <glyph glyph-name="K" unicode="K" horiz-adv-x="822" 
d="M716 771l-352 -379l457 -519h-192l-362 412v-412h-164v919h164v-444l393 423h56z" />
    <glyph glyph-name="L" unicode="L" horiz-adv-x="715" 
d="M100 792h164v-878h442v-41h-442h-59h-105v919z" />
    <glyph glyph-name="M" unicode="M" horiz-adv-x="977" 
d="M146 680v-806h-41v918h41h133l227 -811l226 811h1h20h145v-919h-165v771l-206 -739l-9 -32h-21h-126z" />
    <glyph glyph-name="N" unicode="N" horiz-adv-x="758" 
d="M635 -77v870h41v-919h-41h-144l-351 844v-844h-41v919h10h164z" />
    <glyph glyph-name="O" unicode="O" horiz-adv-x="943" 
d="M486 793q8 1 23 0.5t58.5 -7.5t83 -21.5t87.5 -49t82.5 -82t58 -127t23.5 -179.5q0 -78 -14 -144t-38.5 -111.5t-55.5 -82t-65.5 -57.5t-69 -36.5t-66 -22t-55.5 -9.5t-38 -3h-14h-24t-58.5 7.5t-82.5 22t-87 49t-82.5 82t-58.5 127t-24 178.5q0 79 14.5 145t38.5 111.5
t55 81.5t65.5 57.5t69.5 37t66 22t55 9.5t38 3zM486 -97h14t34.5 7t49 20t52 44t49 74.5t34.5 116t14 162.5q0 72 -8.5 132t-23 101.5t-33 74.5t-39 52.5t-41 33.5t-39 19.5t-32.5 8.5t-23 3h-8h-14t-35 -7t-49 -20t-51.5 -44t-49.5 -74.5t-35 -116t-14 -163.5
q0 -71 8.5 -131t23 -101.5t33 -74.5t39 -52.5t41 -33.5t39 -19.5t33 -8.5t22.5 -3h9z" />
    <glyph glyph-name="P" unicode="P" horiz-adv-x="765" 
d="M653 710q43 -40 67 -93q25 -54 25 -115q0 -60 -25 -115q-24 -53 -67 -92q-89 -83 -215 -83h-173v-339h-164v919h112v1h225q126 0 215 -83zM438 253h8.5t20 4t28.5 12t30.5 26t28.5 43.5t20 68t8 95.5q0 192 -97 238q-26 13 -47 11h-173v-498h173z" />
    <glyph glyph-name="Q" unicode="Q" horiz-adv-x="938" 
d="M809 102q-44 25 -96 31q20 84 20 194q0 72 -8.5 132t-23 101.5t-33 74.5t-39 52.5t-41 33.5t-39 19.5t-32.5 8.5t-23 3h-8h-14t-35 -7t-49 -20t-51.5 -44t-49.5 -74.5t-35 -116t-14 -163.5q0 -81 11.5 -147.5t28.5 -109.5t41 -75.5t46 -49t46 -27.5q34 79 104 128
q15 10 31 19q30 20 79 29q31 7 63 7h2h4h1h1h2h2h1h3h1l1 -1h1h1h2h1h1h2q3 -1 5 -1l2 -1h2q1 0 3 -1h2h2l2 -1h2l2 -1h2q2 -1 5 -1l2 -1q5 -1 10 -3l3 -1q1 0 2 -1q3 -1 5 -2l2 -1l3 -1l3 -1l2 -1l2 -1q2 -1 3 -1l3 -1l1 -1q1 0 2 -1l1 -1q1 0 3 -1l2 -1l1 -1q3 -1 5 -3h2
v-1l2 -1l2 -1q0 -1 1 -1q1 -1 2 -1l1 -1l1 -1q1 0 2 -1q2 -2 3 -2q1 -1 3 -2q0 -1 2 -2l2 -2q1 0 1.5 -0.5t0.5 -1.5q2 -1 3 -2t3 -2l2 -3h1v-1h1l1 -1v-1l1 -1q1 0 2 -2l1 -1l2 -2l3 -3l1 -1v-1q3 -2 4 -3q0 -1 1 -2q2 -2 3 -5l2 -2q1 -1 1.5 -2t1.5 -2t2 -3q1 -1 2 -3
l1 -2q1 -1 1 -2q1 -2 2 -2v-2q1 0 2 -1l1 -2l4 -8v-2q2 -3 2 -4q1 -1 1 -3q1 -1 1 -2q1 0 1 -1t1 -3l1 -3v-1l1 -1l1 -3q0 -1 1 -3v-1q1 -2 1 -3q1 -1 2 -4v-2t1 -2v-3q1 -2 2 -5v-2v-1q1 -1 1 -3v-1q1 -2 1 -4v-3h1v-1v-3v-1q1 -2 1 -4v-1l1 -4v-4v-3q1 -1 1 -3v-5
q0 -3 1 -4v-2v-3v-2v-4v-1v-5v-5h-21h-157h-40q0 14 -1 27q-44 -20 -91.5 -30.5t-73.5 -10.5h-25h-24t-58.5 7.5t-82.5 22t-87 49t-82.5 82t-58.5 127t-24 178.5q0 79 14.5 145t38.5 111.5t55 81.5t65.5 57.5t69 37t66 22t55.5 9.5t38 3h15q8 0 23 -0.5t58.5 -7.5t83 -21.5
t87.5 -49t82.5 -82t58 -127t23.5 -179.5q0 -150 -52 -254q-19 17 -41 29zM536 10q-56 -40 -85 -104q9 -2 18 -2.5t13 -0.5h4q2 2 10 0.5t27 3.5t38.5 12t44 26.5t44.5 46.5q-8 11 -18 20q-2 1 -4 3l-2 1q-2 1 -3 2q-26 15 -58 11q-2 -1 -3 -2q-13 -7 -26 -17z" />
    <glyph glyph-name="R" unicode="R" horiz-adv-x="796" 
d="M709 243q77 -64 77 -155v-214h-186v214q0 73 -63 125t-153 52h-118v-391h-164v919h367q123 0 211 -72q45 -35 70 -83q27 -51 27 -109t-27 -109q-25 -47 -70 -83q-30 -25 -66 -41q-1 0 -3 -1q31 -9 59 -25q21 -12 39 -27zM475 312h7t19.5 3.5t27.5 10.5t29 22.5t27.5 38
t19.5 59.5t8 83.5t-7.5 83.5t-20 59t-27 38t-29.5 22.5t-27 10t-20 3.5h-7h-209v-434h209z" />
    <glyph glyph-name="S" unicode="S" horiz-adv-x="773" 
d="M349 431q14 -5 42 -14q49 -16 74.5 -25t68.5 -26.5t66 -31.5t53 -37.5t45 -48t25.5 -58t10.5 -72.5q0 -52 -19 -94t-49.5 -66.5t-67 -42.5t-73.5 -25.5t-67.5 -11.5t-49.5 -4h-19q-7 -1 -19.5 -0.5t-48.5 4t-68.5 11.5t-72 26t-68.5 42.5t-48.5 66.5t-19.5 94l180 9
q0 -153 108 -192q31 -11 57 -10h9t22 3t31 8.5t33.5 19t32.5 32t24.5 49.5t12.5 69v4v2q3 67 -56.5 125.5t-150.5 79.5q-107 30 -166 64t-81 75.5t-21 103.5q2 168 170 223q72 24 140 22h17.5t42.5 -4t60.5 -11t64 -24.5t61.5 -41.5t44.5 -64t20.5 -91h-162q0 44 -8 78.5
t-21.5 55t-29 35t-31.5 21t-29 10t-22 2.5h-8q-3 1 -8 0.5t-19.5 -3t-27.5 -8t-30 -19t-29.5 -31.5t-22 -48.5t-11.5 -69.5v-10q0 -42 19 -78q23 -43 66 -65q5 -3 23 -8z" />
    <glyph glyph-name="T" unicode="T" horiz-adv-x="787" 
d="M322 792h165h275v-41h-275v-878h-165v878h-275v41h275z" />
    <glyph glyph-name="U" unicode="U" horiz-adv-x="925" 
d="M675 339v453h178v-502q0 -189 -108 -307q-51 -56 -121 -86.5t-149 -30.5t-148.5 30.5t-121.5 86.5q-107 118 -107 307v502h178v-453q0 -72 6.5 -132t18 -101.5t26.5 -75t31.5 -53t33.5 -33.5t32 -19.5t26.5 -8.5t18.5 -3h6h12t28 7t39.5 20t41.5 44.5t40 75t28 116
t11 163.5z" />
    <glyph glyph-name="V" unicode="V" horiz-adv-x="843" 
d="M499 -19l287 811h44l-309 -872l-16 -46h-43h-99l-325 918h174z" />
    <glyph glyph-name="W" unicode="W" horiz-adv-x="1100" 
d="M851 -39l190 830h42l-208 -909l-1 -5h-21h-148l-131 432l-89 -392l-9 -40h-21h-130l-276 914h172l240 -795l90 392l-122 403h172z" />
    <glyph glyph-name="X" unicode="X" horiz-adv-x="766" 
d="M708 793l-254 -398l299 -521h-190l-209 365l-233 -365h-48l258 405l-295 514h189l206 -358l229 358h48z" />
    <glyph glyph-name="Y" unicode="Y" horiz-adv-x="778" 
d="M488 435l229 358h49l-255 -398l-4 -7v-514h-164v385l-12 20l-295 514h190l205 -358l26 -45h3z" />
    <glyph glyph-name="Z" unicode="Z" horiz-adv-x="767" 
d="M255 -124h-95h-89l442 876h-385v41h406h100h84l-442 -877h440v-40h-461z" />
    <glyph glyph-name="bracketleft" unicode="[" horiz-adv-x="469" 
d="M263 -153h-94h-70v983h70h94h180v-41h-180v-901h180v-41h-180z" />
    <glyph glyph-name="backslash" unicode="\" horiz-adv-x="1164" 
d="M1005 417h151v-47h-161l-114 -494h-168l-118 423l-96 -423h-168l-138 494h-152v47h138l-95 342h158l96 -342h224l-95 342h158l95 -342h243l79 342h41zM471 -61l99 431h-219zM953 370h-220l121 -431z" />
    <glyph glyph-name="bracketright" unicode="]" horiz-adv-x="465" 
d="M38 -112h180v901h-180v41h274h70v-983h-70h-94h-180v41z" />
    <glyph glyph-name="asciicircum" unicode="^" horiz-adv-x="433" 
d="M257 509l-107 251l-83 -251h-42l101 308v1h3h161l131 -309h-164z" />
    <glyph glyph-name="underscore" unicode="_" horiz-adv-x="533" 
d="M33 -60v41h484v-41h-484z" />
    <glyph glyph-name="grave" unicode="`" horiz-adv-x="272" 
d="M41 766l57 -179h140l-58 179h-139z" />
    <glyph glyph-name="a" unicode="a" horiz-adv-x="682" 
d="M266 275q27 4 54 4q63 0 120 -21q-4 43 -16 74.5t-26.5 44.5t-28.5 20.5t-23 7.5h-10q-3 1 -9 0.5t-22 -4t-30.5 -10.5t-31 -23t-28.5 -39h-121q23 42 59 72q77 65 183 65t183 -65q39 -33 62 -78q22 -44 25 -93v-357h-165v15q-56 -22 -121 -22q-99 0 -172 48
q-45 28 -70 70t-25 88q0 71 54 126q10 11 22 20q9 7 19 13q23 15 48 25q34 13 70 19zM442 148q-51 73 -122 78q-26 2 -53 -15q-10 -6 -17 -13q-41 -39 -42 -122v-4v-3v-2q1 -32 7.5 -57t14.5 -40.5t22 -26t22 -15t22 -7t15.5 -2.5h8.5q6 0 12 1q27 2 54.5 15.5t41.5 25.5
l14 12v175z" />
    <glyph glyph-name="b" unicode="b" horiz-adv-x="772" 
d="M415 442h18.5t45.5 -4.5t64.5 -14t67.5 -30.5t64 -50.5t45 -79t18 -111.5t-17.5 -112t-46 -79.5t-63 -50.5t-69 -30t-63 -14t-46.5 -5h-18q-9 0 -26 0.5t-62 9t-82 26.5v-22h-165v919h165v-388q37 18 79.5 27t66.5 9h24zM398 -93q3 -1 8.5 -0.5t21 4t30 11.5t32.5 26
t30.5 43t21.5 66.5t9 94.5q0 48 -7.5 87.5t-19 64.5t-27 43.5t-29.5 27.5t-29.5 14.5t-23.5 6.5t-15 1q-13 0 -31 -1.5t-56.5 -15.5t-67.5 -41v-354q2 -4 6.5 -9t20 -18t31.5 -23.5t40.5 -19t48.5 -8.5h1h2h3z" />
    <glyph glyph-name="c" unicode="c" horiz-adv-x="692" 
d="M377 400h-7.5t-18.5 -4t-27 -11.5t-28.5 -25.5t-27 -43t-19 -67t-7.5 -94.5t7.5 -94.5t19.5 -67t26.5 -43t29 -25.5t26 -11.5t19.5 -4h7h10t23 6t31.5 17t31 37.5t26.5 62.5h176q-27 -53 -72 -91q-94 -81 -225.5 -81t-226.5 81q-46 39 -73 94q-28 56 -28 120q0 63 28 120
q27 54 73 93q95 82 226.5 82t225.5 -82q45 -38 72 -91h-176q-10 37 -26 63t-32 37t-30.5 17t-24.5 6h-9z" />
    <glyph glyph-name="d" unicode="d" horiz-adv-x="772" 
d="M550 406v388h164v-919h-164v22q-37 -18 -80 -26.5t-67 -8.5l-24 -1h-18.5t-45 5t-64 14t-68 30t-64 51t-45 79.5t-18.5 111.5t18 111.5t46.5 79t63 51t68.5 30t62.5 13.5t46.5 5h18q10 0 26.5 -0.5t62 -9t82.5 -26.5zM550 -15v354q-29 27 -67.5 41t-56.5 15.5t-31 1.5
q-7 0 -15 -1t-23.5 -6.5t-29.5 -14.5t-29.5 -27.5t-27 -43.5t-19 -64.5t-7.5 -87.5q0 -188 102 -234q28 -13 51 -11h3h1h1q77 1 142 70z" />
    <glyph glyph-name="e" unicode="e" horiz-adv-x="751" 
d="M702 177q1 -8 1 -15v-4v-5q0 -9 -1 -17h-445q5 -178 92 -216q20 -9 35 -8h9t22 6t30 17t29.5 37.5t24.5 62.5h175q-25 -51 -68 -90q-93 -82 -222 -82t-221 82q-45 40 -71 94q-26 56 -26 119q0 62 26 118q26 54 71 94q92 83 221 83t222 -83q44 -40 70 -94q23 -47 26 -99z
M257 177h254q-4 180 -91 219q-20 8 -36 7h-6.5t-17.5 -3.5t-24.5 -10.5t-26 -23.5t-25 -40t-18.5 -62t-9 -86.5z" />
    <glyph glyph-name="f" unicode="f" horiz-adv-x="598" 
d="M337 571q-3 -18 -3 -36v-1v-69h212v-40h-212v-552h-164v552h-147v40h147v69q0 115 58 187q62 74 160 74t159 -74q39 -47 52 -115h-128q-14 133 -58 148l-8 1l-12 -3q-47 -25 -56 -181z" />
    <glyph glyph-name="g" unicode="g" horiz-adv-x="772" 
d="M385 -503q3 0 9 0.5t23.5 5t33 12.5t34.5 27t32.5 44.5t23 67.5t9.5 94v148q-37 -18 -80 -26.5t-67 -9.5h-24h-18.5t-45 4.5t-64 14t-68 30.5t-64 50.5t-45 79t-18.5 112t18 112t46.5 79t63 51t68.5 30t62.5 13.5t46.5 5h18q10 0 26.5 -0.5t62 -9t82.5 -26.5v36h164v-699
q0 -62 -17.5 -111.5t-46 -79t-63 -51t-69 -30.5t-63 -14t-46.5 -4h-18q-6 -1 -18 -0.5t-45.5 5t-64 13.5t-67.5 30t-64 51t-45 79.5t-18 111.5h151q0 -53 9 -94.5t23.5 -66.5t32.5 -43t35.5 -25.5t32 -11.5t23.5 -4h9zM400 -94q77 0 143 70l7 7v355q-19 18 -42 30.5t-41 17
t-36 8t-26 2.5t-12 -1q-3 1 -8.5 0.5t-22 -4t-31 -11.5t-33 -25.5t-31.5 -43t-21.5 -67t-8.5 -93.5t8.5 -93t21 -66.5t30 -43.5t32 -26t31 -12t22.5 -4.5t11 0.5h3.5h3.5z" />
    <glyph glyph-name="h" unicode="h" horiz-adv-x="815" 
d="M425 441h18.5t45.5 -4.5t64.5 -13.5t67.5 -30.5t64 -51t45 -79t18 -111.5v-277h-188v277q0 48 -7 87.5t-18.5 64.5t-27 43.5t-29.5 27.5t-29.5 14.5t-23.5 6.5t-15 1q-13 0 -31.5 -1t-56.5 -15.5t-67 -41.5v-354v-110h-165v919h165v-387q37 17 79.5 26t66.5 9h24z" />
    <glyph glyph-name="i" unicode="i" horiz-adv-x="291" 
d="M68 -126v567h164v-567h-164zM144 585q-43 2 -71.5 34.5t-26 75.5t34.5 71.5t75 26t71.5 -34.5t26 -75t-34.5 -71.5t-75 -26.5z" />
    <glyph glyph-name="j" unicode="j" horiz-adv-x="559" 
d="M488 442v-700q0 -116 -73 -202q-33 -39 -82 -64q-45 -22 -103 -23q-54 -1 -102 23q-43 21 -82 64q-75 84 -74 202h158q4 -208 76 -235q8 -3 16.5 -4.5t17.5 -0.5t14 4t15 11q9 7 21 25q7 19 19 42q1 2 14 66q6 29 6 92v700h159zM399 585q-43 2 -72 34.5t-26.5 75.5
t34.5 71.5t75 26t72 -34.5t26.5 -75t-34.5 -71.5t-75 -26.5z" />
    <glyph glyph-name="k" unicode="k" horiz-adv-x="707" 
d="M496 445l-156 -167l355 -404h-192l-250 284v-285h-164v919h164v-547l187 200h56z" />
    <glyph glyph-name="l" unicode="l" horiz-adv-x="287" 
d="M66 -126v919h164v-919h-164z" />
    <glyph glyph-name="m" unicode="m" horiz-adv-x="936" 
d="M652 441q98 0 160 -75q59 -71 59 -187v-308h-165v308v1q0 18 -3 36q-9 163 -58 183l-10 1l-13 -3q-52 -28 -57 -218h-1v-308h-164v308v1q0 18 -3 36q-10 163 -59 183l-9 1l-13 -3q-52 -28 -57 -218h-1v-306h-164v566h164v-17q41 19 87 19h1q93 0 153 -68q61 68 153 68z
" />
    <glyph glyph-name="n" unicode="n" horiz-adv-x="690" 
d="M251 182v-306h-164v566h164v-27q55 29 121 29q107 0 177 -68q75 -73 75 -194v-308h-165v308v10q-1 45 -7 81t-15 57.5t-20 37.5t-22 22.5t-20 10t-14 3.5l-6 -1q-2 1 -6 0.5t-14.5 -3.5t-20.5 -10t-22 -23.5t-20.5 -39t-14.5 -60t-6 -85.5z" />
    <glyph glyph-name="o" unicode="o" horiz-adv-x="741" 
d="M681 277q0 -1 1 -2q28 -57 28 -121q0 -63 -28 -119l-1 -3q-27 -53 -72 -91q-94 -81 -225.5 -81t-226.5 81q-46 39 -73 94q-28 56 -28 120q0 63 28 120q27 54 73 93q95 82 226 82t226 -82q45 -38 72 -91zM505 32q13 52 13 122.5t-13 122.5q-10 37 -26 63t-32 37t-30.5 17
t-24.5 6h-9h-7.5t-18.5 -4t-27 -11.5t-28.5 -25.5t-27 -43t-19 -67t-7.5 -94.5t7.5 -94.5t19.5 -67t26.5 -43t28.5 -25.5t26 -11.5t20 -4h7h10t23 6t31.5 17t31 37.5t26.5 62.5z" />
    <glyph glyph-name="p" unicode="p" horiz-adv-x="784" 
d="M425 442h18.5t45.5 -4.5t64.5 -14t67.5 -30.5t64 -50.5t45 -79t18 -111.5q0 -198 -174 -265q-76 -29 -149 -26h-6q-88 0 -164 36v-444h-165v989h165v-36q37 18 79.5 26.5t66.5 9.5h24zM411 -93q4 -1 9.5 -0.5t21.5 4t31 11.5t33 25.5t31 43t22 67t9 94t-8.5 94
t-22.5 66.5t-30.5 43t-33.5 26t-30.5 12t-22.5 3h-9q-3 0 -11.5 1t-26 -2.5t-36 -8t-41 -17t-41.5 -30.5v-355q2 -3 7 -8t20.5 -18.5t32 -24t41 -18.5t49.5 -8h3h3z" />
    <glyph glyph-name="q" unicode="q" horiz-adv-x="781" 
d="M550 405v36h164v-989h-164v444q-37 -18 -80 -26.5t-67 -9.5h-24h-18.5t-45 4.5t-64 14t-68 30.5t-64 50.5t-45 79t-18.5 112.5q0 197 174 264q76 29 149 26q10 0 26.5 -0.5t62 -9t82.5 -26.5zM550 -17v355q-19 18 -42 30.5t-41 17t-36 8t-26 2.5t-12 -1q-3 1 -8.5 0.5
t-22 -4t-31 -11.5t-33 -25.5t-31.5 -42.5t-21.5 -67t-8.5 -94t8.5 -93t21 -66t30 -43.5t32 -26.5t31 -12t22.5 -4.5t11 0.5h3.5h3.5q77 0 143 70z" />
    <glyph glyph-name="r" unicode="r" horiz-adv-x="644" 
d="M383 442q115 0 198 -82q41 -39 63 -91h-167q-25 107 -81 122l-13 1q-4 1 -10.5 0.5t-25.5 -7t-35 -18.5t-33.5 -40.5t-26.5 -68.5v-383h-165v567h165v-33q61 33 131 33z" />
    <glyph glyph-name="s" unicode="s" horiz-adv-x="630" 
d="M506 160q86 -47 86 -128q0 -54 -38 -91q-22 -22 -56.5 -36.5t-70 -20.5t-57.5 -8t-40 -2h-4h-2q-13 0 -32.5 1t-58.5 6t-77 20.5t-63 39.5q-37 37 -37 91v14l161 6v-15q0 -49 28 -75q29 -28 78 -28h1h1h11.5t24.5 5t30.5 13.5t25 27.5t13.5 46v1.5v1.5q2 32 -38 62.5
t-100 41.5h-1l-2 1q-118 26 -163 60q-46 34 -45 95q1 58 41 96q23 22 57 36t67 19t50 6t28 1q58 1 116 -16q123 -35 127 -136v-15h-149v15q0 52 -27 78q-26 25 -66 25h-1h-1q-24 0 -45 -11q-44 -21 -48 -80v-5q0 -20 11 -38q15 -21 42 -32q6 -2 12 -3l3 -1q12 -3 31 -8
q128 -33 177 -60z" />
    <glyph glyph-name="t" unicode="t" horiz-adv-x="561" 
d="M347 -87l14 3q57 29 57 216v2h131q0 -116 -59 -187q-62 -74 -160 -74t-159 74q-59 71 -59 187v291h-87v41h87v328h165v-328h272v-41h-272v-290h-1q0 -190 57 -219q8 -4 14 -3z" />
    <glyph glyph-name="u" unicode="u" horiz-adv-x="687" 
d="M466 138v303h165v-566h-165v24q-51 -24 -108 -24q-109 0 -188 82q-39 41 -60 94q-23 57 -23 118v1v272h163v-272q0 -53 6 -95t15.5 -67t21 -43t23 -25.5t21 -11.5t15.5 -4h6h6t14.5 3.5t20 10t21.5 22t21 37.5t16 58.5t9 82.5z" />
    <glyph glyph-name="v" unicode="v" horiz-adv-x="612" 
d="M380 -64l180 506h43l-201 -567h-43h-132l-200 567h174z" />
    <glyph glyph-name="w" unicode="w" horiz-adv-x="842" 
d="M667 -42l123 484h42l-144 -567h-42h-128l-85 337l-85 -337h-42h-128l-144 567h170l123 -484l85 337l-37 147h74h42h53z" />
    <glyph glyph-name="x" unicode="x" horiz-adv-x="570" 
d="M497 442l-149 -214l217 -353h-193l-127 205l-142 -205h-50l169 243l-199 324h193l108 -176l123 176h50z" />
    <glyph glyph-name="y" unicode="y" horiz-adv-x="669" 
d="M624 442h44l-488 -960h-44l208 411l-233 549h173l155 -364z" />
    <glyph glyph-name="z" unicode="z" horiz-adv-x="654" 
d="M422 442h196l-342 -526h338v-41h-364h-157h-40l342 526h-332v41h359z" />
    <glyph glyph-name="braceleft" unicode="{" horiz-adv-x="492" 
d="M203 799q22 22 52 22h214v-41h-96q-11 0 -19 -8t-8 -19v-344q-5 -24 -18 -39.5t-30 -15.5h-40v-41h40q17 0 30 -15.5t18 -39.5v-344q0 -11 8 -19t19 -8h96v-41h-214q-30 0 -52 22t-22 52v315q0 33 -22.5 55.5t-54.5 22.5h-63v41h63q32 0 54.5 23t22.5 55v315q0 30 22 52z
" />
    <glyph glyph-name="bar" unicode="|" horiz-adv-x="283" 
d="M64 -149v1028h164v-1028h-164z" />
    <glyph glyph-name="braceright" unicode="}" horiz-adv-x="492" 
d="M325 432q0 -32 23 -55t55 -23h62v-41h-62q-32 0 -55 -22.5t-23 -55.5v-315q0 -30 -21.5 -52t-52.5 -22h-214v41h97q11 0 19 8t8 19v344q5 24 18 39.5t30 15.5h40v41h-40q-17 0 -30 15.5t-18 39.5v344q0 11 -8 19t-19 8h-97v41h214q31 0 52.5 -22t21.5 -52v-315z" />
    <glyph glyph-name="asciitilde" unicode="~" horiz-adv-x="680" 
d="M331 399q111 -64 169 34q16 27 22 53l125 -63q-28 -57 -61.5 -90.5t-68.5 -41t-66 -2.5t-63 21q-9 5 -17 10q-9 5 -18 11q-110 64 -168 -34q-16 -27 -22 -53l-125 63q27 57 61 90.5t69 41t66 2.5t63 -21q9 -5 17 -9.5t17 -11.5z" />
    <glyph glyph-name="exclamdown" unicode="&#xa1;" horiz-adv-x="1065" 
d="M443 627v123h115v-123h-115zM443 83l12 438h92l10 -438v-137h-114v137z" />
    <glyph glyph-name="currency" unicode="&#xa4;" horiz-adv-x="1067" 
d="M754 360q0 -81 -47 -143l106 -106l-73 -74l-109 109q-59 -35 -131 -35t-132 35l-108 -109l-73 74l106 106q-46 62 -46 143q0 80 46 142l-106 107l73 74l108 -111q61 37 131 37h1h1q70 0 130 -37l109 111l73 -74l-106 -107q47 -62 47 -142zM650 360q0 72 -43 115t-107 43
t-107 -43t-43 -115t43 -115t107 -43t107 43t43 115z" />
    <glyph glyph-name="section" unicode="&#xa7;" horiz-adv-x="1065" 
d="M495 706q-40 0 -63.5 -21t-23.5 -57q0 -35 21.5 -57t70.5 -33q102 -23 150 -64t48 -120q0 -91 -81 -133q38 -23 55 -54t17 -77q0 -69 -50.5 -111t-134 -42t-134 42t-50.5 111v7h97v-6q0 -34 25 -56t63 -22q39 0 63 21t24 57q0 35 -23.5 55.5t-75.5 34.5q-101 26 -146 65
t-45 117q0 91 79 134q-37 22 -53.5 53.5t-16.5 77.5q0 70 50 112.5t134 42.5t134 -42.5t50 -111.5v-8h-97v7q0 33 -25 55.5t-62 22.5zM398 370q0 -51 29 -72.5t113 -42.5q61 28 61 94q0 48 -30.5 72.5t-111.5 40.5q-61 -26 -61 -92z" />
    <glyph glyph-name="dieresis" unicode="&#xa8;" horiz-adv-x="1070" 
d="M405 681v-138h-120v138h120zM640 681v-138h-121v138h121z" />
    <glyph glyph-name="ordfeminine" unicode="&#xaa;" horiz-adv-x="1067" 
d="M303 262v77h394v-77h-394zM577 456q-26 -55 -118 -55q-67 0 -108 34.5t-41 98.5t41 98.5t107 34.5q94 0 119 -56v85q0 71 -75 71q-33 0 -51.5 -16t-19.5 -46h-98q4 64 47 100.5t122 36.5q82 0 127 -40t45 -107v-226q0 -28 9 -58h-99q-7 16 -7 45zM408 534q0 -29 22 -44.5
t62 -15.5t62.5 15.5t22.5 44.5t-22.5 44.5t-62.5 15.5t-62 -15.5t-22 -44.5z" />
    <glyph glyph-name="degree" unicode="&#xb0;" horiz-adv-x="1067" 
d="M656 578q0 -69 -42.5 -112.5t-114.5 -43.5q-70 0 -112.5 43.5t-42.5 112.5t42.5 112.5t112.5 43.5q72 0 114.5 -43.5t42.5 -112.5zM573 578q0 36 -20.5 57.5t-53.5 21.5q-31 0 -51.5 -21.5t-20.5 -57.5t20.5 -58t51.5 -22q33 0 53.5 22t20.5 58z" />
    <glyph glyph-name="plusminus" unicode="&#xb1;" horiz-adv-x="1067" 
d="M251 388v92h197v203h104v-203h197v-92h-197v-202h-104v202h-197zM251 24v93h498v-93h-498z" />
    <glyph glyph-name="uni00B2" unicode="&#xb2;" horiz-adv-x="1102" 
d="M298 671q0 34 -19 54.5t-53 20.5q-36 0 -54.5 -20.5t-18.5 -54.5v-18h-98v19q0 75 46 119t125 44q77 0 123.5 -44t46.5 -119q0 -39 -14 -69.5t-46 -66.5l-141 -158h200v-85h-330v72l202 230q31 35 31 76z" />
    <glyph glyph-name="uni00B3" unicode="&#xb3;" horiz-adv-x="1101" 
d="M233 757q-33 0 -51.5 -18t-18.5 -50v-8h-96v16q0 63 45.5 103t120.5 40t120 -40t45 -105q0 -88 -81 -114q95 -28 95 -130q0 -71 -47.5 -116.5t-131.5 -45.5q-85 0 -132 46t-47 117v19h98v-16q0 -38 22 -61.5t59 -23.5t58.5 23t21.5 60q0 41 -22 62.5t-62 21.5h-44v81h44
q35 0 54 18t19 51t-18 51.5t-51 18.5z" />
    <glyph glyph-name="acute" unicode="&#xb4;" horiz-adv-x="1065" 
d="M566 715l-32 -148h-95l33 148h94z" />
    <glyph glyph-name="paragraph" unicode="&#xb6;" horiz-adv-x="1074" 
d="M422 787h254v-878h-79v801h-52v-801h-78v381h-31q-109 0 -178.5 66t-69.5 180v7q0 115 62.5 179.5t171.5 64.5z" />
    <glyph glyph-name="periodcentered" unicode="&#xb7;" horiz-adv-x="1067" 
d="M563 428v-136h-126v136h126z" />
    <glyph glyph-name="cedilla" unicode="&#xb8;" horiz-adv-x="1064" 
d="M379 19l34 63q36 -28 84 -28q60 0 60 41q0 47 -68 47q-30 0 -46 -7l-18 23l46 95h84l-29 -58q119 -13 119 -103q0 -51 -37.5 -81.5t-101.5 -30.5q-72 0 -127 39z" />
    <glyph glyph-name="uni00B9" unicode="&#xb9;" horiz-adv-x="1110" 
d="M274 294h-99v439l-112 -52v87l127 59h84v-533z" />
    <glyph glyph-name="ordmasculine" unicode="&#xba;" horiz-adv-x="1067" 
d="M303 240v76h394v-76h-394zM688 598q0 -107 -47.5 -164t-140.5 -57q-94 0 -141.5 57t-47.5 164t47.5 164t141.5 57q93 0 140.5 -57t47.5 -164zM591 598q0 77 -21.5 111t-69.5 34q-49 0 -70.5 -34t-21.5 -111q0 -78 21.5 -111.5t70.5 -33.5q48 0 69.5 34t21.5 111z" />
    <glyph glyph-name="onequarter" unicode="&#xbc;" horiz-adv-x="1065" 
d="M263 229h-99v439l-112 -52v87l128 59h83v-533zM611 762h96l-392 -804h-96zM893 144h55v-83h-55v-103h-97v103h-229v75l217 355h109v-347zM796 144v210l-129 -210h129z" />
    <glyph glyph-name="onehalf" unicode="&#xbd;" horiz-adv-x="1065" 
d="M607 762h96l-392 -804h-97zM269 229h-99v439l-112 -52v86l128 60h83v-533zM883 200l-141 -158h200v-84h-331v72l202 229q32 37 32 77q0 33 -19.5 54.5t-54 21.5t-53.5 -21.5t-19 -54.5v-18h-99v19q0 74 46.5 118t124.5 44t125 -44t47 -118q0 -39 -14 -69.5t-46 -67.5z
" />
    <glyph glyph-name="threequarters" unicode="&#xbe;" horiz-adv-x="1065" 
d="M400 378q0 -71 -47.5 -116.5t-130.5 -45.5q-85 0 -132 46t-47 117v19h98v-16q0 -39 21.5 -62t59 -23t59 23t21.5 60q0 41 -22 62.5t-62 21.5h-43v81h43q34 0 53.5 18t19.5 51t-18.5 51.5t-51 18.5t-51 -18.5t-18.5 -49.5v-9h-96v17q0 63 45.5 103t120.5 40q74 0 119 -40
t45 -105q0 -88 -80 -115q94 -27 94 -129zM903 139h55v-83h-55v-103h-97v103h-229v76l217 354h109v-347zM806 139v210l-129 -210h129zM670 758h96l-392 -805h-97z" />
    <glyph glyph-name="questiondown" unicode="&#xbf;" horiz-adv-x="1067" 
d="M265 178q0 65 23 110t77 93q50 44 67 74.5t17 75.5v27h113v-35q0 -62 -21.5 -103t-81.5 -93q-46 -41 -63.5 -72.5t-17.5 -74.5q0 -61 33.5 -96t89.5 -35q55 0 88.5 36.5t33.5 96.5h112v-4q0 -101 -62 -164t-172 -63q-112 0 -174 63t-62 164zM448 646v123h115v-123h-115z
" />
    <glyph glyph-name="AE" unicode="&#xc6;" horiz-adv-x="1065" 
d="M987 -42h-483v177h-268l-91 -177h-131l419 804h548v-103h-357v-239h316v-102h-316v-258h363v-102zM504 237v418l-216 -418h216z" />
    <glyph glyph-name="Eth" unicode="&#xd0;" horiz-adv-x="1066" 
d="M166 402h71v360h288q75 0 130.5 -22.5t89 -59t53.5 -90.5t27 -108.5t7 -121.5q0 -68 -7 -122.5t-27.5 -108.5t-53.5 -90.5t-89 -58.5t-130 -22h-288v360h-71v84zM713 360q0 160 -45 229.5t-152 69.5h-159v-257h143v-84h-143v-257h159q107 0 152 69.5t45 229.5z" />
    <glyph glyph-name="multiply" unicode="&#xd7;" horiz-adv-x="1066" 
d="M655 128l-159 162l-159 -162l-69 67l160 163l-160 164l69 68l159 -162l159 162l69 -68l-159 -164l159 -163z" />
    <glyph glyph-name="Oslash" unicode="&#xd8;" horiz-adv-x="1067" 
d="M298 -81h-91l64 116q-83 100 -83 321q0 416 312 416q100 0 166 -42l36 65h91l-66 -117q85 -94 85 -322q0 -415 -312 -415q-96 0 -166 41zM306 356q0 -142 31 -209l275 488q-43 34 -112 34q-104 0 -149 -74t-45 -239zM694 356q0 137 -31 209l-275 -489q44 -32 112 -32
q104 0 149 74t45 238z" />
    <glyph glyph-name="Thorn" unicode="&#xde;" horiz-adv-x="1067" 
d="M336 762v-150h193q121 0 188 -66.5t67 -186.5q0 -119 -67 -185.5t-188 -66.5h-193v-149h-120v804h120zM336 209h177q74 0 112.5 39t38.5 111.5t-38.5 111.5t-112.5 39h-177v-301z" />
    <glyph glyph-name="germandbls" unicode="&#xdf;" horiz-adv-x="1067" 
d="M601 363q78 -12 129 -63.5t51 -140.5q0 -102 -66.5 -158t-181.5 -56q-57 0 -102 11v102q40 -11 91 -11q67 0 103.5 31t36.5 87q0 70 -50 109t-135 39h-22v100h30q70 0 103 34t33 92q0 59 -38 96t-102 37q-68 0 -105.5 -37.5t-37.5 -105.5v-571h-119v572q0 109 68 177
t194 68q63 0 113.5 -19t82 -51.5t48 -74t16.5 -88.5q0 -66 -38 -115t-102 -64z" />
    <glyph glyph-name="ae" unicode="&#xe6;" horiz-adv-x="1065" 
d="M944 361q0 -24 -1 -34h-394q7 -177 142 -177q53 0 85.5 25t40.5 70h115q-15 -88 -77.5 -137t-163.5 -49q-137 0 -192 96q-25 -46 -80 -71t-131 -25q-112 0 -172 48t-60 134t57.5 134.5t156.5 48.5q62 0 106 -19.5t60 -55.5v96q0 59 -31 91.5t-93 32.5q-54 0 -84 -24.5
t-36 -67.5h-114q7 85 67 134.5t166 49.5q68 0 117.5 -25.5t74.5 -74.5q55 100 188 100q126 0 189.5 -78t63.5 -222zM302 146q66 0 100 24.5t34 70.5t-34 71t-100 25q-65 0 -98.5 -25t-33.5 -71t33.5 -70.5t98.5 -24.5zM550 408h279q-8 162 -139 162q-130 0 -140 -162z" />
    <glyph glyph-name="eth" unicode="&#xf0;" horiz-adv-x="1065" 
d="M602 681q78 -71 115 -180t37 -262q0 -145 -63 -223.5t-191 -78.5t-191 78.5t-63 223.5q0 150 60 225t168 75q94 0 135 -56q-24 86 -96 144l-98 -59l-32 50l77 46q-44 26 -92 44l63 75q70 -28 121 -63l93 57l32 -50zM500 30q75 0 108 52.5t33 156.5q0 101 -33 154t-108 53
q-76 0 -109 -52.5t-33 -154.5q0 -104 33 -156.5t109 -52.5z" />
    <glyph glyph-name="divide" unicode="&#xf7;" horiz-adv-x="1069" 
d="M533 618v-130h-116v130h116zM226 313v92h498v-92h-498zM533 230v-130h-116v130h116z" />
    <glyph glyph-name="oslash" unicode="&#xf8;" horiz-adv-x="1065" 
d="M674 600q80 -77 80 -240q0 -145 -63.5 -223t-190.5 -78q-65 0 -113 21l-29 -51h-82l50 90q-80 74 -80 241q0 145 64 223t190 78q65 0 112 -22l29 52h81zM383 222l183 332q-28 14 -66 14q-76 0 -108.5 -52.5t-32.5 -155.5q0 -88 24 -138zM500 151q76 0 108.5 53t32.5 156
q0 90 -25 137l-182 -332q29 -14 66 -14z" />
    <glyph glyph-name="thorn" unicode="&#xfe;" horiz-adv-x="1067" 
d="M526 670q109 0 168.5 -75t59.5 -225q0 -151 -59.5 -226t-168.5 -75q-63 0 -106.5 27.5t-60.5 74.5v-338h-113v1054h113v-320q17 48 60.5 75.5t106.5 27.5zM500 161q76 0 108.5 53t32.5 156q0 102 -32.5 154.5t-108.5 52.5t-108.5 -52.5t-32.5 -154.5q0 -103 32.5 -156
t108.5 -53z" />
    <glyph glyph-name="glyph507" unicode="&#x111;" horiz-adv-x="1065" 
d="M722 695h64v-75h-64v-655h-113v89q-17 -47 -60.5 -75t-105.5 -28q-110 0 -169.5 75.5t-59.5 225.5t59.5 225t169.5 75q62 0 105.5 -27.5t60.5 -75.5v171h-157v75h157v74h113v-74zM468 44q75 0 108 52.5t33 155.5q0 102 -33 155t-108 53q-76 0 -109 -53t-33 -155
q0 -103 33 -155.5t109 -52.5z" />
    <glyph glyph-name="glyph418" unicode="&#x126;" horiz-adv-x="1065" 
d="M148 641h73v121h119v-121h320v121h119v-121h73v-84h-73v-599h-119v360h-320v-360h-119v599h-73v84zM340 421h320v136h-320v-136z" />
    <glyph glyph-name="glyph509" unicode="&#x127;" horiz-adv-x="1065" 
d="M576 545q96 0 147 -59t51 -169v-359h-113v347q0 147 -114 147q-64 0 -104.5 -49t-40.5 -137v-308h-113v655h-63v75h63v74h113v-74h156v-75h-156v-181q19 52 63.5 82.5t110.5 30.5z" />
    <glyph glyph-name="glyph510" unicode="&#x131;" horiz-adv-x="1065" 
d="M444 -28v574h113v-574h-113z" />
    <glyph glyph-name="glyph419" unicode="&#x132;" horiz-adv-x="1067" 
d="M252 769v-804h-119v804h119zM612 -49q-121 0 -187 67.5t-66 193.5v7h120q2 -166 134 -166q135 0 135 174v542h119v-558q0 -125 -66.5 -192.5t-188.5 -67.5z" />
    <glyph glyph-name="glyph511" unicode="&#x133;" horiz-adv-x="1065" 
d="M310 47v573h113v-573h-113zM310 729v121h113v-121h-113zM576 729v121h114v-121h-114zM576 -27v647h114v-651q0 -171 -178 -171q-27 0 -51 2v90h39q39 0 57.5 20t18.5 63z" />
    <glyph glyph-name="glyph512" unicode="&#x138;" horiz-adv-x="1065" 
d="M525 270l215 -298h-127l-182 254h-57v-254h-113v574h113v-231h58l158 231h125z" />
    <glyph glyph-name="glyph420" unicode="&#x13f;" horiz-adv-x="1067" 
d="M259 -42v804h119v-702h363v-102h-482zM633 451v-122h-119v122h119z" />
    <glyph glyph-name="glyph513" unicode="&#x140;" horiz-adv-x="1067" 
d="M349 -42v804h113v-804h-113zM532 329v122h119v-122h-119z" />
    <glyph glyph-name="glyph421" unicode="&#x141;" horiz-adv-x="1065" 
d="M224 206v94l69 36v426h120v-363l205 108v-93l-205 -109v-245h363v-102h-483v284z" />
    <glyph glyph-name="glyph514" unicode="&#x142;" horiz-adv-x="1067" 
d="M556 430l91 48v-85l-91 -47v-388h-113v329l-90 -46v85l90 46v390h113v-332z" />
    <glyph glyph-name="glyph521" unicode="&#x149;" horiz-adv-x="1065" 
d="M331 762v-133q0 -113 -121 -127v52q31 5 46 23.5t15 55.5h-55v129h115zM592 545q96 0 147 -59t51 -169v-359h-113v311q0 98 -23 139t-84 41q-67 0 -109 -46.5t-42 -136.5v-308h-113v574h113v-100q19 52 63 82.5t110 30.5z" />
    <glyph glyph-name="glyph427" unicode="&#x14a;" horiz-adv-x="1067" 
d="M665 14v66l-331 598v-595h-119v803h122l329 -597v597h119v-880q0 -172 -178 -172q-27 0 -50 2v98h33q38 0 56.5 18.5t18.5 61.5z" />
    <glyph glyph-name="glyph520" unicode="&#x14b;" horiz-adv-x="1065" 
d="M545 778q96 0 147 -59t51 -169v-436q0 -172 -177 -172q-34 0 -50 3v88h37q39 0 58 20t19 62v424q0 76 -28.5 111.5t-84.5 35.5q-65 0 -105 -49.5t-40 -137.5v-308h-114v574h114v-100q19 52 63.5 82.5t109.5 30.5z" />
    <glyph glyph-name="glyph423" unicode="&#x152;" horiz-adv-x="1065" 
d="M25 360q0 67 7 121t27.5 108.5t53.5 91t89 59t131 22.5h635v-103h-357v-239h317v-102h-317v-257h364v-103h-642q-75 0 -131 22.5t-89 58.5t-53.5 90t-27.5 108.5t-7 122.5zM144 360q0 -161 45 -230t154 -69h149v598h-149q-108 0 -153.5 -70t-45.5 -229z" />
    <glyph glyph-name="glyph516" unicode="&#x153;" horiz-adv-x="1067" 
d="M952 360q0 -26 -1 -33h-394q4 -177 143 -177q51 0 83.5 25t41.5 70h114q-14 -88 -76 -137t-161 -49q-72 0 -123.5 29t-79.5 82q-26 -53 -78.5 -82t-122.5 -29q-123 0 -186.5 78.5t-63.5 222.5t63.5 222.5t186.5 78.5q71 0 123 -29.5t78 -83.5q27 54 79 83.5t123 29.5
q123 0 187 -78.5t64 -222.5zM303 151q75 0 107.5 53t32.5 156q0 102 -32.5 155t-107.5 53q-76 0 -109 -53t-33 -155q0 -103 33 -156t109 -53zM558 408h278q-8 162 -139 162q-130 0 -139 -162z" />
    <glyph glyph-name="glyph426" unicode="&#x166;" horiz-adv-x="1067" 
d="M320 326v85h121v248h-227v103h572v-103h-227v-248h122v-85h-122v-368h-118v368h-121z" />
    <glyph glyph-name="glyph519" unicode="&#x167;" horiz-adv-x="1067" 
d="M678 477h-159v-137h128v-76h-128v-93q0 -55 22 -73t79 -18h58v-90q-21 -2 -79 -2q-104 0 -148.5 36t-44.5 127v113h-68v76h68v137h-84v93h84v162h113v-162h159v-93z" />
    <glyph glyph-name="glyph91" unicode="&#x2c7;" horiz-adv-x="1066" 
d="M546 548h-97l-136 186h100l85 -104l85 104h100z" />
    <glyph glyph-name="glyph100" unicode="&#x2d0;" horiz-adv-x="1064" 
d="M515 476l-125 180h246zM390 64l125 179l121 -179h-246z" />
    <glyph glyph-name="glyph92" unicode="&#x2d8;" horiz-adv-x="1067" 
d="M481 557q-77 0 -124.5 45t-52.5 126h98q5 -88 79 -88t79 88h97q-4 -81 -51.5 -126t-124.5 -45z" />
    <glyph glyph-name="glyph95" unicode="&#x2d9;" horiz-adv-x="1067" 
d="M548 732v-121h-120v121h120z" />
    <glyph glyph-name="glyph94" unicode="&#x2da;" horiz-adv-x="1065" 
d="M625 641q0 -56 -34.5 -88t-88.5 -32q-55 0 -90 32t-35 88t35 87.5t90 31.5q54 0 88.5 -31.5t34.5 -87.5zM550 641q0 25 -13 39.5t-35 14.5q-23 0 -36.5 -14.5t-13.5 -39.5t13.5 -39t36.5 -14q22 0 35 14t13 39z" />
    <glyph glyph-name="glyph97" unicode="&#x2db;" horiz-adv-x="1067" 
d="M447 241h92q-46 -25 -69.5 -56.5t-23.5 -60.5v-5q0 -23 17 -38t48 -15q43 0 73 26l39 -58q-41 -43 -121 -43q-67 0 -104.5 29.5t-37.5 83.5v8q0 38 23.5 73t63.5 56z" />
    <glyph glyph-name="glyph93" unicode="&#x2dd;" horiz-adv-x="1067" 
d="M450 735l-37 -169h-95l37 169h95zM645 735l-37 -169h-95l37 169h95z" />
    <glyph glyph-name="endash" unicode="&#x2013;" horiz-adv-x="1065" 
d="M339 359h328v-34h-328v34z" />
    <glyph glyph-name="emdash" unicode="&#x2014;" horiz-adv-x="1064" 
d="M61 358h889v-32h-889v32z" />
    <glyph glyph-name="glyph145" unicode="&#x2015;" horiz-adv-x="1067" 
d="M70 279v126h860v-126h-860z" />
    <glyph glyph-name="glyph7" unicode="&#x2016;" horiz-adv-x="1067" 
d="M387 687h34v-654h-34v654zM580 687h33v-654h-33v654z" />
    <glyph glyph-name="glyph87" unicode="&#x2018;" horiz-adv-x="306" 
d="M276 766l-58 -179h-139l57 179h140z" />
    <glyph glyph-name="glyph88" unicode="&#x2019;" horiz-adv-x="303" 
d="M236 766l-58 -179h-139l57 179h140z" />
    <glyph glyph-name="glyph80" unicode="&#x201c;" horiz-adv-x="454" 
d="M238 766l58 -179h139l-57 179h-140zM109 587h140l-57 179h-140z" />
    <glyph glyph-name="glyph81" unicode="&#x201d;" horiz-adv-x="452" 
d="M229 766l-57 -179h-140l57 179h140zM358 587h-140l58 179h139z" />
    <glyph glyph-name="glyph135" unicode="&#x2020;" horiz-adv-x="1067" 
d="M747 649v-93h-195v-678h-104v678h-195v93h195v193h104v-193h195z" />
    <glyph glyph-name="glyph136" unicode="&#x2021;" horiz-adv-x="1065" 
d="M253 71v92h195v393h-195v93h195v193h104v-193h195v-93h-195v-393h195v-92h-195v-193h-104v193h-195z" />
    <glyph glyph-name="glyph3" unicode="&#x2025;" horiz-adv-x="1067" 
d="M338 428v-136h-125v136h125zM787 428v-136h-125v136h125z" />
    <glyph glyph-name="glyph4" unicode="&#x2026;" horiz-adv-x="1065" 
d="M262 351v-137h-121v82h-1v137h120v-82h2zM560 351v-137h-121v82h-1v137h120v-82h2zM859 351v-137h-121v82h-1v137h120v-82h2z" />
    <glyph glyph-name="glyph106" unicode="&#x2030;" horiz-adv-x="1066" 
d="M308 504q0 -80 -32 -121t-92 -41q-125 0 -125 162q0 79 31.5 120t93.5 41q59 0 91.5 -41t32.5 -120zM235 504q0 54 -12.5 77t-38.5 23q-28 0 -40.5 -23t-12.5 -77q0 -55 12 -78t41 -23q27 0 39 23t12 78zM269 57h-73q42 102 124 301.5t122 296.5h72
q-41 -100 -122.5 -299.5t-122.5 -298.5zM404 208q0 79 32 120.5t91.5 41.5t91.5 -42t32 -120q0 -79 -31.5 -120t-91.5 -41t-92 40.5t-32 120.5zM475 208q0 -56 12.5 -78t40.5 -22q27 0 39.5 22.5t12.5 77.5q0 53 -12.5 76.5t-39.5 23.5q-28 0 -40.5 -22.5t-12.5 -77.5z
M686 208q0 79 32.5 120.5t93.5 41.5q59 0 91 -42t32 -120q0 -79 -32 -120t-91 -41q-61 0 -93.5 40.5t-32.5 120.5zM759 208q0 -56 12.5 -78t40.5 -22q26 0 39 22t13 78q0 55 -12.5 77.5t-39.5 22.5q-29 0 -41 -22.5t-12 -77.5z" />
    <glyph glyph-name="glyph30" unicode="&#x2032;" horiz-adv-x="1065" 
d="M507 464h-91l56 257h113z" />
    <glyph glyph-name="glyph31" unicode="&#x2033;" horiz-adv-x="1067" 
d="M421 474h-91l56 257h113zM591 474h-89l56 257h112z" />
    <glyph glyph-name="glyph47" unicode="&#x203b;" horiz-adv-x="1067" 
d="M488 136q36 0 61.5 -25t25.5 -61q0 -37 -25 -62t-62 -25q-36 0 -61.5 25t-25.5 62q0 36 25.5 61t61.5 25zM488 581q-36 0 -61.5 25.5t-25.5 61.5q0 37 25.5 62t61.5 25q37 0 62 -25t25 -62q0 -36 -25.5 -61.5t-61.5 -25.5zM868 675l-317 -318l317 -318l-61 -62l-318 319
l-318 -319l-62 62l319 318l-319 318l62 62l318 -318l318 318zM94 357q0 36 25.5 61.5t61.5 25.5t61 -25.5t25 -61.5t-25 -61.5t-61 -25.5t-61.5 25.5t-25.5 61.5zM796 444q36 0 61.5 -25.5t25.5 -61.5t-25.5 -61.5t-61.5 -25.5q-37 0 -62 25.5t-25 61.5q0 37 25 62t62 25z
" />
    <glyph glyph-name="glyph580" unicode="&#x2074;" horiz-adv-x="1100" 
d="M434 490v-83h-55v-102h-97v102h-230v76l218 355h109v-348h55zM152 490h130v211z" />
    <glyph glyph-name="glyph581" unicode="&#x207f;" horiz-adv-x="1102" 
d="M55 417v403h94v-67q11 35 41 56.5t74 21.5q57 0 90 -35t33 -103v-276h-94v265q0 70 -60 70q-37 0 -60.5 -28t-23.5 -73v-234h-94z" />
    <glyph glyph-name="glyph582" unicode="&#x2081;" horiz-adv-x="1110" 
d="M274 -121h-99v438l-112 -51v87l127 58h84v-532z" />
    <glyph glyph-name="glyph583" unicode="&#x2082;" horiz-adv-x="1102" 
d="M299 256q0 33 -19.5 54t-53.5 21q-35 0 -54 -21t-19 -54v-19h-98v20q0 74 46 118t125 44q77 0 124 -44t47 -118q0 -40 -14 -70.5t-47 -66.5l-140 -158h200v-84h-331v71l202 230q32 37 32 77z" />
    <glyph glyph-name="glyph584" unicode="&#x2083;" horiz-adv-x="1101" 
d="M233 346q-33 0 -51.5 -18.5t-18.5 -49.5v-9h-96v18q0 63 45.5 102.5t120.5 39.5t120 -39.5t45 -104.5q0 -89 -81 -116q95 -27 95 -129q0 -71 -47.5 -117t-131.5 -46q-85 0 -132 46.5t-47 118.5v19h98v-17q0 -39 22 -62t59 -23t58.5 23t21.5 60q0 41 -22 62t-62 21h-44v82
h44q35 0 54 18.5t19 50.5q0 33 -18.5 51.5t-50.5 18.5z" />
    <glyph glyph-name="glyph585" unicode="&#x2084;" horiz-adv-x="1100" 
d="M434 64v-83h-55v-102h-97v102h-230v76l218 354h109v-347h55zM152 64h130v211z" />
    <glyph glyph-name="glyph32" unicode="&#x2103;" horiz-adv-x="1070" 
d="M191 771q66 0 108 -42t42 -104q0 -63 -41.5 -104.5t-108 -41.5t-108.5 41.5t-42 104.5q0 62 42 104t108 42zM191 556q30 0 49 19t19 50t-19 50t-49 19t-49 -19t-19 -50t19 -50t49 -19zM827 120l67 -66q-49 -49 -113 -76t-136 -27q-95 0 -176 47t-128 128t-47 176.5
t47 176.5t128 128t176 47q72 0 136 -27.5t113 -75.5l-67 -67q-75 75 -181 75h-1q-106 0 -181.5 -75t-75.5 -181.5t75.5 -182t181.5 -75.5h1q106 0 181 75z" />
    <glyph glyph-name="glyph105" unicode="&#x2109;" horiz-adv-x="1065" 
d="M379 621q0 -63 -42 -104.5t-108.5 -41.5t-108.5 41.5t-42 104.5q0 62 42 104t108.5 42t108.5 -42t42 -104zM297 621q0 31 -19 49.5t-49.5 18.5t-49.5 -18.5t-19 -49.5q0 -32 19 -51t49.5 -19t49.5 19t19 51zM451 -47v805h471v-104h-352v-250h316v-102h-316v-349h-119z
" />
    <glyph glyph-name="glyph339" unicode="&#x2113;" horiz-adv-x="1067" 
d="M559 -53q-86 0 -141.5 47t-68.5 131q-5 -1 -33 -8.5t-43 -10.5l-36 93q57 13 108 30v332q0 101 52.5 156.5t148.5 55.5q97 0 149 -55.5t52 -156.5v-9q0 -127 -73 -225t-213 -161q8 -122 98 -122q33 0 58.5 21.5t34.5 65.5l111 -21q-15 -80 -68 -121.5t-136 -41.5z
M461 562v-282q172 99 172 272v10q0 114 -87 114q-85 0 -85 -114z" />
    <glyph glyph-name="glyph151" unicode="&#x2116;" horiz-adv-x="1062" 
d="M440 -18l-236 541v-541h-113v800h103l235 -542v542h114v-800h-103zM977 355q0 -115 -43.5 -174t-141.5 -59q-99 0 -143 59t-44 174q0 116 44 175t143 59q98 0 141.5 -59t43.5 -175zM610 -18v86h362v-86h-362zM874 355q0 77 -18.5 111t-63.5 34q-47 0 -66 -34t-19 -111
t19 -111t66 -34q45 0 63.5 34t18.5 111z" />
    <glyph glyph-name="glyph156" unicode="&#x2121;" horiz-adv-x="1067" 
d="M21 640v103h438v-103h-160v-701h-119v701h-159zM789 229v-36h-320q3 -96 27.5 -136.5t76.5 -40.5q79 0 95 96h113q-30 -187 -208 -187q-108 0 -162.5 71.5t-54.5 229.5t54.5 229t162.5 71q107 0 161.5 -70.5t54.5 -226.5zM573 435q-50 0 -75.5 -38t-26.5 -123h205
q-3 85 -28 123t-75 38zM953 -61h-114v804h114v-804z" />
    <glyph glyph-name="glyph153" unicode="&#x2122;" horiz-adv-x="1069" 
d="M127 668v68h283v-68h-101v-316h-81v316h-101zM657 352h-53l-88 207v-207h-77v384h71l121 -286l120 286h72v-384h-78v207z" />
    <glyph glyph-name="glyph392" unicode="&#x2126;" horiz-adv-x="1067" 
d="M500 769q161 0 238 -106q74 -104 74 -295q0 -119 -36.5 -200.5t-106.5 -114.5h127v-102h-255v102q80 28 116 102t36 198q0 94 -12 152t-39 96q-47 65 -142 65t-143 -65q-51 -73 -51 -248q0 -124 36 -198t117 -102v-102h-255v102h127q-70 33 -106.5 114.5t-36.5 200.5
q0 193 74 295q77 106 238 106z" />
    <glyph glyph-name="glyph33" unicode="&#x212b;" horiz-adv-x="1067" 
d="M501 607q-38 0 -62 24t-24 60t24 60t62 24t62 -24t24 -60t-24 -60t-62 -24zM500.5 730q-17.5 0 -28.5 -10.5t-11 -28.5t11 -29t28.5 -11t28.5 11t11 29t-11 28.5t-28.5 10.5zM501 588l354 -601h-101l-254 432l-263 -432h-102z" />
    <glyph glyph-name="glyph498" unicode="&#x2153;" horiz-adv-x="1065" 
d="M264 234h-99v439l-112 -52v87l128 59h83v-533zM602 767h96l-392 -805h-97zM853 245q94 -27 94 -129q0 -71 -47.5 -117t-131.5 -46q-85 0 -131.5 46.5t-46.5 118.5v19h98v-17q0 -38 21.5 -61.5t58.5 -23.5t59 23t22 61q0 40 -22 61t-63 21h-44v82h44q35 0 54.5 18.5
t19.5 50.5q0 33 -19 52t-51 19t-50.5 -19t-18.5 -51v-8h-96v18q0 63 45.5 102t119.5 39q75 0 120.5 -39.5t45.5 -103.5q0 -89 -81 -116z" />
    <glyph glyph-name="glyph499" unicode="&#x2154;" horiz-adv-x="1065" 
d="M48 300l202 231q31 35 31 75q0 34 -18.5 55t-53.5 21q-36 0 -55 -20.5t-19 -55.5v-18h-98v19q0 75 46 119.5t126 44.5q76 0 123 -44.5t47 -119.5q0 -39 -13.5 -69.5t-45.5 -65.5l-142 -158h201v-85h-331v71zM645 762h96l-392 -804h-96zM868 240q95 -27 95 -130
q0 -70 -47.5 -115.5t-132.5 -45.5q-84 0 -131 46.5t-47 117.5v19h98v-17q0 -38 21.5 -61t58.5 -23t59 22.5t22 60.5q0 40 -22 61t-62 21h-44v82h44q35 0 54 18t19 51t-18.5 52t-51.5 19q-32 0 -50.5 -19t-18.5 -51v-8h-96v17q0 64 45.5 103t119.5 39q75 0 120.5 -39
t45.5 -105q0 -89 -81 -115z" />
    <glyph glyph-name="glyph502" unicode="&#x215b;" horiz-adv-x="1065" 
d="M262 234h-99v439l-112 -52v87l127 59h84v-533zM600 767h96l-392 -804h-97zM854 249q45 -15 70 -50t25 -84q0 -72 -50 -117t-135 -45q-84 0 -133.5 45t-49.5 117q0 49 24.5 84t69.5 50q-37 12 -58.5 43.5t-21.5 70.5q0 63 46 102t123 39q78 0 124.5 -39t46.5 -102
q0 -39 -22 -70.5t-59 -43.5zM764 421q-34 0 -53.5 -18.5t-19.5 -48.5t19.5 -48t53.5 -18q35 0 55 18t20 48t-20 48.5t-55 18.5zM764 34q39 0 62.5 23t23.5 62q0 41 -23.5 64t-62.5 23q-38 0 -61.5 -23t-23.5 -64q0 -39 23.5 -62t61.5 -23z" />
    <glyph glyph-name="glyph503" unicode="&#x215c;" horiz-adv-x="1065" 
d="M642 763h96l-392 -805h-97zM391 383q0 -71 -47.5 -116.5t-131.5 -45.5q-85 0 -131.5 46t-46.5 117v19h98v-16q0 -39 21.5 -62t58.5 -23t59 23t22 60q0 41 -22 62.5t-62 21.5h-44v81h44q34 0 53.5 18t19.5 51t-18.5 51.5t-51 18.5t-51 -18.5t-18.5 -49.5v-8h-96v16
q0 63 45.5 103t119.5 40t119.5 -40t45.5 -105q0 -88 -80 -114q94 -28 94 -130zM871 244q46 -14 70.5 -49.5t24.5 -84.5q0 -71 -49.5 -116.5t-134.5 -45.5t-134 45.5t-49 116.5q0 50 24.5 85t69.5 49q-38 12 -59.5 43.5t-21.5 70.5q0 64 46 102.5t124 38.5t124 -38.5
t46 -102.5q0 -39 -21.5 -70.5t-59.5 -43.5zM782 417q-34 0 -54 -18.5t-20 -49t20 -48.5t54 -18t54 18t20 48.5t-20 49t-54 18.5zM782 30q38 0 61.5 22.5t23.5 62.5t-23 63t-62 23t-62 -23t-23 -63t23.5 -62.5t61.5 -22.5z" />
    <glyph glyph-name="glyph504" unicode="&#x215d;" horiz-adv-x="1065" 
d="M384 407q0 -84 -45.5 -132.5t-128.5 -48.5q-79 0 -124.5 43t-50.5 118h98q3 -37 23.5 -57.5t53.5 -20.5q37 0 57.5 26t20.5 73q0 48 -20 74t-57 26q-23 0 -42.5 -12t-27.5 -32h-90l15 303h291v-83h-203l-7 -135q28 40 88 40q70 0 109.5 -49t39.5 -133zM870 249
q45 -15 70 -50t25 -84q0 -72 -50 -117t-135 -45q-84 0 -133.5 45t-49.5 117q0 49 24.5 84t69.5 50q-37 12 -59 43.5t-22 70.5q0 63 46 102t124 39t124 -39t46 -102q0 -39 -21.5 -70.5t-58.5 -43.5zM780 421q-34 0 -54 -18.5t-20 -48.5t20 -48t54 -18q35 0 54.5 18t19.5 48
t-19.5 48.5t-54.5 18.5zM780 34q39 0 62.5 23t23.5 62q0 41 -23.5 64t-62.5 23q-38 0 -61.5 -23t-23.5 -64q0 -39 23.5 -62t61.5 -23zM640 767h96l-392 -804h-97z" />
    <glyph glyph-name="glyph505" unicode="&#x215e;" horiz-adv-x="1065" 
d="M384 767v-70l-175 -463h-102l173 449h-241v84h345zM867 249q45 -15 70 -50t25 -84q0 -72 -50 -117t-135 -45q-84 0 -133.5 45t-49.5 117q0 49 24.5 84t69.5 50q-38 12 -59.5 43.5t-21.5 70.5q0 63 46 102t124 39t124 -39t46 -102q0 -39 -21.5 -70.5t-58.5 -43.5zM777 421
q-34 0 -54 -18.5t-20 -48.5t20 -48t54 -18q35 0 54.5 18t19.5 48t-20 48.5t-54 18.5zM777 34q39 0 62 23t23 62q0 41 -23 64t-62 23q-38 0 -61.5 -23t-23.5 -64q0 -39 23.5 -62t61.5 -23zM617 767h95l-391 -804h-97z" />
    <glyph glyph-name="glyph62" unicode="&#x2190;" horiz-adv-x="1067" 
d="M953 430v-98h-675v-120l-231 168l231 171v-121h675z" />
    <glyph glyph-name="glyph63" unicode="&#x2191;" horiz-adv-x="1067" 
d="M489 811l168 -229h-120v-676h-98v676h-121z" />
    <glyph glyph-name="glyph61" unicode="&#x2192;" horiz-adv-x="1067" 
d="M47 290v98h675v120l231 -168l-231 -171v121h-675z" />
    <glyph glyph-name="glyph64" unicode="&#x2193;" horiz-adv-x="1064" 
d="M511 -91l-168 229h120v676h98v-676h121z" />
    <glyph glyph-name="glyph65" unicode="&#x2194;" horiz-adv-x="1067" 
d="M953 340l-230 -171v121h-446v-121l-230 171l230 168v-120h446v120z" />
    <glyph glyph-name="glyph137" unicode="&#x2195;" horiz-adv-x="1067" 
d="M330 143h122v446h-122l171 229l169 -229h-120v-446h120l-169 -230z" />
    <glyph glyph-name="glyph140" unicode="&#x2196;" horiz-adv-x="1068" 
d="M822 62l-70 -70l-476 477l-86 -85l-42 283l282 -44l-85 -85z" />
    <glyph glyph-name="glyph138" unicode="&#x2197;" horiz-adv-x="1069" 
d="M211 23l-69 69l477 477l-85 84l282 44l-43 -283l-85 85z" />
    <glyph glyph-name="glyph141" unicode="&#x2198;" horiz-adv-x="1071" 
d="M125 634l69 69l477 -476l85 84l42 -282l-281 43l84 85z" />
    <glyph glyph-name="glyph139" unicode="&#x2199;" horiz-adv-x="1064" 
d="M773 697l69 -69l-476 -477l85 -85l-282 -43l42 282l85 -84z" />
    <glyph glyph-name="glyph86" unicode="&#x21d2;" horiz-adv-x="1062" 
d="M613 610l365 -292l-364 -302l-54 65l110 88h-589v81h689l83 68l-80 63h-692v81h587l-108 85z" />
    <glyph glyph-name="glyph42" unicode="&#x2202;" horiz-adv-x="1067" 
d="M403 574h-119q24 97 89 149t161 52q118 0 175 -76t57 -243q0 -264 -71 -387.5t-229 -123.5q-105 0 -168.5 65t-63.5 181q0 132 72 210t186 78q58 0 99 -22t57 -60q4 41 4 76q0 107 -30.5 155.5t-93.5 48.5q-48 0 -80.5 -26.5t-44.5 -76.5zM477 43q71 0 113.5 52t42.5 139
q0 70 -33.5 108.5t-92.5 38.5q-76 0 -117.5 -55t-41.5 -140q0 -68 34 -105.5t95 -37.5z" />
    <glyph glyph-name="glyph89" unicode="&#x2203;" horiz-adv-x="1067" 
d="M259 762h482v-804h-476v103h357v238h-316v103h316v258h-363v102z" />
    <glyph glyph-name="glyph43" unicode="&#x2207;" horiz-adv-x="1067" 
d="M569 -42h-137l-271 804h678zM501 78l183 582h-368z" />
    <glyph glyph-name="glyph75" unicode="&#x2208;" horiz-adv-x="1066" 
d="M879 322h-649q26 -185 292 -185h357v-98h-359q-90 0 -162.5 19.5t-127 59t-84 103.5t-29.5 149q0 84 29.5 148t84 103.5t127 59.5t162.5 20h359v-99h-357q-264 0 -292 -182h649v-98z" />
    <glyph glyph-name="glyph76" unicode="&#x220b;" horiz-adv-x="1060" 
d="M811 322h-650v98h649q-12 87 -84.5 134.5t-208.5 47.5h-356v99h358q91 0 163.5 -20t127 -59.5t84 -103.5t29.5 -148q0 -85 -29.5 -149t-84 -103.5t-127 -59t-163.5 -19.5h-358v98h356q268 0 294 185z" />
    <glyph glyph-name="glyph103" unicode="&#x220f;" horiz-adv-x="1067" 
d="M661 -80v777h-321v-777h-119v880h558v-880h-118z" />
    <glyph glyph-name="glyph102" unicode="&#x2211;" horiz-adv-x="1065" 
d="M236 13l189 338l-189 343v102h528v-103h-395l177 -327v-32l-176 -317h394v-101h-528v97z" />
    <glyph glyph-name="glyph69" unicode="&#x221a;" horiz-adv-x="1065" 
d="M625 696l-229 -771h-124l-207 428h126l132 -286l211 724h399v-95h-308z" />
    <glyph glyph-name="glyph71" unicode="&#x221d;" horiz-adv-x="1069" 
d="M763 226l54 -77q-45 -29 -113 -29q-56 0 -106 29t-86 87q-37 -58 -87 -87t-106 -29q-86 0 -136 47t-50 127t50 127t136 47q56 0 106 -29.5t87 -87.5q36 59 86 88.5t106 29.5q55 0 97 -22l-46 -80q-25 15 -55 15q-77 0 -130 -88q53 -89 130 -89q37 0 63 21zM453 294
q-53 88 -129 88q-40 0 -65.5 -23.5t-25.5 -64.5t25.5 -65t65.5 -24q76 0 129 89z" />
    <glyph glyph-name="glyph27" unicode="&#x221e;" horiz-adv-x="1065" 
d="M688 259q39 0 65 23.5t26 65.5q0 41 -26 64.5t-65 23.5q-77 0 -130 -88q53 -89 130 -89zM692 521q86 0 136.5 -46.5t50.5 -126.5t-50.5 -127.5t-136.5 -47.5q-56 0 -106 29.5t-87 87.5q-36 -58 -86 -87.5t-106 -29.5q-86 0 -136 47t-50 128q0 80 50 126.5t136 46.5
q56 0 106 -29t86 -87q37 58 87 87t106 29zM312 259q76 0 129 89q-53 88 -129 88q-40 0 -65.5 -23.5t-25.5 -64.5q0 -42 25.5 -65.5t65.5 -23.5z" />
    <glyph glyph-name="glyph39" unicode="&#x2220;" horiz-adv-x="1069" 
d="M255 105h606v-90h-772v58l640 630v-131z" />
    <glyph glyph-name="glyph83" unicode="&#x2227;" horiz-adv-x="1067" 
d="M84 -37l388 794h42l388 -794h-116l-294 618l-292 -618h-116z" />
    <glyph glyph-name="glyph84" unicode="&#x2228;" horiz-adv-x="1064" 
d="M492 -56l-388 793h117l291 -618l294 618h116l-388 -793h-42z" />
    <glyph glyph-name="glyph82" unicode="&#x2229;" horiz-adv-x="1064" 
d="M505 654q-103 0 -162 -78.5t-59 -238.5v-356h-109v358q0 91 19.5 163.5t59 127t103.5 84t148.5 29.5t148 -29.5t103.5 -84t59.5 -127t19.5 -163.5v-358h-108v356q0 160 -59.5 238.5t-163.5 78.5z" />
    <glyph glyph-name="glyph73" unicode="&#x222b;" horiz-adv-x="1069" 
d="M269 20h56q52 0 71.5 18t19.5 66v537q0 93 44 132t146 39q41 0 71 -5v-88h-55q-53 0 -72.5 -18.5t-19.5 -65.5v-537q0 -93 -44 -131.5t-146 -38.5q-41 0 -71 4v88z" />
    <glyph glyph-name="glyph74" unicode="&#x222c;" horiz-adv-x="1067" 
d="M146 20h55q53 0 72.5 18t19.5 66v537q0 93 43.5 132t146.5 39q41 0 70 -5v-88h-55q-52 0 -72 -18.5t-20 -65.5v-537q0 -93 -43.5 -131.5t-146.5 -38.5q-40 0 -70 4v88zM431 20h55q52 0 72 18t20 66v537q0 93 43.5 132t145.5 39q42 0 71 -5v-88h-55q-53 0 -72.5 -18.5
t-19.5 -65.5v-537q0 -93 -43.5 -131.5t-146.5 -38.5q-40 0 -70 4v88z" />
    <glyph glyph-name="glyph101" unicode="&#x222e;" horiz-adv-x="1067" 
d="M284 360.5q0 73.5 44 127t114 70.5v55q0 92 44 131t146 39q41 0 71 -5v-88h-56q-51 0 -71 -19t-20 -65v-48q70 -16 115 -70t45 -127.5t-44.5 -127.5t-115.5 -72v-62q0 -92 -44 -131t-146 -39q-41 0 -71 4v89h55q53 0 72.5 18t19.5 66v56q-70 18 -114 71.5t-44 127z
M373 360q0 -37 18.5 -66.5t50.5 -44.5v223q-32 -14 -50.5 -43.5t-18.5 -68.5zM627 360.5q0 39.5 -19 69t-52 43.5v-224q33 13 52 42.5t19 69z" />
    <glyph glyph-name="glyph28" unicode="&#x2234;" horiz-adv-x="1065" 
d="M702 73v137h121v-137h-121zM182 73v137h120v-137h-120zM442 552v137h120v-137h-120z" />
    <glyph glyph-name="glyph72" unicode="&#x2235;" horiz-adv-x="1067" 
d="M300 638v-137h-120v137h120zM560 158v-137h-120v137h120zM820 638v-137h-120v137h120z" />
    <glyph glyph-name="glyph70" unicode="&#x223d;" horiz-adv-x="1064" 
d="M549 263q-98 -143 -230 -143q-86 0 -136 47t-50 128q0 79 50 126t136 47q45 0 86 -18l-32 -77q-24 9 -49 9q-40 0 -65.5 -23t-25.5 -64q0 -42 25.5 -65.5t65.5 -23.5q35 0 75.5 31t77.5 86q97 145 228 145q85 0 135.5 -47t50.5 -126q0 -81 -50 -128t-136 -47
q-52 0 -98 25l39 73q24 -12 55 -12q39 0 64.5 23.5t25.5 65.5q0 40 -25.5 63.5t-64.5 23.5q-71 0 -152 -119z" />
    <glyph glyph-name="glyph45" unicode="&#x2252;" horiz-adv-x="1067" 
d="M251 415v92h498v-92h-498zM251 229v93h498v-93h-498zM442 723v-135h-122v135h122zM681 148v-136h-122v136h122z" />
    <glyph glyph-name="glyph24" unicode="&#x2260;" horiz-adv-x="1062" 
d="M774 416h-176l-65 -114h241v-93h-293l-78 -136h-82l78 136h-123v93h176l64 114h-240v92h293l79 138h81l-78 -138h123v-92z" />
    <glyph glyph-name="glyph44" unicode="&#x2261;" horiz-adv-x="1065" 
d="M253 505v93h498v-93h-498zM253 321v93h498v-93h-498zM253 137v93h498v-93h-498z" />
    <glyph glyph-name="glyph25" unicode="&#x2264;" horiz-adv-x="1067" 
d="M250 30v91h500v-91h-500zM740 289v-104l-480 207v93l480 208v-105l-354 -149z" />
    <glyph glyph-name="glyph26" unicode="&#x2265;" horiz-adv-x="1067" 
d="M740 495v-92l-480 -208v105l354 150l-354 149v105zM250 40v92h500v-92h-500z" />
    <glyph glyph-name="glyph67" unicode="&#x226a;" horiz-adv-x="1067" 
d="M583 613l-384 -268l384 -269v-108l-517 362v31l517 361v-109zM907 722v-109l-383 -268l383 -269v-108l-516 362v31z" />
    <glyph glyph-name="glyph68" unicode="&#x226b;" horiz-adv-x="1062" 
d="M429 613v109l516 -361v-31l-516 -362v108l384 269zM104 722l517 -361v-31l-517 -362v108l384 269l-384 268v109z" />
    <glyph glyph-name="glyph79" unicode="&#x2282;" horiz-adv-x="1067" 
d="M215 357.5q0 -109.5 72 -171t226 -61.5h355v-98h-357q-91 0 -163.5 19.5t-126.5 59.5t-83.5 103.5t-29.5 148t29.5 148.5t83.5 103.5t126.5 59t163.5 19.5h357v-99h-355q-155 0 -226.5 -61t-71.5 -170.5z" />
    <glyph glyph-name="glyph77" unicode="&#x2286;" horiz-adv-x="1067" 
d="M223 479q0 -93 63.5 -137.5t197.5 -44.5h393v-97h-395q-172 0 -269 69t-97 210t97 209.5t269 68.5h395v-97h-393q-134 0 -197.5 -44.5t-63.5 -136.5zM141 57h743v-94h-743v94z" />
    <glyph glyph-name="glyph78" unicode="&#x2287;" horiz-adv-x="1062" 
d="M145 57h743v-94h-743v94zM806 479q0 92 -63.5 136.5t-197.5 44.5h-393v97h395q173 0 270 -68.5t97 -209.5t-97.5 -210t-269.5 -69h-395v97h393q134 0 197.5 44.5t63.5 137.5z" />
    <glyph glyph-name="glyph117" unicode="&#x2299;" horiz-adv-x="1067" 
d="M950 359q0 -123 -59.5 -226t-163 -163t-226.5 -60q-125 0 -228.5 60t-163 163t-59.5 226q0 92 35.5 175.5t95.5 143.5t143.5 95.5t176.5 35.5q91 0 174.5 -35.5t143.5 -95.5t95.5 -143.5t35.5 -175.5zM138 359q0 -100 47.5 -184.5t131 -134t184.5 -49.5t184.5 49.5
t131 134t47.5 184.5q0 101 -47.5 185.5t-131 134t-184.5 49.5t-184.5 -49.5t-131 -134t-47.5 -185.5zM316 359q0 78 53.5 133t131.5 55q77 0 131 -54.5t54 -133.5q0 -77 -54 -132.5t-131 -55.5q-78 0 -131.5 55.5t-53.5 132.5z" />
    <glyph glyph-name="glyph40" unicode="&#x22a5;" horiz-adv-x="1069" 
d="M527 44h333v-90h-770v90h333v625h104v-625z" />
    <glyph glyph-name="glyph41" unicode="&#x2312;" horiz-adv-x="1067" 
d="M111 95l5 5q73 77 168 118q100 45 216 45q226 0 384 -163l5 -5l-51 -70l-7 6q-139 138 -331 138q-195 0 -331 -139l-7 -6z" />
    <glyph glyph-name="glyph482" unicode="&#x2460;" horiz-adv-x="1065" 
d="M575 652v-577h-102v469l-133 -58v98l153 68h82zM501 823q127 0 234 -60.5t168.5 -167.5t61.5 -236q0 -128 -61.5 -234.5t-168.5 -167t-234 -60.5q-129 0 -236 60.5t-168.5 167t-61.5 234.5q0 129 62 236t168.5 167.5t235.5 60.5zM500.5 -31q108.5 0 197 51t139 140.5
t50.5 199t-50.5 199.5t-139 141t-197 51t-197 -51t-139 -141t-50.5 -199.5t50.5 -199t139 -140.5t197 -51z" />
    <glyph glyph-name="glyph483" unicode="&#x2461;" horiz-adv-x="1065" 
d="M692 171v-87h-365v75l218 249q37 41 37 86q0 41 -21.5 65.5t-59 24.5t-58.5 -24.5t-21 -65.5v-26h-103v26q0 76 48.5 126.5t133.5 50.5q86 0 135 -50t49 -127q0 -40 -13 -71.5t-44 -67.5l-162 -184h226zM500 823q128 0 234.5 -60.5t168.5 -167.5t62 -236
q0 -128 -62 -234.5t-168.5 -167t-234.5 -60.5t-235 60.5t-168.5 167t-61.5 234.5q0 129 61.5 236t168.5 167.5t235 60.5zM500 -31q108 0 197 51t139.5 140.5t50.5 199t-50.5 199.5t-139.5 141t-197 51t-196.5 -51t-139.5 -141t-51 -199.5t51 -199t139.5 -140.5t196.5 -51z
" />
    <glyph glyph-name="glyph484" unicode="&#x2462;" horiz-adv-x="1065" 
d="M500 823q128 0 234.5 -60.5t168.5 -167.5t62 -236q0 -128 -62 -234.5t-168.5 -167t-234.5 -60.5t-235 60.5t-168.5 167t-61.5 234.5q0 129 61.5 236t168.5 167.5t235 60.5zM500 -31q108 0 197 51t139.5 140.5t50.5 199t-50.5 199.5t-139.5 141t-197 51t-196.5 -51
t-139.5 -141t-51 -199.5t51 -199t139.5 -140.5t196.5 -51zM696 245q0 -79 -53 -127t-138 -48t-138.5 48t-53.5 129v20h103v-16q0 -43 25 -68.5t64 -25.5t63.5 24.5t24.5 67.5q0 44 -24 68.5t-65 24.5h-66v87h67q34 0 53.5 20.5t19.5 54.5t-20.5 55t-52.5 21q-33 0 -53 -20.5
t-20 -55.5v-16h-102v23q0 68 47 112t128 44t127.5 -44t46.5 -112q0 -85 -67 -124q38 -19 61 -55.5t23 -86.5z" />
    <glyph glyph-name="glyph485" unicode="&#x2463;" horiz-adv-x="1065" 
d="M501 823q128 0 234.5 -60.5t168 -167.5t61.5 -236q0 -128 -61.5 -234.5t-168 -167t-234.5 -60.5q-129 0 -235.5 60.5t-168.5 167t-62 234.5q0 129 62 236t168.5 167.5t235.5 60.5zM501 -31q108 0 196.5 51t139.5 140.5t51 199t-51 199.5t-139.5 141t-196.5 51t-197 -51
t-139.5 -141t-50.5 -199.5t50.5 -199t139.5 -140.5t197 -51zM618 286h71v-88h-71v-118h-103v118h-231v81l228 379h106v-372zM515 286v204l-118 -204h118z" />
    <glyph glyph-name="glyph486" unicode="&#x2464;" horiz-adv-x="1065" 
d="M691 257q0 -92 -50 -143.5t-137 -51.5q-82 0 -131.5 48t-55.5 132h103q5 -45 27 -69t57 -24q40 0 62.5 28t22.5 81q0 52 -22.5 80.5t-62.5 28.5q-46 0 -69 -47h-98l15 330h309v-87h-212l-7 -134q29 24 79 24q78 0 124 -50t46 -146zM501 823q128 0 234.5 -60.5t168 -167.5
t61.5 -236q0 -128 -61.5 -234.5t-168 -167t-234.5 -60.5q-129 0 -235.5 60.5t-168.5 167t-62 234.5q0 129 62 236t168.5 167.5t235.5 60.5zM501 -31q108 0 196.5 51t139.5 140.5t51 199t-51 199.5t-139.5 141t-196.5 51t-197 -51t-139.5 -141t-50.5 -199.5t50.5 -199
t139.5 -140.5t197 -51z" />
    <glyph glyph-name="glyph487" unicode="&#x2465;" horiz-adv-x="1065" 
d="M501 823q127 0 234 -60.5t168.5 -167.5t61.5 -236q0 -128 -61.5 -234.5t-168.5 -167t-234 -60.5q-129 0 -236 60.5t-168.5 167t-61.5 234.5q0 129 62 236t168.5 167.5t235.5 60.5zM500.5 -31q108.5 0 197 51t139 140.5t50.5 199t-50.5 199.5t-139 141t-197 51t-197 -51
t-139 -141t-50.5 -199.5t50.5 -199t139 -140.5t197 -51zM512 456q80 0 128.5 -52.5t48.5 -142t-52.5 -142.5t-135.5 -53q-191 0 -191 267q0 180 44 255t149 75q74 0 120 -41t55 -119h-104q-11 73 -72 73q-43 0 -63 -36.5t-24 -116.5q37 33 97 33zM499 152q41 0 64.5 29
t23.5 80t-23.5 80t-64.5 29q-40 0 -63 -29t-23 -80t23 -80t63 -29z" />
    <glyph glyph-name="glyph488" unicode="&#x2466;" horiz-adv-x="1065" 
d="M684 629v-70l-191 -508h-106l190 491h-257v87h364zM501 823q127 0 234 -60.5t168.5 -167.5t61.5 -236q0 -128 -61.5 -234.5t-168.5 -167t-234 -60.5q-129 0 -236 60.5t-168.5 167t-61.5 234.5q0 129 62 236t168.5 167.5t235.5 60.5zM500.5 -31q108.5 0 197 51t139 140.5
t50.5 199t-50.5 199.5t-139 141t-197 51t-197 -51t-139 -141t-50.5 -199.5t50.5 -199t139 -140.5t197 -51z" />
    <glyph glyph-name="glyph489" unicode="&#x2467;" horiz-adv-x="1065" 
d="M501 823q128 0 234.5 -60.5t168 -167.5t61.5 -236q0 -128 -61.5 -234.5t-168 -167t-234.5 -60.5q-129 0 -235.5 60.5t-168.5 167t-62 234.5q0 129 62 236t168.5 167.5t235.5 60.5zM501 -31q108 0 196.5 51t139 140.5t50.5 199t-50.5 199.5t-139 141t-196.5 51t-197 -51
t-139.5 -141t-50.5 -199.5t50.5 -199t139.5 -140.5t197 -51zM613 381q89 -41 89 -142q0 -80 -55.5 -127t-144.5 -47t-144 47t-55 127q0 102 87 142q-33 17 -52 50.5t-19 73.5q0 69 49.5 113t133.5 44t133 -44t49 -113q0 -39 -19 -72.5t-52 -51.5zM502 575q-36 0 -58.5 -21
t-22.5 -55.5t22.5 -55t58.5 -20.5t58 20.5t22 55t-22 55.5t-58 21zM501.5 152q43.5 0 70.5 25t27 67q0 43 -27 68t-70.5 25t-70 -25t-26.5 -68q0 -42 26.5 -67t70 -25z" />
    <glyph glyph-name="glyph490" unicode="&#x2468;" horiz-adv-x="1065" 
d="M500 823q128 0 234.5 -60.5t168.5 -167.5t62 -236q0 -128 -62 -234.5t-168.5 -167t-234.5 -60.5t-235 60.5t-168.5 167t-61.5 234.5q0 129 61.5 236t168.5 167.5t235 60.5zM500 -31q108 0 197 51t139.5 140.5t50.5 199t-50.5 199.5t-139.5 141t-197 51t-196.5 -51
t-139.5 -141t-51 -199.5t51 -199t139.5 -140.5t196.5 -51zM497 655q191 0 191 -268q0 -179 -45 -254t-148 -75q-74 0 -120.5 41t-56.5 119h106q4 -36 23 -54.5t49 -18.5q42 0 62 36t25 116q-36 -32 -98 -32q-79 0 -128.5 52t-49.5 141q0 91 53 144t137 53zM497 350
q40 0 63.5 29t23.5 79q0 52 -23.5 81t-63.5 29t-63.5 -29t-23.5 -81q0 -50 23.5 -79t63.5 -29z" />
    <glyph glyph-name="glyph491" unicode="&#x2469;" horiz-adv-x="1065" 
d="M501 823q127 0 234 -60.5t168.5 -167.5t61.5 -236q0 -128 -61.5 -234.5t-168.5 -167t-234 -60.5q-129 0 -235.5 60.5t-168.5 167t-62 234.5q0 129 62 236t168.5 167.5t235.5 60.5zM500.5 -31q108.5 0 197 51t139 140.5t50.5 199t-50.5 199.5t-139 141t-196.5 51t-197 -51
t-139.5 -141t-50.5 -199.5t50.5 -199t139 -140.5t197 -51zM399 633v-545h-98v436l-108 -55v98l128 66h78zM718 617q77 -54 77 -255t-77 -256q-38 -25 -90 -25q-53 0 -90 25q-77 55 -77 256q0 202 77 255q35 25 90 25q54 0 90 -25zM663 178q35 30 35 183.5t-35 183.5
q-14 12 -35 12t-35 -12q-19 -17 -26.5 -60.5t-7.5 -123t7.5 -123t26.5 -60.5q13 -11 35 -11t35 11z" />
    <glyph glyph-name="glyph492" unicode="&#x246a;" horiz-adv-x="1065" 
d="M501 823q127 0 234 -60.5t168.5 -167.5t61.5 -236q0 -128 -61.5 -234.5t-168.5 -167t-234 -60.5q-129 0 -236 60.5t-168.5 167t-61.5 234.5q0 129 62 236t168.5 167.5t235.5 60.5zM500.5 -31q108.5 0 197 51t139 140.5t50.5 199t-50.5 199.5t-139 141t-197 51t-197 -51
t-139 -141t-50.5 -199.5t50.5 -199t139 -140.5t197 -51zM426 633v-545h-98v436l-107 -55v98l127 66h78zM720 633v-545h-98v436l-107 -55v98l127 66h78z" />
    <glyph glyph-name="glyph493" unicode="&#x246b;" horiz-adv-x="1065" 
d="M398 633v-545h-98v436l-107 -55v98l128 66h77zM783 178v-86h-310v72l178 234q28 39 28 80q0 37 -15.5 59.5t-42.5 22.5t-42 -22.5t-15 -59.5v-27h-98v27q0 72 41.5 119.5t113.5 47.5q73 0 114.5 -47.5t41.5 -119.5q0 -39 -10 -68t-37 -63l-129 -169h182zM501 823
q127 0 234 -60.5t168.5 -167.5t61.5 -236q0 -128 -61.5 -234.5t-168.5 -167t-234 -60.5q-129 0 -236 60.5t-168.5 167t-61.5 234.5q0 129 62 236t168.5 167.5t235.5 60.5zM500.5 -31q108.5 0 197 51t139 140.5t50.5 199t-50.5 199.5t-139 141t-197 51t-197 -51t-139 -141
t-50.5 -199.5t50.5 -199t139 -140.5t197 -51z" />
    <glyph glyph-name="glyph494" unicode="&#x246c;" horiz-adv-x="1065" 
d="M398 633v-545h-98v436l-107 -55v98l128 66h77zM500 823q128 0 234.5 -60.5t168.5 -167.5t62 -236q0 -128 -62 -234.5t-168.5 -167t-234.5 -60.5t-235 60.5t-168.5 167t-61.5 234.5q0 129 61.5 236t168.5 167.5t235 60.5zM500 -31q108 0 197 51t139.5 140.5t50.5 199
t-50.5 199.5t-139.5 141t-197 51t-196.5 -51t-139.5 -141t-51 -199.5t51 -199t139.5 -140.5t196.5 -51zM781 245q0 -76 -44.5 -121t-116.5 -45q-73 0 -118.5 45.5t-45.5 122.5v19h98v-16q0 -40 18.5 -62.5t47.5 -22.5q28 0 46 22t18 61q0 40 -17.5 63t-47.5 23h-61v85h62
q23 0 37 18.5t14 49.5t-14 49.5t-37 18.5q-24 0 -38.5 -18.5t-14.5 -49.5v-17h-96v23q0 65 39.5 106.5t109.5 41.5q68 0 108 -41.5t40 -106.5q0 -37 -15.5 -67.5t-41.5 -47.5q70 -36 70 -133z" />
    <glyph glyph-name="glyph495" unicode="&#x246d;" horiz-adv-x="1065" 
d="M398 633v-545h-98v436l-107 -55v98l128 66h77zM732 282h52v-86h-52v-111h-97v111h-188v76l187 358h98v-348zM635 282v164l-83 -164h83zM501 823q127 0 234 -60.5t168.5 -167.5t61.5 -236q0 -128 -61.5 -234.5t-168.5 -167t-234 -60.5q-129 0 -236 60.5t-168.5 167
t-61.5 234.5q0 129 62 236t168.5 167.5t235.5 60.5zM500.5 -31q108.5 0 197 51t139 140.5t50.5 199t-50.5 199.5t-139 141t-197 51t-197 -51t-139 -141t-50.5 -199.5t50.5 -199t139 -140.5t197 -51z" />
    <glyph glyph-name="glyph496" unicode="&#x246e;" horiz-adv-x="1065" 
d="M501 823q127 0 234 -60.5t168.5 -167.5t61.5 -236q0 -128 -61.5 -234.5t-168.5 -167t-234 -60.5q-129 0 -236 60.5t-168.5 167t-61.5 234.5q0 129 62 236t168.5 167.5t235.5 60.5zM500.5 -31q108.5 0 197 51t139 140.5t50.5 199t-50.5 199.5t-139 141t-197 51t-197 -51
t-139 -141t-50.5 -199.5t50.5 -199t139 -140.5t197 -51zM398 633v-545h-98v436l-107 -55v98l128 66h77zM776 260q0 -86 -42.5 -134.5t-116.5 -48.5q-70 0 -111.5 45.5t-47.5 125.5h98q7 -85 61 -85q61 0 61 100q0 99 -61 99q-32 0 -50 -44h-92l11 312h266v-85h-173l-6 -114
q27 15 58 15q66 0 105.5 -48t39.5 -138z" />
    <glyph glyph-name="glyph562" unicode="&#x2474;" horiz-adv-x="1067" 
d="M48 360q0 231 144 432h75q-64 -98 -99.5 -210.5t-35.5 -221.5t35.5 -222t99.5 -210h-75q-144 201 -144 432zM575 74h-102v470l-133 -58v98l153 68h82v-578zM952 360q0 -233 -143 -432h-75q64 98 99 210.5t35 221.5q0 108 -35 221t-99 211h75q143 -199 143 -432z" />
    <glyph glyph-name="glyph563" unicode="&#x2475;" horiz-adv-x="1065" 
d="M48 360q0 231 144 432h75q-64 -98 -99.5 -210.5t-35.5 -221.5t35.5 -222t99.5 -210h-75q-144 201 -144 432zM685 494q0 -41 -13 -72.5t-44 -66.5l-162 -185h226v-87h-365v76l218 249q37 41 37 86q0 41 -21.5 65.5t-59 24.5t-58.5 -24.5t-21 -65.5v-27h-103v27
q0 76 48.5 126t133.5 50q86 0 135 -50t49 -126zM952 360q0 -233 -143 -432h-75q64 98 99 210.5t35 221.5q0 108 -35 221t-99 211h75q143 -199 143 -432z" />
    <glyph glyph-name="glyph564" unicode="&#x2476;" horiz-adv-x="1065" 
d="M48 360q0 231 144 432h75q-64 -98 -99.5 -210.5t-35.5 -221.5t35.5 -222t99.5 -210h-75q-144 201 -144 432zM593 249q0 43 -24 68t-64 25h-67v86h68q34 0 53 21t19 55t-20.5 54.5t-51.5 20.5q-34 0 -54 -20.5t-20 -54.5v-16h-102v22q0 68 47 112t129 44q80 0 126.5 -43.5
t46.5 -112.5q0 -85 -67 -123q39 -20 61.5 -56.5t22.5 -85.5q0 -80 -52.5 -128t-137.5 -48q-86 0 -139 48.5t-53 129.5v19h102v-15q0 -44 25.5 -69t64.5 -25t63 24.5t24 67.5zM952 360q0 -233 -143 -432h-75q64 98 99 210.5t35 221.5q0 108 -35 221t-99 211h75
q143 -199 143 -432z" />
    <glyph glyph-name="glyph565" unicode="&#x2477;" horiz-adv-x="1067" 
d="M48 360q0 231 144 432h75q-64 -98 -99.5 -210.5t-35.5 -221.5t35.5 -222t99.5 -210h-75q-144 201 -144 432zM688 285v-87h-70v-119h-103v119h-231v80l228 379h106v-372h70zM396 285h119v205zM952 360q0 -233 -143 -432h-75q64 98 99 210.5t35 221.5q0 108 -35 221
t-99 211h75q143 -199 143 -432z" />
    <glyph glyph-name="glyph566" unicode="&#x2478;" horiz-adv-x="1067" 
d="M48 360q0 231 144 432h75q-64 -98 -99.5 -210.5t-35.5 -221.5t35.5 -222t99.5 -210h-75q-144 201 -144 432zM504 366q-46 0 -69 -47h-98l15 331h309v-88h-213l-7 -134q29 25 80 25q77 0 123 -50.5t46 -145.5q0 -92 -49.5 -143.5t-136.5 -51.5q-82 0 -131.5 47.5
t-55.5 132.5h103q4 -46 26.5 -69.5t57.5 -23.5q40 0 62 28t22 81q0 52 -22 80t-62 28zM952 360q0 -233 -143 -432h-75q64 98 99 210.5t35 221.5q0 108 -35 221t-99 211h75q143 -199 143 -432z" />
    <glyph glyph-name="glyph567" unicode="&#x2479;" horiz-adv-x="1067" 
d="M48 360q0 231 144 432h75q-64 -98 -99.5 -210.5t-35.5 -221.5t35.5 -222t99.5 -210h-75q-144 201 -144 432zM502 575q-43 0 -63 -36t-24 -117q37 34 97 34q80 0 128.5 -52.5t48.5 -142.5t-52.5 -143t-135.5 -53q-191 0 -191 267q0 181 44 255.5t149 74.5q74 0 120 -41
t55 -118h-104q-11 72 -72 72zM413 261q0 -51 23 -80t63 -29q41 0 64.5 29t23.5 80t-23.5 79.5t-64.5 28.5q-40 0 -63 -28.5t-23 -79.5zM952 360q0 -233 -143 -432h-75q64 98 99 210.5t35 221.5q0 108 -35 221t-99 211h75q143 -199 143 -432z" />
    <glyph glyph-name="glyph568" unicode="&#x247a;" horiz-adv-x="1067" 
d="M48 360q0 231 144 432h75q-64 -98 -99.5 -210.5t-35.5 -221.5t35.5 -222t99.5 -210h-75q-144 201 -144 432zM320 542v86h364v-70l-191 -507h-106l190 491h-257zM952 360q0 -233 -143 -432h-75q64 98 99 210.5t35 221.5q0 108 -35 221t-99 211h75q143 -199 143 -432z" />
    <glyph glyph-name="glyph569" unicode="&#x247b;" horiz-adv-x="1067" 
d="M48 360q0 231 144 432h75q-64 -98 -99.5 -210.5t-35.5 -221.5t35.5 -222t99.5 -210h-75q-144 201 -144 432zM502 64q-89 0 -144 47.5t-55 127.5q0 102 87 141q-33 18 -52 51t-19 74q0 69 49 112.5t134 43.5q84 0 133 -43.5t49 -112.5q0 -40 -19 -73t-52 -52
q89 -41 89 -141q0 -80 -55.5 -127.5t-144.5 -47.5zM501.5 337q-43.5 0 -70 -25t-26.5 -68t26.5 -67.5t70 -24.5t70 24.5t26.5 67.5t-26.5 68t-70 25zM502 574q-37 0 -59 -21t-22 -55t22 -55t59 -21q36 0 58 20.5t22 55t-22 55.5t-58 21zM952 360q0 -233 -143 -432h-75
q64 98 99 210.5t35 221.5q0 108 -35 221t-99 211h75q143 -199 143 -432z" />
    <glyph glyph-name="glyph570" unicode="&#x247c;" horiz-adv-x="1067" 
d="M48 360q0 231 144 432h75q-64 -98 -99.5 -210.5t-35.5 -221.5t35.5 -222t99.5 -210h-75q-144 201 -144 432zM496 145q42 0 62.5 35.5t24.5 116.5q-36 -33 -98 -33q-79 0 -128 52.5t-49 141.5q0 90 52.5 143.5t136.5 53.5q191 0 191 -268q0 -180 -45 -254.5t-148 -74.5
q-73 0 -120 40.5t-57 118.5h106q5 -35 23.5 -53.5t48.5 -18.5zM584 458q0 52 -23 80.5t-63.5 28.5t-63.5 -28.5t-23 -80.5q0 -50 23 -79t63 -29t63.5 29t23.5 79zM952 360q0 -233 -143 -432h-75q64 98 99 210.5t35 221.5q0 108 -35 221t-99 211h75q143 -199 143 -432z" />
    <glyph glyph-name="glyph571" unicode="&#x247d;" horiz-adv-x="1067" 
d="M48 360q0 231 144 432h75q-64 -98 -99.5 -210.5t-35.5 -221.5t35.5 -222t99.5 -210h-75q-144 201 -144 432zM398 88h-98v435l-107 -55v98l128 66h77v-544zM461 361q0 202 77 255q35 26 90 26q54 0 90 -26q76 -53 76 -255q0 -200 -76 -255q-38 -26 -90 -26q-53 0 -90 26
q-77 54 -77 255zM559 361q0 -80 7.5 -123.5t26.5 -60.5q13 -11 35 -11t35 11q34 31 34 184t-34 184q-14 12 -35 12t-35 -12q-19 -17 -26.5 -60.5t-7.5 -123.5zM952 360q0 -233 -143 -432h-75q64 98 99 210.5t35 221.5q0 108 -35 221t-99 211h75q143 -199 143 -432z" />
    <glyph glyph-name="glyph572" unicode="&#x247e;" horiz-adv-x="1067" 
d="M48 360q0 231 144 432h75q-64 -98 -99.5 -210.5t-35.5 -221.5t35.5 -222t99.5 -210h-75q-144 201 -144 432zM426 88h-98v435l-107 -55v98l127 66h78v-544zM720 88h-98v435l-107 -55v98l127 66h78v-544zM952 360q0 -233 -143 -432h-75q64 98 99 210.5t35 221.5
q0 108 -35 221t-99 211h75q143 -199 143 -432z" />
    <glyph glyph-name="glyph573" unicode="&#x247f;" horiz-adv-x="1067" 
d="M48 360q0 231 144 432h75q-64 -98 -99.5 -210.5t-35.5 -221.5t35.5 -222t99.5 -210h-75q-144 201 -144 432zM398 88h-98v435l-107 -55v98l128 66h77v-544zM777 477q0 -38 -10 -67t-37 -63l-129 -170h182v-85h-310v71l178 235q28 38 28 79q0 38 -15.5 60t-42.5 22
t-42 -22.5t-15 -59.5v-26h-98v26q0 72 41.5 120t113.5 48q73 0 114.5 -48t41.5 -120zM952 360q0 -233 -143 -432h-75q64 98 99 210.5t35 221.5q0 108 -35 221t-99 211h75q143 -199 143 -432z" />
    <glyph glyph-name="glyph574" unicode="&#x2480;" horiz-adv-x="1067" 
d="M48 360q0 231 144 432h75q-64 -98 -99.5 -210.5t-35.5 -221.5t35.5 -222t99.5 -210h-75q-144 201 -144 432zM398 88h-98v435l-107 -55v98l128 66h77v-544zM684 248q0 40 -17.5 62.5t-47.5 22.5h-60v85h61q23 0 37 19t14 50q0 30 -14 49t-37 19q-24 0 -38.5 -19t-14.5 -49
v-18h-96v24q0 64 40 106t109 42t108.5 -42t39.5 -106q0 -38 -15 -68.5t-42 -47.5q70 -36 70 -132q0 -76 -44.5 -121.5t-116.5 -45.5q-73 0 -118 46t-45 123v18h98v-15q0 -41 18 -63.5t47 -22.5q28 0 46 22.5t18 61.5zM952 360q0 -233 -143 -432h-75q64 98 99 210.5t35 221.5
q0 108 -35 221t-99 211h75q143 -199 143 -432z" />
    <glyph glyph-name="glyph575" unicode="&#x2481;" horiz-adv-x="1067" 
d="M48 360q0 231 144 432h75q-64 -98 -99.5 -210.5t-35.5 -221.5t35.5 -222t99.5 -210h-75q-144 201 -144 432zM398 88h-98v435l-107 -55v98l128 66h77v-544zM784 281v-85h-52v-112h-97v112h-188v75l187 358h98v-348h52zM552 281h83v165zM952 360q0 -233 -143 -432h-75
q64 98 99 210.5t35 221.5q0 108 -35 221t-99 211h75q143 -199 143 -432z" />
    <glyph glyph-name="glyph576" unicode="&#x2482;" horiz-adv-x="1067" 
d="M48 360q0 231 144 432h75q-64 -98 -99.5 -210.5t-35.5 -221.5t35.5 -222t99.5 -210h-75q-144 201 -144 432zM398 88h-98v435l-107 -55v98l128 66h77v-544zM617 361q-32 0 -50 -44h-92l11 312h266v-84h-173l-6 -115q27 16 58 16q66 0 105.5 -48t39.5 -138
q0 -86 -42.5 -135t-116.5 -49q-70 0 -111.5 45.5t-47.5 126.5h98q7 -86 61 -86q61 0 61 100q0 99 -61 99zM952 360q0 -233 -143 -432h-75q64 98 99 210.5t35 221.5q0 108 -35 221t-99 211h75q143 -199 143 -432z" />
    <glyph glyph-name="glyph536" unicode="&#x249c;" horiz-adv-x="1067" 
d="M48 359.5q0 231.5 144 431.5h75q-64 -98 -99.5 -210.5t-35.5 -220.5q0 -110 35.5 -222.5t99.5 -209.5h-75q-144 200 -144 431.5zM582 148q-6 15 -7 23q-38 -33 -106 -33q-75 0 -118.5 36.5t-43.5 101.5t43 101.5t119 36.5q65 0 103 -30v34q0 36 -19 55t-56 19
q-64 0 -72 -60h-104q6 68 51 107t125 39q88 0 132.5 -43t44.5 -117v-204q0 -30 13 -66h-105zM491.5 220q80.5 0 80.5 56t-80.5 56t-80.5 -56t80.5 -56zM952 359.5q0 -232.5 -143 -431.5h-75q64 97 99 209.5t35 222.5q0 108 -35 220.5t-99 210.5h75q143 -199 143 -431.5z" />
    <glyph glyph-name="glyph537" unicode="&#x249d;" horiz-adv-x="1067" 
d="M48 360q0 231 144 432h75q-64 -98 -99.5 -210.5t-35.5 -221.5t35.5 -222t99.5 -210h-75q-144 201 -144 432zM444 670v-191q40 40 105 40q81 0 126 -55t45 -164.5t-45 -164.5t-126 -55q-65 0 -105 40v-30h-103v580h103zM444 300q0 -66 20.5 -100t66.5 -34q86 0 86 133.5
t-86 133.5q-46 0 -66.5 -33.5t-20.5 -99.5zM952 360q0 -233 -143 -432h-75q64 98 99 210.5t35 221.5q0 108 -35 221t-99 211h75q143 -199 143 -432z" />
    <glyph glyph-name="glyph538" unicode="&#x249e;" horiz-adv-x="1065" 
d="M48 360q0 231 144 432h75q-64 -98 -99.5 -210.5t-35.5 -221.5t35.5 -222t99.5 -210h-75q-144 201 -144 432zM312 358q0 106 47.5 162.5t141.5 56.5q80 0 128 -42t55 -119h-103q-4 36 -25 56t-55 20q-46 0 -66 -34t-20 -100t20 -100t66 -34q34 0 55 20t25 57h103
q-7 -78 -55 -120t-128 -42q-94 0 -141.5 56.5t-47.5 162.5zM952 360q0 -233 -143 -432h-75q64 98 99 210.5t35 221.5q0 108 -35 221t-99 211h75q143 -199 143 -432z" />
    <glyph glyph-name="glyph539" unicode="&#x249f;" horiz-adv-x="1067" 
d="M48 360q0 231 144 432h75q-64 -98 -99.5 -210.5t-35.5 -221.5t35.5 -222t99.5 -210h-75q-144 201 -144 432zM555 483v191h103v-580h-103v30q-40 -40 -103 -40q-83 0 -128 55t-45 164.5t45 164.5t128 55q63 0 103 -40zM555 304q0 66 -20 100t-66 34q-47 0 -67 -34
t-20 -100t20 -100t67 -34q46 0 66 34t20 100zM952 360q0 -233 -143 -432h-75q64 98 99 210.5t35 221.5q0 108 -35 221t-99 211h75q143 -199 143 -432z" />
    <glyph glyph-name="glyph540" unicode="&#x24a0;" horiz-adv-x="1067" 
d="M48 360q0 231 144 432h75q-64 -98 -99.5 -210.5t-35.5 -221.5t35.5 -222t99.5 -210h-75q-144 201 -144 432zM577 291h105q-13 -73 -59.5 -112t-121.5 -39q-95 0 -142.5 56.5t-47.5 162.5t47.5 162.5t140.5 56.5q95 0 142 -56.5t47 -162.5v-34h-274q6 -101 87 -101
q30 0 50.5 18t25.5 49zM415 403h169q-10 92 -84 92q-76 0 -85 -92zM952 360q0 -233 -143 -432h-75q64 98 99 210.5t35 221.5q0 108 -35 221t-99 211h75q143 -199 143 -432z" />
    <glyph glyph-name="glyph541" unicode="&#x24a1;" horiz-adv-x="1067" 
d="M48 360q0 231 144 432h75q-64 -98 -99.5 -210.5t-35.5 -221.5t35.5 -222t99.5 -210h-75q-144 201 -144 432zM625 563h-51q-29 0 -40 -10.5t-11 -37.5v-32h102v-85h-102v-335h-103v335h-58v85h58v36q0 71 33.5 100.5t110.5 29.5h2q30 0 59 -6v-80zM952 360
q0 -233 -143 -432h-75q64 98 99 210.5t35 221.5q0 108 -35 221t-99 211h75q143 -199 143 -432z" />
    <glyph glyph-name="glyph542" unicode="&#x24a2;" horiz-adv-x="1067" 
d="M48 360q0 231 144 432h75q-64 -98 -99.5 -210.5t-35.5 -221.5t35.5 -222t99.5 -210h-75q-144 201 -144 432zM577 214v43q-37 -41 -103 -41q-82 0 -127 55.5t-45 165t45 164.5t127 55q63 0 103 -40v31h103v-427q0 -80 -45.5 -129t-136.5 -49q-76 0 -122.5 37.5
t-54.5 104.5h105q4 -29 23.5 -45t49.5 -16q39 0 58.5 23.5t19.5 67.5zM577 437q0 133 -86 133q-46 0 -66 -34t-20 -99q0 -67 20 -101t66 -34t66 34t20 101zM952 360q0 -233 -143 -432h-75q64 98 99 210.5t35 221.5q0 108 -35 221t-99 211h75q143 -199 143 -432z" />
    <glyph glyph-name="glyph543" unicode="&#x24a3;" horiz-adv-x="1065" 
d="M49 360q0 231 144 432h74q-64 -98 -99.5 -210.5t-35.5 -221.5t35.5 -222t99.5 -210h-74q-144 201 -144 432zM701 345v-262h-103v254q0 47 -16.5 68.5t-50.5 21.5q-39 0 -63.5 -31t-24.5 -87v-226h-103v581h103v-195q36 44 108 44q73 0 111.5 -43.5t38.5 -124.5zM952 360
q0 -233 -143 -432h-74q63 98 98 210.5t35 221.5q0 108 -35 221t-98 211h74q143 -199 143 -432z" />
    <glyph glyph-name="glyph544" unicode="&#x24a4;" horiz-adv-x="1067" 
d="M48 360q0 231 144 432h75q-64 -98 -99.5 -210.5t-35.5 -221.5t35.5 -222t99.5 -210h-75q-144 201 -144 432zM552 548h-105v105h105v-105zM552 73h-105v421h105v-421zM952 360q0 -233 -143 -432h-75q64 98 99 210.5t35 221.5q0 108 -35 221t-99 211h75q143 -199 143 -432z
" />
    <glyph glyph-name="glyph545" unicode="&#x24a5;" horiz-adv-x="1067" 
d="M48 360q0 231 144 432h75q-64 -98 -99.5 -210.5t-35.5 -221.5t35.5 -222t99.5 -210h-75q-144 201 -144 432zM576 538v-387q0 -65 -35 -98t-102 -33q-28 0 -47 3v83h39q41 0 41 48v384h104zM576 592h-104v106h104v-106zM952 360q0 -233 -143 -432h-75q64 98 99 210.5
t35 221.5q0 108 -35 221t-99 211h75q143 -199 143 -432z" />
    <glyph glyph-name="glyph546" unicode="&#x24a6;" horiz-adv-x="1067" 
d="M48 360q0 231 144 432h75q-64 -98 -99.5 -210.5t-35.5 -221.5t35.5 -222t99.5 -210h-75q-144 201 -144 432zM460 90h-103v580h103v-320h20l110 160h116l-139 -201l158 -219h-119l-126 177h-20v-177zM952 360q0 -233 -143 -432h-75q64 98 99 210.5t35 221.5q0 108 -35 221
t-99 211h75q143 -199 143 -432z" />
    <glyph glyph-name="glyph547" unicode="&#x24a7;" horiz-adv-x="1067" 
d="M48 360q0 231 144 432h75q-64 -98 -99.5 -210.5t-35.5 -221.5t35.5 -222t99.5 -210h-75q-144 201 -144 432zM556 68h-104v580h104v-580zM952 360q0 -233 -143 -432h-75q64 98 99 210.5t35 221.5q0 108 -35 221t-99 211h75q143 -199 143 -432z" />
    <glyph glyph-name="glyph548" unicode="&#x24a8;" horiz-adv-x="1067" 
d="M48 360q0 231 144 432h75q-64 -98 -99.5 -210.5t-35.5 -221.5t35.5 -222t99.5 -210h-75q-144 201 -144 432zM557 372v-224h-103v268q0 76 -60 76q-36 0 -57.5 -31t-21.5 -89v-224h-103v420h103v-33q35 42 100 42q84 0 118 -65q43 65 123 65q68 0 105 -42t37 -121v-266
h-104v268q0 76 -58 76q-36 0 -57.5 -31.5t-21.5 -88.5zM952 360q0 -233 -143 -432h-75q64 98 99 210.5t35 221.5q0 108 -35 221t-99 211h75q143 -199 143 -432z" />
    <glyph glyph-name="glyph549" unicode="&#x24a9;" horiz-adv-x="1067" 
d="M48 360q0 231 144 432h75q-64 -98 -99.5 -210.5t-35.5 -221.5t35.5 -222t99.5 -210h-75q-144 201 -144 432zM684 409v-261h-102v253q0 91 -67 91q-40 0 -64.5 -31.5t-24.5 -87.5v-225h-103v420h103v-34q38 43 109 43q72 0 110.5 -43.5t38.5 -124.5zM952 360
q0 -233 -143 -432h-75q64 98 99 210.5t35 221.5q0 108 -35 221t-99 211h75q143 -199 143 -432z" />
    <glyph glyph-name="glyph550" unicode="&#x24aa;" horiz-adv-x="1065" 
d="M50 360q0 231 144 432h74q-64 -98 -99 -210.5t-35 -221.5t35 -222t99 -210h-74q-144 201 -144 432zM691 360q0 -107 -47.5 -163.5t-141.5 -56.5q-93 0 -141 57t-48 163t48 162.5t141 56.5q94 0 141.5 -56.5t47.5 -162.5zM416 360q0 -66 20 -100.5t66 -34.5q47 0 66.5 34
t19.5 101q0 66 -20 100t-66 34q-86 0 -86 -134zM953 360q0 -233 -143 -432h-74q63 98 98.5 210.5t35.5 221.5q0 108 -35.5 221t-98.5 211h74q143 -199 143 -432z" />
    <glyph glyph-name="glyph551" unicode="&#x24ab;" horiz-adv-x="1067" 
d="M48 360q0 231 144 432h75q-64 -98 -99.5 -210.5t-35.5 -221.5t35.5 -222t99.5 -210h-75q-144 201 -144 432zM442 245v-204h-103v594h103v-31q40 40 103 40q83 0 128 -55t45 -164.5t-45 -165t-128 -55.5q-65 0 -103 41zM442 424q0 -66 20 -100t66 -34q87 0 87 134t-87 134
q-86 0 -86 -134zM952 360q0 -233 -143 -432h-75q64 98 99 210.5t35 221.5q0 108 -35 221t-99 211h75q143 -199 143 -432z" />
    <glyph glyph-name="glyph552" unicode="&#x24ac;" horiz-adv-x="1067" 
d="M48 360q0 231 144 432h75q-64 -98 -99.5 -210.5t-35.5 -221.5t35.5 -222t99.5 -210h-75q-144 201 -144 432zM556 41v204q-38 -41 -103 -41q-83 0 -128 55.5t-45 165t45 164.5t128 55q63 0 103 -40v31h103v-594h-103zM556 424q0 134 -86 134q-46 0 -66.5 -34t-20.5 -100
t20 -100t67 -34q46 0 66 34t20 100zM952 360q0 -233 -143 -432h-75q64 98 99 210.5t35 221.5q0 108 -35 221t-99 211h75q143 -199 143 -432z" />
    <glyph glyph-name="glyph553" unicode="&#x24ad;" horiz-adv-x="1067" 
d="M48 359q0 231 144 431h75q-64 -97 -99.5 -210t-35.5 -221q0 -110 35.5 -222.5t99.5 -209.5h-75q-144 201 -144 432zM593 480q-46 0 -71.5 -32.5t-25.5 -94.5v-216h-103v421h103v-33q34 42 99 42q25 0 43 -6l-1 -84q-18 3 -44 3zM952 358.5q0 -232.5 -143 -431.5h-75
q64 97 99 209.5t35 222.5q0 108 -35 220.5t-99 210.5h75q143 -199 143 -431.5z" />
    <glyph glyph-name="glyph554" unicode="&#x24ae;" horiz-adv-x="1067" 
d="M48 360q0 231 144 432h75q-64 -98 -99.5 -210.5t-35.5 -221.5t35.5 -222t99.5 -210h-75q-144 201 -144 432zM498 578q76 0 119.5 -34.5t43.5 -91.5v-19h-103v20q0 16 -16.5 29.5t-43 13.5t-42.5 -12.5t-16 -29.5t13.5 -27t43.5 -17q98 -14 138.5 -44.5t40.5 -95.5
q0 -57 -47 -93.5t-123 -36.5q-78 0 -124.5 36.5t-46.5 93.5v22h103v-22q0 -22 19 -35t49 -13q27 0 47 14t20 33q0 36 -54 47q-53 11 -83 20t-54.5 24t-34.5 36.5t-10 54.5q0 56 43.5 91.5t117.5 35.5zM952 360q0 -233 -143 -432h-75q64 98 99 210.5t35 221.5q0 108 -35 221
t-99 211h75q143 -199 143 -432z" />
    <glyph glyph-name="glyph555" unicode="&#x24af;" horiz-adv-x="1067" 
d="M48 359q0 231 144 432h75q-64 -98 -99.5 -210.5t-35.5 -221.5q0 -110 35.5 -222.5t99.5 -209.5h-75q-144 201 -144 432zM518 440v-204q0 -31 12.5 -41.5t45.5 -10.5h52v-82q-21 -3 -66 -3q-79 0 -113 27.5t-34 97.5v216h-58v85h58v113h103v-113h110v-85h-110zM952 359
q0 -233 -143 -432h-75q64 98 99 210.5t35 221.5q0 108 -35 221t-99 211h75q143 -199 143 -432z" />
    <glyph glyph-name="glyph556" unicode="&#x24b0;" horiz-adv-x="1067" 
d="M48 359q0 231 144 432h75q-64 -98 -99.5 -210.5t-35.5 -221.5q0 -110 35.5 -222.5t99.5 -209.5h-75q-144 201 -144 432zM310 300v260h102v-252q0 -92 67 -92q39 0 64 31.5t25 86.5v226h103v-420h-103v35q-39 -45 -109 -45q-73 0 -111 44t-38 126zM952 359
q0 -233 -143 -432h-75q64 98 99 210.5t35 221.5q0 108 -35 221t-99 211h75q143 -199 143 -432z" />
    <glyph glyph-name="glyph557" unicode="&#x24b1;" horiz-adv-x="1067" 
d="M48 360q0 231 144 432h75q-64 -98 -99.5 -210.5t-35.5 -221.5t35.5 -222t99.5 -210h-75q-144 201 -144 432zM547 127h-107l-154 421h107l101 -290l101 290h108zM952 360q0 -233 -143 -432h-75q64 98 99 210.5t35 221.5q0 108 -35 221t-99 211h75q143 -199 143 -432z" />
    <glyph glyph-name="glyph558" unicode="&#x24b2;" horiz-adv-x="1067" 
d="M48 360q0 231 144 432h75q-64 -98 -99.5 -210.5t-35.5 -221.5t35.5 -222t99.5 -210h-75q-144 201 -144 432zM450 556h96l87 -277l84 277h105l-137 -421h-101l-86 276l-84 -276h-101l-138 421h106l84 -278zM952 360q0 -233 -143 -432h-75q64 98 99 210.5t35 221.5
q0 108 -35 221t-99 211h75q143 -199 143 -432z" />
    <glyph glyph-name="glyph559" unicode="&#x24b3;" horiz-adv-x="1067" 
d="M48 360q0 231 144 432h75q-64 -98 -99.5 -210.5t-35.5 -221.5t35.5 -222t99.5 -210h-75q-144 201 -144 432zM705 144h-114l-89 140l-92 -140h-113l142 215l-133 205h113l83 -131l81 131h114l-134 -206zM952 360q0 -233 -143 -432h-75q64 98 99 210.5t35 221.5
q0 108 -35 221t-99 211h75q143 -199 143 -432z" />
    <glyph glyph-name="glyph560" unicode="&#x24b4;" horiz-adv-x="1065" 
d="M48 359q0 231 144 431h75q-64 -97 -99.5 -210t-35.5 -221q0 -110 35.5 -222.5t99.5 -209.5h-75q-144 201 -144 432zM434 139l22 61l-158 410h108l102 -284l100 284h108l-187 -497q-20 -55 -51.5 -76t-82.5 -21q-27 0 -45 3v83h37q17 0 28 8t19 29zM952 358.5
q0 -232.5 -143 -431.5h-75q64 97 99 209.5t35 222.5q0 108 -35 220.5t-99 210.5h75q143 -199 143 -431.5z" />
    <glyph glyph-name="glyph561" unicode="&#x24b5;" horiz-adv-x="1067" 
d="M48 360q0 231 144 432h75q-64 -98 -99.5 -210.5t-35.5 -221.5t35.5 -222t99.5 -210h-75q-144 201 -144 432zM657 569v-71l-191 -265h197v-84h-329v70l191 264h-185v86h317zM952 360q0 -233 -143 -432h-75q64 98 99 210.5t35 221.5q0 108 -35 221t-99 211h75
q143 -199 143 -432z" />
    <glyph glyph-name="glyph456" unicode="&#x24d0;" horiz-adv-x="1065" 
d="M36 359q0 129 62 236t168.5 167.5t235.5 60.5q128 0 234.5 -60.5t168 -167.5t61.5 -236q0 -128 -61.5 -234.5t-168 -167t-234.5 -60.5q-129 0 -235.5 60.5t-168.5 167t-62 234.5zM115 359.5q0 -109.5 50.5 -199t139.5 -140.5t197 -51t196.5 51t139.5 140.5t51 199
t-51 199.5t-139.5 141t-196.5 51t-197 -51t-139.5 -141t-50.5 -199.5zM583 149q-6 15 -7 23q-37 -33 -106 -33q-75 0 -118.5 36.5t-43.5 101.5t43.5 101.5t118.5 36.5q65 0 103 -30v34q0 35 -18.5 54.5t-55.5 19.5q-65 0 -73 -60h-104q6 68 51 107t126 39q87 0 131.5 -43
t44.5 -117v-204q0 -30 13 -66h-105zM492.5 221q80.5 0 80.5 56t-80.5 56t-80.5 -56t80.5 -56z" />
    <glyph glyph-name="glyph457" unicode="&#x24d1;" horiz-adv-x="1065" 
d="M35 359q0 129 61.5 236t168.5 167.5t235 60.5t234.5 -60.5t168.5 -167.5t62 -236q0 -128 -62 -234.5t-168.5 -167t-234.5 -60.5t-235 60.5t-168.5 167t-61.5 234.5zM113 359.5q0 -109.5 51 -199t139.5 -140.5t196.5 -51t197 51t139.5 140.5t50.5 199t-50.5 199.5
t-139.5 141t-197 51t-196.5 -51t-139.5 -141t-51 -199.5zM444 671v-191q40 40 104 40q82 0 127 -55t45 -164.5t-45 -164.5t-127 -55q-64 0 -104 40v-31h-103v581h103zM444 300q0 -66 20 -99.5t67 -33.5q86 0 86 133.5t-86 133.5q-47 0 -67 -34t-20 -100z" />
    <glyph glyph-name="glyph458" unicode="&#x24d2;" horiz-adv-x="1065" 
d="M35 359q0 129 61.5 236t168.5 167.5t235 60.5t234.5 -60.5t168.5 -167.5t62 -236q0 -128 -62 -234.5t-168.5 -167t-234.5 -60.5t-235 60.5t-168.5 167t-61.5 234.5zM113 359.5q0 -109.5 51 -199t139.5 -140.5t196.5 -51t197 51t139.5 140.5t50.5 199t-50.5 199.5
t-139.5 141t-197 51t-196.5 -51t-139.5 -141t-51 -199.5zM311 358q0 107 48 163.5t141 56.5q80 0 128 -42.5t56 -118.5h-103q-5 35 -25.5 55t-55.5 20q-45 0 -65 -34t-20 -99.5t20 -99.5t65 -34q35 0 55.5 20t25.5 56h103q-8 -77 -55.5 -119.5t-128.5 -42.5q-93 0 -141 57
t-48 162z" />
    <glyph glyph-name="glyph459" unicode="&#x24d3;" horiz-adv-x="1067" 
d="M35 359q0 129 62 236t168.5 167.5t235.5 60.5q127 0 234 -60.5t168.5 -167.5t61.5 -236q0 -128 -61.5 -234.5t-168.5 -167t-234 -60.5q-129 0 -235.5 60.5t-168.5 167t-62 234.5zM114 359.5q0 -109.5 50.5 -199t139 -140.5t197 -51t197 51t139 140.5t50.5 199t-50.5 199
t-139 141t-197 51.5t-197 -51.5t-139 -141t-50.5 -199zM555 484v191h103v-581h-103v31q-40 -40 -103 -40q-83 0 -128 55t-45 164.5t45 164.5t128 55q63 0 103 -40zM555 304.5q0 65.5 -20 99.5t-66 34q-47 0 -67 -34t-20 -99.5t20 -99.5t67 -34q46 0 66 34t20 99.5z" />
    <glyph glyph-name="glyph460" unicode="&#x24d4;" horiz-adv-x="1067" 
d="M35 359q0 129 62 236t168.5 167.5t235.5 60.5q127 0 234 -60.5t168.5 -167.5t61.5 -236q0 -128 -61.5 -234.5t-168.5 -167t-234 -60.5q-129 0 -235.5 60.5t-168.5 167t-62 234.5zM114 359.5q0 -109.5 50.5 -199t139 -140.5t197 -51t197 51t139 140.5t50.5 199t-50.5 199
t-139 141t-197 51.5t-197 -51.5t-139 -141t-50.5 -199zM577 291h105q-13 -72 -59.5 -111.5t-121.5 -39.5q-95 0 -142.5 56.5t-47.5 163t47.5 163t140.5 56.5q95 0 142 -56.5t47 -163.5v-33h-274q6 -101 87 -101q30 0 50.5 17.5t25.5 48.5zM415 403h169q-10 92 -84 92
q-76 0 -85 -92z" />
    <glyph glyph-name="glyph461" unicode="&#x24d5;" horiz-adv-x="1065" 
d="M35 359q0 129 61.5 236t168.5 167.5t235 60.5t234.5 -60.5t168.5 -167.5t62 -236q0 -128 -62 -234.5t-168.5 -167t-234.5 -60.5t-235 60.5t-168.5 167t-61.5 234.5zM113 359.5q0 -109.5 51 -199t139.5 -140.5t196.5 -51t197 51t139.5 140.5t50.5 199t-50.5 199.5
t-139.5 141t-197 51t-196.5 -51t-139.5 -141t-51 -199.5zM625 564h-51q-29 0 -40 -11t-11 -37v-32h102v-86h-102v-334h-103v334h-59v86h59v36q0 70 33 99.5t111 29.5h2q30 0 59 -6v-79z" />
    <glyph glyph-name="glyph462" unicode="&#x24d6;" horiz-adv-x="1065" 
d="M37 359q0 129 61.5 236t168.5 167.5t235 60.5t234.5 -60.5t168.5 -167.5t62 -236q0 -128 -62 -234.5t-168.5 -167t-234.5 -60.5t-235 60.5t-168.5 167t-61.5 234.5zM115 359.5q0 -109.5 51 -199t139.5 -140.5t196.5 -51t197 51t139.5 140.5t50.5 199t-50.5 199.5
t-139.5 141t-197 51t-196.5 -51t-139.5 -141t-51 -199.5zM579 215v42q-38 -40 -103 -40q-82 0 -127.5 55t-45.5 165t45 164.5t128 54.5q63 0 103 -39v30h103v-426q0 -81 -45.5 -130t-136.5 -49q-76 0 -122.5 38t-54.5 105h105q4 -30 23 -45.5t50 -15.5q38 0 58 23.5t20 67.5
zM579 437q0 134 -86 134q-46 0 -66.5 -34.5t-20.5 -99.5q0 -66 20.5 -100.5t66.5 -34.5t66 34.5t20 100.5z" />
    <glyph glyph-name="glyph463" unicode="&#x24d7;" horiz-adv-x="1065" 
d="M35 359q0 129 61.5 236t168.5 167.5t235 60.5t234.5 -60.5t168.5 -167.5t62 -236q0 -128 -62 -234.5t-168.5 -167t-234.5 -60.5t-235 60.5t-168.5 167t-61.5 234.5zM113 359.5q0 -109.5 51 -199t139.5 -140.5t196.5 -51t197 51t139.5 140.5t50.5 199t-50.5 199.5
t-139.5 141t-197 51t-196.5 -51t-139.5 -141t-51 -199.5zM700 345v-261h-103v253q0 47 -16.5 69t-49.5 22q-40 0 -64.5 -31.5t-24.5 -87.5v-225h-103v581h103v-195q36 44 108 44q73 0 111.5 -44t38.5 -125z" />
    <glyph glyph-name="glyph464" unicode="&#x24d8;" horiz-adv-x="1065" 
d="M36 359q0 129 61.5 236t168.5 167.5t235 60.5t235 -60.5t168.5 -167.5t61.5 -236q0 -128 -61.5 -234.5t-168.5 -167t-235 -60.5t-235 60.5t-168.5 167t-61.5 234.5zM115 359.5q0 -109.5 50.5 -199t139 -140.5t197 -51t197 51t139 140.5t50.5 199t-50.5 199.5t-139 141
t-197 51t-197 -51t-139 -141t-50.5 -199.5zM552 548h-104v105h104v-105zM552 74h-104v420h104v-420z" />
    <glyph glyph-name="glyph465" unicode="&#x24d9;" horiz-adv-x="1065" 
d="M36 359q0 129 61.5 236t168.5 167.5t235 60.5t234.5 -60.5t168 -167.5t61.5 -236q0 -128 -61.5 -234.5t-168 -167t-234.5 -60.5t-235 60.5t-168.5 167t-61.5 234.5zM114 359.5q0 -109.5 50.5 -199t139.5 -140.5t197 -51t197 51t139.5 140.5t50.5 199t-50.5 199.5
t-139.5 141t-197 51t-197 -51t-139.5 -141t-50.5 -199.5zM576 538v-387q0 -64 -34.5 -97t-101.5 -33q-29 0 -47 3v82h39q40 0 40 48v384h104zM576 592h-104v106h104v-106z" />
    <glyph glyph-name="glyph466" unicode="&#x24da;" horiz-adv-x="1067" 
d="M35 359q0 129 62 236t168.5 167.5t235.5 60.5q127 0 234 -60.5t168.5 -167.5t61.5 -236q0 -128 -61.5 -234.5t-168.5 -167t-234 -60.5q-129 0 -235.5 60.5t-168.5 167t-62 234.5zM114 359.5q0 -109.5 50.5 -199t139 -140.5t197 -51t197 51t139 140.5t50.5 199t-50.5 199
t-139 141t-197 51.5t-197 -51.5t-139 -141t-50.5 -199zM460 90h-103v581h103v-321h20l110 160h116l-139 -201l158 -219h-119l-126 178h-20v-178z" />
    <glyph glyph-name="glyph467" unicode="&#x24db;" horiz-adv-x="1065" 
d="M36 359q0 129 61.5 236t168.5 167.5t235 60.5t234.5 -60.5t168 -167.5t61.5 -236q0 -128 -61.5 -234.5t-168 -167t-234.5 -60.5t-235 60.5t-168.5 167t-61.5 234.5zM114 359.5q0 -109.5 50.5 -199t139.5 -140.5t197 -51t197 51t139.5 140.5t50.5 199t-50.5 199.5
t-139.5 141t-197 51t-197 -51t-139.5 -141t-50.5 -199.5zM556 69h-104v579h104v-579z" />
    <glyph glyph-name="glyph468" unicode="&#x24dc;" horiz-adv-x="1065" 
d="M36 359q0 129 61.5 236t168.5 167.5t235 60.5t234.5 -60.5t168 -167.5t61.5 -236q0 -128 -61.5 -234.5t-168 -167t-234.5 -60.5t-235 60.5t-168.5 167t-61.5 234.5zM114 359.5q0 -109.5 50.5 -199t139.5 -140.5t197 -51t197 51t139.5 140.5t50.5 199t-50.5 199.5
t-139.5 141t-197 51t-197 -51t-139.5 -141t-50.5 -199.5zM557 373v-225h-103v269q0 75 -59 75q-36 0 -58 -31t-22 -88v-225h-103v421h103v-34q35 43 100 43q84 0 119 -65q42 65 122 65q69 0 105.5 -42.5t36.5 -120.5v-267h-103v269q0 75 -58 75q-36 0 -58 -31t-22 -88z" />
    <glyph glyph-name="glyph469" unicode="&#x24dd;" horiz-adv-x="1065" 
d="M35 359q0 129 61.5 236t168.5 167.5t235 60.5t234.5 -60.5t168.5 -167.5t62 -236q0 -128 -62 -234.5t-168.5 -167t-234.5 -60.5t-235 60.5t-168.5 167t-61.5 234.5zM113 359.5q0 -109.5 51 -199t139.5 -140.5t196.5 -51t197 51t139.5 140.5t50.5 199t-50.5 199.5
t-139.5 141t-197 51t-196.5 -51t-139.5 -141t-51 -199.5zM684 410v-262h-102v253q0 91 -67 91q-40 0 -64.5 -31t-24.5 -87v-226h-103v421h103v-35q37 44 109 44t110.5 -43.5t38.5 -124.5z" />
    <glyph glyph-name="glyph470" unicode="&#x24de;" horiz-adv-x="1065" 
d="M35 359q0 129 62 236t168.5 167.5t235.5 60.5q128 0 234.5 -60.5t168 -167.5t61.5 -236q0 -128 -61.5 -234.5t-168 -167t-234.5 -60.5q-129 0 -235.5 60.5t-168.5 167t-62 234.5zM114 359.5q0 -109.5 50.5 -199t139.5 -140.5t197 -51t196.5 51t139.5 140.5t51 199
t-51 199.5t-139.5 141t-196.5 51t-197 -51t-139.5 -141t-50.5 -199.5zM690 361q0 -107 -47.5 -164t-141.5 -57t-141.5 57t-47.5 164q0 105 47.5 162t141.5 57t141.5 -57t47.5 -162zM415 361q0 -67 20 -101t66 -34t65.5 34t19.5 101q0 65 -19.5 99t-65.5 34q-86 0 -86 -133z
" />
    <glyph glyph-name="glyph471" unicode="&#x24df;" horiz-adv-x="1065" 
d="M35 359q0 129 61.5 236t168.5 167.5t235 60.5t234.5 -60.5t168.5 -167.5t62 -236q0 -128 -62 -234.5t-168.5 -167t-234.5 -60.5t-235 60.5t-168.5 167t-61.5 234.5zM113 359.5q0 -109.5 51 -199t139.5 -140.5t196.5 -51t197 51t139.5 140.5t50.5 199t-50.5 199.5
t-139.5 141t-197 51t-196.5 -51t-139.5 -141t-51 -199.5zM442 245v-204h-103v594h103v-31q40 40 103 40q82 0 127.5 -55t45.5 -164.5t-45.5 -165t-127.5 -55.5q-65 0 -103 41zM442 425q0 -67 20 -101t66 -34q87 0 87 135q0 134 -87 134q-86 0 -86 -134z" />
    <glyph glyph-name="glyph472" unicode="&#x24e0;" horiz-adv-x="1067" 
d="M35 359q0 129 62 236t168.5 167.5t235.5 60.5q127 0 234 -60.5t168.5 -167.5t61.5 -236q0 -128 -61.5 -234.5t-168.5 -167t-234 -60.5q-129 0 -235.5 60.5t-168.5 167t-62 234.5zM114 359.5q0 -109.5 50.5 -199t139 -140.5t197 -51t197 51t139 140.5t50.5 199t-50.5 199
t-139 141t-197 51.5t-197 -51.5t-139 -141t-50.5 -199zM556 41v204q-38 -41 -103 -41q-83 0 -128 55.5t-45 165t45 164.5t128 55q63 0 103 -40v31h103v-594h-103zM556 425q0 134 -86 134q-46 0 -66.5 -34.5t-20.5 -99.5q0 -67 20 -101t67 -34q46 0 66 34t20 101z" />
    <glyph glyph-name="glyph473" unicode="&#x24e1;" horiz-adv-x="1065" 
d="M35 359q0 129 61.5 236t168.5 167.5t235 60.5t234.5 -60.5t168.5 -167.5t62 -236q0 -128 -62 -234.5t-168.5 -167t-234.5 -60.5t-235 60.5t-168.5 167t-61.5 234.5zM113 359.5q0 -109.5 51 -199t139.5 -140.5t196.5 -51t197 51t139.5 140.5t50.5 199t-50.5 199.5
t-139.5 141t-197 51t-196.5 -51t-139.5 -141t-51 -199.5zM593 482q-46 0 -71.5 -32.5t-25.5 -95.5v-215h-103v421h103v-33q34 42 99 42q25 0 43 -6l-1 -84q-18 3 -44 3z" />
    <glyph glyph-name="glyph474" unicode="&#x24e2;" horiz-adv-x="1065" 
d="M35 359q0 129 61.5 236t168.5 167.5t235 60.5t234.5 -60.5t168.5 -167.5t62 -236q0 -128 -62 -234.5t-168.5 -167t-234.5 -60.5t-235 60.5t-168.5 167t-61.5 234.5zM113 359.5q0 -109.5 51 -199t139.5 -140.5t196.5 -51t197 51t139.5 140.5t50.5 199t-50.5 199.5
t-139.5 141t-197 51t-196.5 -51t-139.5 -141t-51 -199.5zM498 579q76 0 119.5 -35t43.5 -92v-18h-104v19q0 17 -16 30t-42.5 13t-42.5 -12t-16 -30q0 -17 13.5 -26.5t43.5 -17.5q98 -14 138.5 -44.5t40.5 -94.5q0 -57 -47 -94t-124 -37t-123.5 36.5t-46.5 94.5v21h103v-21
q0 -22 19 -35t48 -13q27 0 47.5 14t20.5 33q0 36 -54 47q-53 10 -83 19t-55 24t-34.5 37t-9.5 54q0 57 43 92.5t118 35.5z" />
    <glyph glyph-name="glyph475" unicode="&#x24e3;" horiz-adv-x="1065" 
d="M35 359q0 129 61.5 235.5t168.5 167t235 60.5t234.5 -60.5t168.5 -167t62 -235.5q0 -128 -62 -234.5t-168.5 -167t-234.5 -60.5t-235 60.5t-168.5 167t-61.5 234.5zM113 359q0 -109 51 -198.5t139.5 -141t196.5 -51.5t197 51.5t139.5 141t50.5 198.5t-50.5 199
t-139.5 141.5t-197 51.5t-197 -51.5t-139.5 -141.5t-50.5 -199zM517 441v-203q0 -32 13 -42t46 -10h52v-83q-22 -3 -67 -3q-79 0 -113 27.5t-34 97.5v216h-58v85h58v113h103v-113h111v-85h-111z" />
    <glyph glyph-name="glyph476" unicode="&#x24e4;" horiz-adv-x="1065" 
d="M35 359q0 129 61.5 236t168.5 167.5t235 60.5t234.5 -60.5t168.5 -167.5t62 -236q0 -128 -62 -234.5t-168.5 -167t-234.5 -60.5t-235 60.5t-168.5 167t-61.5 234.5zM113 359.5q0 -109.5 51 -199t139.5 -140.5t196.5 -51t197 51t139.5 140.5t50.5 199t-50.5 199.5
t-139.5 141t-197 51t-196.5 -51t-139.5 -141t-51 -199.5zM309 301v261h102v-253q0 -91 68 -91q39 0 64 31.5t25 86.5v226h103v-421h-103v36q-39 -45 -110 -45q-72 0 -110.5 44t-38.5 125z" />
    <glyph glyph-name="glyph477" unicode="&#x24e5;" horiz-adv-x="1065" 
d="M35 359q0 129 61.5 236t168.5 167.5t235 60.5t234.5 -60.5t168.5 -167.5t62 -236q0 -128 -62 -234.5t-168.5 -167t-234.5 -60.5t-235 60.5t-168.5 167t-61.5 234.5zM113 359.5q0 -109.5 51 -199t139.5 -140.5t196.5 -51t197 51t139.5 140.5t50.5 199t-50.5 199.5
t-139.5 141t-197 51t-196.5 -51t-139.5 -141t-51 -199.5zM547 128h-107l-154 420h107l101 -290l101 290h107z" />
    <glyph glyph-name="glyph478" unicode="&#x24e6;" horiz-adv-x="1065" 
d="M35 359q0 129 61.5 236t168.5 167.5t235 60.5t234.5 -60.5t168.5 -167.5t62 -236q0 -128 -62 -234.5t-168.5 -167t-234.5 -60.5t-235 60.5t-168.5 167t-61.5 234.5zM113 359.5q0 -109.5 51 -199t139.5 -140.5t196.5 -51t197 51t139.5 140.5t50.5 199t-50.5 199.5
t-139.5 141t-197 51t-196.5 -51t-139.5 -141t-51 -199.5zM450 556h96l87 -276l84 276h105l-137 -420h-101l-86 276l-84 -276h-102l-137 420h106l84 -277z" />
    <glyph glyph-name="glyph479" unicode="&#x24e7;" horiz-adv-x="1067" 
d="M35 359q0 129 62 236t168.5 167.5t235.5 60.5q127 0 234 -60.5t168.5 -167.5t61.5 -236q0 -128 -61.5 -234.5t-168.5 -167t-234 -60.5q-129 0 -235.5 60.5t-168.5 167t-62 234.5zM114 359.5q0 -109.5 50.5 -199t139 -140.5t197 -51t197 51t139 140.5t50.5 199t-50.5 199
t-139 141t-197 51.5t-197 -51.5t-139 -141t-50.5 -199zM705 144h-114l-89 141l-92 -141h-113l142 215l-133 206h113l83 -131l81 131h114l-134 -207z" />
    <glyph glyph-name="glyph480" unicode="&#x24e8;" horiz-adv-x="1067" 
d="M35 360q0 128 62 235t168.5 167.5t235.5 60.5q127 0 234 -60.5t168.5 -167.5t61.5 -235q0 -129 -61.5 -235.5t-168.5 -167t-234 -60.5q-129 0 -235.5 60.5t-168.5 167t-62 235.5zM114 359.5q0 -109.5 50.5 -199t139 -140.5t197 -51t197 51t139 140.5t50.5 199
t-50.5 199.5t-139 141t-197 51t-197 -51t-139 -141t-50.5 -199.5zM434 141l22 60l-158 411h108l102 -284l100 284h108l-187 -497q-20 -55 -51.5 -76t-82.5 -21q-27 0 -45 3v82h37q33 0 47 38z" />
    <glyph glyph-name="glyph481" unicode="&#x24e9;" horiz-adv-x="1067" 
d="M35 359q0 129 62 236t168.5 167.5t235.5 60.5q127 0 234 -60.5t168.5 -167.5t61.5 -236q0 -128 -61.5 -234.5t-168.5 -167t-234 -60.5q-129 0 -235.5 60.5t-168.5 167t-62 234.5zM114 359.5q0 -109.5 50.5 -199t139 -140.5t197 -51t197 51t139 140.5t50.5 199t-50.5 199
t-139 141t-197 51.5t-197 -51.5t-139 -141t-50.5 -199zM657 570v-72l-191 -264h197v-85h-329v71l191 264h-185v86h317z" />
    <glyph glyph-name="glyph279" unicode="&#x2501;" horiz-adv-x="1065" 
d="M10 397h980v-96h-980v96z" />
    <glyph glyph-name="glyph280" unicode="&#x2503;" horiz-adv-x="1067" 
d="M452 870h96v-1020h-96v1020z" />
    <glyph glyph-name="glyph270" unicode="&#x250c;" horiz-adv-x="1039" 
d="M436 -133v540h520v-60h-460v-480h-60z" />
    <glyph glyph-name="glyph307" unicode="&#x250d;" horiz-adv-x="1039" 
d="M446 435h509v-96h-471v-462h-38v558z" />
    <glyph glyph-name="glyph306" unicode="&#x250e;" horiz-adv-x="1040" 
d="M515 370v-491h-96v527h538v-36h-442z" />
    <glyph glyph-name="glyph281" unicode="&#x250f;" horiz-adv-x="1040" 
d="M419 435h538v-96h-442v-462h-96v558z" />
    <glyph glyph-name="glyph271" unicode="&#x2510;" horiz-adv-x="1092" 
d="M504 -133v480h-460v60h520v-540h-60z" />
    <glyph glyph-name="glyph301" unicode="&#x2511;" horiz-adv-x="1092" 
d="M515 339h-470v96h508v-558h-38v462z" />
    <glyph glyph-name="glyph300" unicode="&#x2512;" horiz-adv-x="1091" 
d="M486 370h-442v36h538v-527h-96v491z" />
    <glyph glyph-name="glyph282" unicode="&#x2513;" horiz-adv-x="1091" 
d="M581 -123h-96v462h-442v96h538v-558z" />
    <glyph glyph-name="glyph273" unicode="&#x2514;" horiz-adv-x="1039" 
d="M495 831v-481h461v-60h-521v541h60z" />
    <glyph glyph-name="glyph305" unicode="&#x2515;" horiz-adv-x="1039" 
d="M484 381h471v-96h-509v558h38v-462z" />
    <glyph glyph-name="glyph304" unicode="&#x2516;" horiz-adv-x="1040" 
d="M515 348h442v-36h-538v529h96v-493z" />
    <glyph glyph-name="glyph284" unicode="&#x2517;" horiz-adv-x="1040" 
d="M515 381h442v-96h-538v558h96v-462z" />
    <glyph glyph-name="glyph272" unicode="&#x2518;" horiz-adv-x="1092" 
d="M565 831v-541h-521v60h461v481h60z" />
    <glyph glyph-name="glyph303" unicode="&#x2519;" horiz-adv-x="1092" 
d="M515 381v462h38v-558h-508v96h470z" />
    <glyph glyph-name="glyph302" unicode="&#x251a;" horiz-adv-x="1091" 
d="M486 348v493h96v-529h-538v36h442z" />
    <glyph glyph-name="glyph283" unicode="&#x251b;" horiz-adv-x="1091" 
d="M485 843h96v-558h-538v96h442v462z" />
    <glyph glyph-name="glyph274" unicode="&#x251c;" horiz-adv-x="1039" 
d="M436 859h60v-480h460v-61h-460v-479h-60v1020z" />
    <glyph glyph-name="glyph295" unicode="&#x251d;" horiz-adv-x="1039" 
d="M955 408v-96h-471v-462h-38v1020h38v-462h471z" />
    <glyph glyph-name="glyph308" unicode="&#x251e;" horiz-adv-x="1040" 
d="M419 870h96v-493h442v-36h-472v-491h-38v491h-28v529z" />
    <glyph glyph-name="glyph309" unicode="&#x251f;" horiz-adv-x="1040" 
d="M447 870h38v-493h472v-36h-442v-491h-96v527h28v493z" />
    <glyph glyph-name="glyph290" unicode="&#x2520;" horiz-adv-x="1040" 
d="M957 377v-36h-442v-491h-96v1020h96v-493h442z" />
    <glyph glyph-name="glyph310" unicode="&#x2521;" horiz-adv-x="1040" 
d="M447 -152v463h-28v558h96v-462h442v-96h-472v-463h-38z" />
    <glyph glyph-name="glyph311" unicode="&#x2522;" horiz-adv-x="1040" 
d="M419 -151v558h28v463h38v-463h472v-96h-442v-462h-96z" />
    <glyph glyph-name="glyph285" unicode="&#x2523;" horiz-adv-x="1040" 
d="M419 870h96v-462h442v-96h-442v-462h-96v1020z" />
    <glyph glyph-name="glyph276" unicode="&#x2524;" horiz-adv-x="1092" 
d="M565 870v-1020h-60v479h-461v61h461v480h60z" />
    <glyph glyph-name="glyph297" unicode="&#x2525;" horiz-adv-x="1092" 
d="M515 408v462h38v-1020h-38v462h-470v96h470z" />
    <glyph glyph-name="glyph312" unicode="&#x2526;" horiz-adv-x="1091" 
d="M485 870h96v-530h-30v-491h-37v491h-471v37h442v493z" />
    <glyph glyph-name="glyph313" unicode="&#x2527;" horiz-adv-x="1091" 
d="M43 377h471v493h37v-493h30v-528h-96v491h-442v37z" />
    <glyph glyph-name="glyph292" unicode="&#x2528;" horiz-adv-x="1091" 
d="M581 -150h-96v491h-442v36h442v493h96v-1020z" />
    <glyph glyph-name="glyph314" unicode="&#x2529;" horiz-adv-x="1091" 
d="M43 312v96h442v462h96v-558h-30v-462h-37v462h-471z" />
    <glyph glyph-name="glyph315" unicode="&#x252a;" horiz-adv-x="1091" 
d="M43 311v96h471v462h37v-462h30v-558h-96v462h-442z" />
    <glyph glyph-name="glyph287" unicode="&#x252b;" horiz-adv-x="1091" 
d="M43 312v96h442v462h96v-1020h-96v462h-442z" />
    <glyph glyph-name="glyph275" unicode="&#x252c;" horiz-adv-x="1065" 
d="M990 407v-60h-459v-480h-61v480h-460v60h980z" />
    <glyph glyph-name="glyph316" unicode="&#x252d;" horiz-adv-x="1065" 
d="M10 338v96h508v-30h472v-37h-472v-491h-37v462h-471z" />
    <glyph glyph-name="glyph317" unicode="&#x252e;" horiz-adv-x="1065" 
d="M10 367v37h471v30h509v-96h-472v-462h-37v491h-471z" />
    <glyph glyph-name="glyph291" unicode="&#x252f;" horiz-adv-x="1065" 
d="M990 435v-96h-472v-462h-38v462h-470v96h980z" />
    <glyph glyph-name="glyph296" unicode="&#x2530;" horiz-adv-x="1065" 
d="M990 406v-36h-442v-491h-96v491h-442v36h980z" />
    <glyph glyph-name="glyph318" unicode="&#x2531;" horiz-adv-x="1065" 
d="M10 338v96h538v-30h442v-37h-442v-491h-96v462h-442z" />
    <glyph glyph-name="glyph319" unicode="&#x2532;" horiz-adv-x="1065" 
d="M10 367v37h442v30h538v-96h-442v-462h-96v491h-442z" />
    <glyph glyph-name="glyph286" unicode="&#x2533;" horiz-adv-x="1065" 
d="M10 339v96h980v-96h-442v-462h-96v462h-442z" />
    <glyph glyph-name="glyph277" unicode="&#x2534;" horiz-adv-x="1065" 
d="M990 290h-980v60h460v481h61v-481h459v-60z" />
    <glyph glyph-name="glyph320" unicode="&#x2535;" horiz-adv-x="1065" 
d="M10 284v96h471v462h37v-493h472v-37h-472v-28h-508z" />
    <glyph glyph-name="glyph321" unicode="&#x2536;" horiz-adv-x="1065" 
d="M518 380h472v-96h-509v28h-471v37h471v493h37v-462z" />
    <glyph glyph-name="glyph293" unicode="&#x2537;" horiz-adv-x="1065" 
d="M481 381v462h37v-462h472v-96h-980v96h471z" />
    <glyph glyph-name="glyph298" unicode="&#x2538;" horiz-adv-x="1065" 
d="M452 348v493h96v-493h442v-36h-980v36h442z" />
    <glyph glyph-name="glyph322" unicode="&#x2539;" horiz-adv-x="1065" 
d="M548 349h442v-37h-442v-28h-538v96h442v462h96v-493z" />
    <glyph glyph-name="glyph323" unicode="&#x253a;" horiz-adv-x="1065" 
d="M10 312v37h442v493h96v-462h442v-96h-538v28h-442z" />
    <glyph glyph-name="glyph288" unicode="&#x253b;" horiz-adv-x="1065" 
d="M452 381v462h96v-462h442v-96h-980v96h442z" />
    <glyph glyph-name="glyph278" unicode="&#x253c;" horiz-adv-x="1065" 
d="M470 859h60v-480h460v-61h-460v-479h-60v479h-460v61h460v480z" />
    <glyph glyph-name="glyph324" unicode="&#x253d;" horiz-adv-x="1065" 
d="M10 309v96h471v462h37v-493h472v-36h-472v-491h-37v462h-471z" />
    <glyph glyph-name="glyph325" unicode="&#x253e;" horiz-adv-x="1065" 
d="M518 870v-462h472v-96h-472v-462h-37v491h-471v36h471v493h37z" />
    <glyph glyph-name="glyph294" unicode="&#x253f;" horiz-adv-x="1065" 
d="M481 408v462h37v-462h472v-96h-472v-462h-37v462h-471v96h471z" />
    <glyph glyph-name="glyph326" unicode="&#x2540;" horiz-adv-x="1065" 
d="M548 870v-493h442v-36h-472v-491h-37v491h-471v36h442v493h96z" />
    <glyph glyph-name="glyph327" unicode="&#x2541;" horiz-adv-x="1065" 
d="M518 870v-493h472v-36h-442v-491h-96v491h-442v36h471v493h37z" />
    <glyph glyph-name="glyph299" unicode="&#x2542;" horiz-adv-x="1065" 
d="M452 377v493h96v-493h442v-36h-442v-491h-96v491h-442v36h442z" />
    <glyph glyph-name="glyph328" unicode="&#x2543;" horiz-adv-x="1065" 
d="M549 870v-493h442v-36h-442v-29h-30v-462h-38v462h-470v96h442v462h96z" />
    <glyph glyph-name="glyph329" unicode="&#x2544;" horiz-adv-x="1065" 
d="M518 -150h-37v462h-29v29h-442v36h442v493h96v-462h442v-96h-472v-462z" />
    <glyph glyph-name="glyph330" unicode="&#x2545;" horiz-adv-x="1065" 
d="M518 870v-462h30v-31h442v-36h-442v-491h-96v462h-442v96h471v462h37z" />
    <glyph glyph-name="glyph331" unicode="&#x2546;" horiz-adv-x="1065" 
d="M518 870v-462h472v-97h-442v-461h-96v491h-442v36h442v31h29v462h37z" />
    <glyph glyph-name="glyph332" unicode="&#x2547;" horiz-adv-x="1065" 
d="M549 870v-462h442v-96h-472v-462h-38v462h-470v96h442v462h96z" />
    <glyph glyph-name="glyph333" unicode="&#x2548;" horiz-adv-x="1065" 
d="M518 870v-462h472v-96h-442v-462h-96v462h-442v96h471v462h37z" />
    <glyph glyph-name="glyph334" unicode="&#x2549;" horiz-adv-x="1065" 
d="M548 870v-493h442v-36h-442v-491h-96v462h-442v96h442v462h96z" />
    <glyph glyph-name="glyph335" unicode="&#x254a;" horiz-adv-x="1065" 
d="M548 870v-462h442v-96h-442v-462h-96v491h-442v36h442v493h96z" />
    <glyph glyph-name="glyph289" unicode="&#x254b;" horiz-adv-x="1065" 
d="M452 408v462h96v-462h442v-96h-442v-462h-96v462h-442v96h442z" />
    <glyph glyph-name="glyph122" unicode="&#x2592;" horiz-adv-x="1067" 
d="M886 -33h-792v785h792v-785zM147 8h684v697h-684v-697zM233 619h-59v61h59v-61zM233 522h-59v60h59v-60zM233 426h-59v60h59v-60zM233 326h-59v63h59v-63zM233 230h-59v60h59v-60zM233 134h-59v59h59v-59zM233 35h-59v61h59v-61zM328 619h-58v61h58v-61zM328 522h-58v60
h58v-60zM328 426h-58v60h58v-60zM328 326h-58v63h58v-63zM328 230h-58v60h58v-60zM328 134h-58v59h58v-59zM328 35h-58v61h58v-61zM421 619h-58v61h58v-61zM421 522h-58v60h58v-60zM421 426h-58v60h58v-60zM421 326h-58v63h58v-63zM421 230h-58v60h58v-60zM421 134h-58v59
h58v-59zM421 35h-58v61h58v-61zM458 619v61h59v-61h-59zM458 522v60h59v-60h-59zM458 426v60h59v-60h-59zM458 326v63h59v-63h-59zM458 230v60h59v-60h-59zM458 134v59h59v-59h-59zM458 35v61h59v-61h-59zM612 619h-59v61h59v-61zM612 522h-59v60h59v-60zM612 426h-59v60h59
v-60zM612 326h-59v63h59v-63zM612 230h-59v60h59v-60zM612 134h-59v59h59v-59zM612 35h-59v61h59v-61zM649 680h57v-61h-57v61zM649 582h57v-60h-57v60zM649 486h57v-60h-57v60zM649 389h57v-63h-57v63zM649 290h57v-60h-57v60zM649 193h57v-59h-57v59zM649 96h57v-61h-57
v61zM743 680h58v-61h-58v61zM743 582h58v-60h-58v60zM743 486h58v-60h-58v60zM743 389h58v-63h-58v63zM743 290h58v-60h-58v60zM743 193h58v-59h-58v59zM743 96h58v-61h-58v61z" />
    <glyph glyph-name="glyph56" unicode="&#x25a0;" horiz-adv-x="1067" 
d="M113 -24v768h774v-768h-774z" />
    <glyph glyph-name="glyph55" unicode="&#x25a1;" horiz-adv-x="1067" 
d="M887 -24h-774v768h774v-768zM200 57h600v606h-600v-606z" />
    <glyph glyph-name="glyph119" unicode="&#x25a3;" horiz-adv-x="1067" 
d="M887 -23h-774v767h774v-767zM200 57h600v607h-600v-607zM658 201h-316v320h316v-320z" />
    <glyph glyph-name="glyph123" unicode="&#x25a4;" horiz-adv-x="1069" 
d="M876 -36h-792v785h792v-785zM821 640v62h-684v-62h684zM137 601v-67h684v67h-684zM137 494v-66h684v66h-684zM137 389v-68h684v68h-684zM137 281v-67h684v67h-684zM137 176v-68h684v68h-684zM137 6h684v64h-684v-64z" />
    <glyph glyph-name="glyph124" unicode="&#x25a5;" horiz-adv-x="1067" 
d="M889 -37h-792v784h792v-784zM146 698v-689h64v689h-64zM249 698v-689h66v689h-66zM354 698v-689h66v689h-66zM458 698v-689h66v689h-66zM562 698v-689h67v689h-67zM668 698v-689h65v689h-65zM773 9h64v689h-64v-689z" />
    <glyph glyph-name="glyph127" unicode="&#x25a6;" horiz-adv-x="1065" 
d="M896 -39h-792v785h792v-785zM152 700v-63h65v63h-65zM152 600v-69h65v69h-65zM152 493v-68h65v68h-65zM152 388v-71h65v71h-65zM152 280v-69h65v69h-65zM152 175v-70h65v70h-65zM152 68v-64h65v64h-65zM254 700v-63h68v63h-68zM254 600v-69h68v69h-68zM254 493v-68h68v68
h-68zM254 388v-71h68v71h-68zM254 280v-69h68v69h-68zM254 175v-70h68v70h-68zM254 68v-64h68v64h-68zM359 700v-63h69v63h-69zM359 600v-69h69v69h-69zM359 493v-68h69v68h-69zM359 388v-71h69v71h-69zM359 280v-69h69v69h-69zM359 175v-70h69v70h-69zM359 68v-64h69v64
h-69zM464 700v-63h69v63h-69zM464 600v-69h69v69h-69zM464 493v-68h69v68h-69zM464 388v-71h69v71h-69zM464 280v-69h69v69h-69zM464 175v-70h69v70h-69zM464 68v-64h69v64h-69zM569 700v-63h69v63h-69zM569 600v-69h69v69h-69zM569 493v-68h69v68h-69zM569 388v-71h69v71
h-69zM569 280v-69h69v69h-69zM569 175v-70h69v70h-69zM569 68v-64h69v64h-69zM675 700v-63h68v63h-68zM675 600v-69h68v69h-68zM675 493v-68h68v68h-68zM675 388v-71h68v71h-68zM675 280v-69h68v69h-68zM675 175v-70h68v70h-68zM675 68v-64h68v64h-68zM846 637v63h-66v-63
h66zM780 600v-69h66v69h-66zM780 493v-68h66v68h-66zM780 388v-71h66v71h-66zM780 280v-69h66v69h-66zM780 175v-70h66v70h-66zM780 4h66v64h-66v-64z" />
    <glyph glyph-name="glyph126" unicode="&#x25a7;" horiz-adv-x="1066" 
d="M894 -44h-791v785h791v-785zM737 0h82l-664 666v-84zM594 0h88l-527 528v-89zM453 0h86l-384 385v-88zM310 0h87l-242 243v-88zM155 0h100l-100 101v-101zM842 31v85l-579 577h-83zM842 170v87l-436 436h-89zM840 309v89l-297 295h-86zM840 452v87l-154 154h-87zM840 593
v100h-99z" />
    <glyph glyph-name="glyph125" unicode="&#x25a8;" horiz-adv-x="1065" 
d="M896 -30h-792v785h792v-785zM155 129v-84l662 662h-83zM155 271v-87l525 523h-88zM157 412v-89l384 384h-88zM157 553v-87l241 241h-87zM157 707v-100l99 100h-99zM177 14h83l582 582v84zM315 14h87l440 439v89zM457 14h88l297 297v88zM600 14h87l155 155v88zM742 14h100
v101z" />
    <glyph glyph-name="glyph128" unicode="&#x25a9;" horiz-adv-x="1065" 
d="M906 -64h-792v784h792v-784zM168 645v-72l36 36zM168 507v-74l37 36zM168 364v-74l37 36zM168 222v-71l36 36zM168 81v-69l34 34zM186 257l44 -44l44 44l-44 44zM186 115l43 -42l44 44l-43 42zM187 398l45 -44l44 44l-44 45zM187 -21h81l-40 41zM230 582l-42 -42l44 -43
l42 42zM229 635l37 37h-74zM255 47l42 -41l44 44l-42 41zM257 608l43 -44l42 42l-43 44zM258 329l44 -44l44 44l-44 43zM258 187l42 -43l44 44l-42 43zM301 511l-42 -42l45 -44l42 42zM325 -21h85l-42 43zM326 118l41 -42l44 44l-41 42zM369 579l-42 -41l44 -45l42 42z
M328 257l43 -42l44 44l-42 43zM371 442l-42 -42l44 -44l42 42zM369 634l39 38h-78zM438 93l-43 -44l43 -43l44 44zM397 606l43 -44l44 44l-44 44zM438 509l-41 -42l43 -44l42 42zM397 189l41 -41l44 44l-40 42zM442 370l-42 -41l43 -42l41 42zM466 537l44 -44l44 44l-44 44z
M466 120l44 -43l44 44l-44 43zM467 -21h86l-43 43zM510 439l-42 -42l42 -43l42 42zM468 260l42 -41l42 42l-42 41zM510 632l41 40h-82zM535 606l44 -44l44 44l-44 44zM536 465l43 -42l44 44l-43 42zM536 329l41 -42l42 42l-41 41zM579 234l-42 -42l43 -44l42 42zM581 94
l-44 -44l44 -44l44 44zM605 397l42 -41l44 44l-42 41zM647 301l-42 -42l44 -43l42 42zM606 535l43 -42l44 44l-43 42zM650 162l-42 -42l44 -44l42 42zM610 -21h85l-42 43zM651 634l39 38h-78zM674 466l42 -40l44 43l-42 41zM674 329l43 -44l44 44l-43 43zM718 231l-42 -42
l44 -44l42 42zM677 606l43 -42l43 43l-42 43zM721 91l-42 -42l44 -43l41 41zM788 442l-44 -44l42 -44l45 44zM789 301l-44 -44l44 -44l43 44zM746 538l42 -41l42 43l-40 42zM789 159l-42 -42l44 -44l41 42zM752 -20h80l-40 39zM827 672h-73l37 -37zM852 507l-38 -38l38 -36
v74zM852 364l-38 -37l38 -37v74zM852 645l-36 -36l36 -35v71zM852 222l-36 -35l36 -36v71zM852 81l-34 -35l34 -34v69z" />
    <glyph glyph-name="glyph58" unicode="&#x25b2;" horiz-adv-x="1065" 
d="M965 -41h-926l464 802z" />
    <glyph glyph-name="glyph57" unicode="&#x25b3;" horiz-adv-x="1065" 
d="M503 761l462 -802h-926zM503 602l-323 -566h644z" />
    <glyph glyph-name="glyph110" unicode="&#x25b6;" horiz-adv-x="1062" 
d="M928 352l-803 -463v926z" />
    <glyph glyph-name="glyph109" unicode="&#x25b7;" horiz-adv-x="1062" 
d="M928 352l-803 -463v926zM772 352l-558 323v-645z" />
    <glyph glyph-name="glyph60" unicode="&#x25bc;" horiz-adv-x="1066" 
d="M35 761h926l-464 -802z" />
    <glyph glyph-name="glyph59" unicode="&#x25bd;" horiz-adv-x="1066" 
d="M497 -41l-462 802h926zM497 118l323 566h-644z" />
    <glyph glyph-name="glyph108" unicode="&#x25c0;" horiz-adv-x="1069" 
d="M875 831v-926l-803 463z" />
    <glyph glyph-name="glyph107" unicode="&#x25c1;" horiz-adv-x="1069" 
d="M72 368l803 463v-926zM228 368l558 -323v645z" />
    <glyph glyph-name="glyph54" unicode="&#x25c6;" horiz-adv-x="1067" 
d="M944 360l-444 -464l-444 464l444 464z" />
    <glyph glyph-name="glyph53" unicode="&#x25c7;" horiz-adv-x="1067" 
d="M500 824l444 -464l-444 -464l-444 464zM500 715l-340 -355l340 -355l338 355z" />
    <glyph glyph-name="glyph118" unicode="&#x25c8;" horiz-adv-x="1067" 
d="M500 843l469 -491l-469 -490l-469 490zM500 728l-359 -376l359 -375l357 375zM303 351l196 203l195 -203l-195 -203z" />
    <glyph glyph-name="glyph50" unicode="&#x25cb;" horiz-adv-x="1065" 
d="M949 357q0 -124 -59.5 -227t-162.5 -163t-227 -60t-227.5 60t-163 163t-59.5 227q0 92 35.5 175t95.5 143.5t143.5 96t175.5 35.5t175 -36t143 -96t95.5 -143.5t35.5 -174.5zM138 357q0 -101 47 -185.5t130.5 -134t184.5 -49.5t185 49.5t131 134t47 185.5
q0 100 -47 184.5t-131 134t-185 49.5t-184 -49.5t-130.5 -134t-47.5 -184.5z" />
    <glyph glyph-name="glyph52" unicode="&#x25ce;" horiz-adv-x="1067" 
d="M950 359.5q0 -123.5 -59.5 -226.5t-163 -163t-226.5 -60q-126 0 -229.5 60t-162.5 163t-59 226q0 124 59.5 227.5t163 163.5t228.5 60q123 0 226.5 -60t163 -163.5t59.5 -227zM129 359.5q0 -103.5 48.5 -191t134 -138t189 -50.5t189.5 50.5t134.5 138t48.5 191t-48.5 191
t-134.5 138t-189.5 50.5t-189 -50.5t-134 -138t-48.5 -191zM199 359.5q0 127.5 88 215t213.5 87.5t213 -87.5t87.5 -215t-87.5 -214.5t-213.5 -87t-213.5 87t-87.5 214.5zM727 359.5q0 103.5 -63.5 169t-163 65.5t-163 -65.5t-63.5 -169t63.5 -169t163 -65.5t163 65.5
t63.5 169z" />
    <glyph glyph-name="glyph51" unicode="&#x25cf;" horiz-adv-x="1065" 
d="M949 357q0 -124 -59.5 -227t-162.5 -163t-227 -60t-227.5 60t-163 163t-59.5 227q0 92 35.5 175t95.5 143.5t143.5 96t175.5 35.5t175 -36t143 -96t95.5 -143.5t35.5 -174.5z" />
    <glyph glyph-name="glyph120" unicode="&#x25d0;" horiz-adv-x="1067" 
d="M950 359q0 -123 -59.5 -226.5t-163 -163t-226.5 -59.5q-125 0 -228.5 59.5t-163 163t-59.5 226.5q0 92 35.5 175.5t95.5 143.5t143.5 95.5t176.5 35.5q91 0 174.5 -35.5t143.5 -96t95.5 -143.5t35.5 -175zM501 727v-736q101 0 184.5 49.5t131 134t47.5 184.5
q0 101 -47.5 185.5t-131 133.5t-184.5 49z" />
    <glyph glyph-name="glyph121" unicode="&#x25d1;" horiz-adv-x="1067" 
d="M950 359q0 -92 -35.5 -175t-95.5 -143t-143.5 -95.5t-176.5 -35.5q-123 0 -226.5 60t-163 163t-59.5 226q0 93 35.5 176t95.5 143.5t143 96t175.5 35.5t175.5 -36t143.5 -96t96 -143.5t35.5 -175.5zM137 359q0 -100 47.5 -184.5t131 -134t185.5 -49.5v737
q-102 0 -185.5 -49.5t-131 -134t-47.5 -185.5z" />
    <glyph glyph-name="glyph49" unicode="&#x2605;" horiz-adv-x="1064" 
d="M702 285l132 -346l-24 -19l-299 227l-301 -227l-24 18l133 347l-268 197l8 30h330l106 326h32l106 -326h330l8 -30z" />
    <glyph glyph-name="glyph48" unicode="&#x2606;" horiz-adv-x="1064" 
d="M389 512l106 326h32l106 -326h330l8 -30l-269 -197l132 -346l-24 -19l-299 227l-301 -227l-24 18l133 347l-268 197l8 30h330zM441 441l-243 7l208 -135l-108 -248l213 168l213 -173l-112 256l208 136l-237 -7l-72 235z" />
    <glyph glyph-name="glyph131" unicode="&#x260e;" horiz-adv-x="1067" 
d="M898 405l-167 18q-22 2 -22 23q0 41 -4 68q-7 44 -32 44h-36v-113q21 -5 55 -33.5t70 -72.5q94 -117 94 -202l-8 -97q-3 -25 -29 -25h-649q-27 0 -29 26l-8 91q0 91 92 206q76 93 126 107v113h-35q-25 0 -34 -42q-5 -25 -3 -67q2 -23 -21 -26l-171 -18q-14 -1 -20.5 5
t-5.5 21q3 79 35 134q52 88 159 89h479q102 -1 153 -91q34 -56 38 -132q1 -29 -27 -26zM633 232q0 56 -40 96t-97 40q-58 0 -97.5 -39t-39.5 -97q0 -60 39 -99t98 -39q58 0 97.5 40t39.5 98zM554 558h-119v-112h119v112z" />
    <glyph glyph-name="glyph130" unicode="&#x260f;" horiz-adv-x="1065" 
d="M270 654h469q42 0 75.5 -15t54.5 -37t35.5 -52.5t21.5 -59t9 -58.5q0 -16 -6 -21.5t-21 -5.5l-164 18q-26 1 -26 28l-1 49q-1 27 -9 40t-30 13h-15v-109q16 -7 48 -36.5t67.5 -71t61.5 -96.5t26 -103l-7 -89q-3 -33 -30 -33h-646q-16 0 -23 6.5t-9 21.5l-8 89
q0 46 26 101.5t60.5 99t67.5 74.5t49 37v109h-15q-23 0 -30 -15.5t-7 -50.5v-35q0 -27 -23 -29l-176 -18q-11 -1 -17.5 7t-6.5 21q0 37 11 74t33 70.5t62.5 54.5t92.5 22zM764 462l118 -13q-4 66 -41.5 115.5t-99.5 49.5h-474q-37 0 -64.5 -14t-43 -38.5t-24 -51
t-10.5 -57.5l121 12v36q0 40 18 65.5t56 25.5h368q36 0 56 -24t20 -63v-43zM196 129l5 -66h606l8 70q-2 76 -70.5 169.5t-129.5 121.5v129h-27v-143h-169v143h-25v-129q-64 -38 -130 -128.5t-68 -166.5zM358 232q0 62 43 103t106 41q60 0 103.5 -42.5t43.5 -101.5
q0 -62 -43 -104t-104 -42q-64 0 -106.5 41t-42.5 105zM605 232q0 41 -28.5 70.5t-69.5 29.5q-44 0 -72 -28.5t-28 -71.5q0 -44 27.5 -73t72.5 -29q43 0 70.5 29t27.5 73zM540 553h-72v-103h72v103z" />
    <glyph glyph-name="glyph132" unicode="&#x261c;" horiz-adv-x="1067" 
d="M941 111h-100v16h-46q-13 0 -13 14v46q-40 2 -94 -35q-38 -25 -68 -34.5t-77 -9.5q-6 0 -16.5 0.5t-14.5 0.5h-26q-27 0 -54 6q-24 6 -37 24q-21 2 -35 21.5t-14 37.5q0 9 4 16q-12 5 -20 20t-8 30q0 17 9 26q-11 4 -18.5 21t-7.5 29q0 8 3 12h-213q-25 0 -39 17
t-14 40.5t14.5 40t41.5 16.5h292q5 50 88 50h19q109 0 149 -34q38 -34 65 -49.5t59 -15.5h12v39q0 14 14 14h45v14h100v-373zM386 434h-282q-30 0 -30 -26q0 -11 8 -17.5t21 -6.5h261q-1 3 1.5 10t5.5 13t8.5 15t6.5 12zM445 354q-51 -2 -81 -2q-23 0 -23 -18q0 -23 33 -23
q20 0 53 2q44 4 44 23q0 8 -7 13t-19 5zM490 268q0 6 -6 11t-15 5q-55 -4 -85 -4q-15 0 -21 -4t-6 -14q0 -14 8.5 -18.5t27.5 -4.5q33 0 60 4q37 5 37 22v3zM502 199q-1 14 -23 14q-30 -4 -61 -4h-2h-1h-20q-14 0 -14 -14t7.5 -19.5t24.5 -5.5t47 2q23 2 32.5 7t9.5 15v5z
M400 403q-3 -6 -3 -9q0 -9 17 -9q47 0 61 42q4 12 14 12q13 0 14 -25q9 -68 81 -110q10 -7 10 -15q0 -7 -4.5 -11.5t-10.5 -2.5q-28 5 -57 26q13 -47 13 -94q0 -19 -6 -32t-12 -19t-21.5 -9.5t-23.5 -3.5h-28q10 -7 44 -7q13 0 36 1t29 1q44 0 71 14q25 13 63 38
q27 17 46.5 22t48.5 5v168h-9q-47 0 -86 26q-7 6 -30.5 24.5t-37.5 27.5q-36 22 -122 22h-31q-28 0 -36.5 -6t-9.5 -26q-2 -21 -20 -50zM814 158h27v281h-27v-281z" />
    <glyph glyph-name="glyph133" unicode="&#x261e;" horiz-adv-x="1062" 
d="M172 111h-99v373h99v-14h45q14 0 14 -14v-39h13q31 0 58 15.5t65 49.5q40 34 149 34h20q83 0 87 -50h292q27 0 41.5 -16.5t14.5 -40t-14 -40.5t-39 -17h-213q3 -4 3 -12q0 -12 -7.5 -29t-18.5 -21q10 -9 10 -26q0 -15 -8 -30t-21 -20q4 -6 4 -16q0 -18 -14 -37.5
t-35 -21.5q-12 -18 -37 -24q-26 -6 -54 -6h-25q-4 0 -15 -0.5t-17 -0.5q-47 0 -77 9.5t-68 34.5q-54 37 -94 35v-46q0 -14 -13 -14h-46v-16zM172 158h28v281h-28v-281zM613 403q-18 29 -19 50q-2 20 -10 26t-36 6h-32q-86 0 -121 -22q-15 -9 -38 -27.5t-31 -24.5
q-39 -26 -85 -26h-10v-168q29 0 49 -5t46 -22q38 -25 64 -38q27 -14 70 -14q7 0 29.5 -1t35.5 -1q34 0 44 7h-27.5t-23 3.5t-22 9.5t-12.5 19t-6 32q0 47 14 94q-30 -21 -58 -26q-6 -2 -10.5 2.5t-4.5 11.5q0 8 10 15q72 42 81 110q2 25 14 25q11 0 15 -12q14 -42 61 -42
q16 0 16 9q0 3 -3 9zM511 199v-5q0 -10 10 -15t32 -7q30 -2 48 -2q16 0 23.5 5.5t7.5 19.5t-14 14h-19h-4q-30 0 -61 4q-21 0 -23 -14zM523 268v-3q0 -17 37 -22q27 -4 60 -4q19 0 27.5 4.5t8.5 18.5q0 10 -6 14t-21 4q-29 0 -84 4q-10 0 -16 -5t-6 -11zM568 354
q-12 0 -18.5 -5t-6.5 -13q0 -19 44 -23q32 -2 53 -2q32 0 32 23q0 9 -4.5 13.5t-17.5 4.5q-31 0 -82 2zM909 434h-282q2 -3 7 -12t8 -15t6 -13t2 -10h260q14 0 22 6.5t8 17.5q0 26 -31 26z" />
    <glyph glyph-name="glyph38" unicode="&#x2640;" horiz-adv-x="1066" 
d="M211 530q0 119 83 201.5t202 82.5q120 0 202.5 -82.5t82.5 -201.5q0 -108 -70 -188t-170 -94v-115h135v-81h-135v-148h-91v148h-133v81h133v115q-102 15 -170.5 94.5t-68.5 187.5zM307 530q0 -83 54.5 -141.5t135 -58.5t134.5 58.5t54 141.5q0 84 -54 142t-134.5 58
t-135 -58t-54.5 -142z" />
    <glyph glyph-name="glyph37" unicode="&#x2642;" horiz-adv-x="1067" 
d="M218 452l282 379l282 -379l-68 -50l-169 237v-253q90 -15 147.5 -83.5t57.5 -162.5q0 -103 -73 -174.5t-177 -71.5q-105 0 -177.5 71.5t-72.5 174.5q0 94 57.5 162.5t147.5 83.5v253l-169 -236zM346 140q0 -69 43.5 -115.5t110.5 -46.5t110.5 46.5t43.5 115.5
q0 70 -43.5 117.5t-110.5 47.5t-110.5 -47.5t-43.5 -117.5z" />
    <glyph glyph-name="glyph112" unicode="&#x2660;" horiz-adv-x="1065" 
d="M932 348q0 -88 -63 -141q-50 -43 -138 -45q-53 -1 -100 20.5t-77 59.5q10 -84 58.5 -149.5t126.5 -83.5v-57h-482v57q77 16 126.5 83t58.5 148q-26 -36 -74 -57.5t-101 -20.5q-91 2 -141 45q-59 51 -59 141q0 113 141 236q89 80 292 200q193 -113 290 -199
q142 -126 142 -237z" />
    <glyph glyph-name="glyph113" unicode="&#x2661;" horiz-adv-x="1065" 
d="M936 524q0 -150 -135 -307q-59 -70 -138 -133.5t-160 -107.5q-180 96 -300 239q-133 158 -133 309q0 110 63 168q52 51 138 51q75 0 140 -52q66 -53 92 -135q24 83 90 135q65 52 143 52q87 0 140 -51q60 -58 60 -168zM538 468h-72q-7 40 -30.5 83.5t-51.5 72.5
q-46 47 -107 47q-55 0 -87.5 -40.5t-32.5 -117.5q0 -59 28.5 -124t80.5 -127q99 -121 237 -198q136 75 236 199q110 139 110 250q0 78 -30.5 118t-88.5 40h-1q-65 0 -111 -46q-28 -28 -50.5 -72t-29.5 -85z" />
    <glyph glyph-name="glyph116" unicode="&#x2663;" horiz-adv-x="1066" 
d="M739 10v-57h-483v57q88 20 144 94t69 181h58q12 -109 67 -180.5t145 -94.5zM934 296q0 -76 -52 -129t-129.5 -53t-129.5 52.5t-52 129.5q0 75 52 128t129 53q76 0 129 -53.5t53 -127.5zM427 296q0 -76 -52.5 -129t-130 -53t-129.5 52.5t-52 129.5q0 75 52.5 128t129.5 53
q76 0 129 -53.5t53 -127.5zM316 602q0 75 53.5 128t128.5 53t128.5 -53t53.5 -128t-53.5 -128.5t-128.5 -53.5t-128.5 53.5t-53.5 128.5z" />
    <glyph glyph-name="glyph111" unicode="&#x2664;" horiz-adv-x="1065" 
d="M479 388h42q3 -30 22 -60t49 -53q29 -21 63.5 -33t64.5 -12q67 0 99 34t32 95q0 83 -121 188q-97 85 -230 162q-145 -84 -233 -163q-117 -106 -117 -187q0 -63 29 -96t99 -33q25 -1 60.5 11t64.5 32q31 23 52.5 54t23.5 61zM67 348q0 113 141 236q89 80 292 200
q193 -113 290 -199q142 -126 142 -237q0 -88 -63 -141q-50 -43 -138 -45q-53 -1 -100 20.5t-77 59.5q9 -84 58 -149.5t127 -83.5v-57h-482v57q77 16 126.5 83t58.5 148q-26 -36 -74 -57.5t-101 -20.5q-91 2 -141 45q-59 51 -59 141zM620 8v4q-109 72 -119 285h-4
q-14 -216 -120 -285v-4h243z" />
    <glyph glyph-name="glyph114" unicode="&#x2665;" horiz-adv-x="1065" 
d="M936 524q0 -150 -135 -307q-59 -70 -138 -133.5t-160 -107.5q-180 96 -300 239q-133 158 -133 309q0 110 63 168q52 51 138 51q75 0 140 -52q66 -53 92 -135q24 83 90 135q65 52 143 52q87 0 140 -51q60 -58 60 -168z" />
    <glyph glyph-name="glyph115" unicode="&#x2667;" horiz-adv-x="1066" 
d="M427 296q0 -76 -52.5 -129t-130 -53t-129.5 52.5t-52 129.5q0 75 52.5 128t129.5 53q76 0 129 -53.5t53 -127.5zM356 296q0 51 -31.5 83.5t-79.5 32.5q-50 0 -80.5 -32.5t-30.5 -83.5q0 -53 30.5 -85.5t80.5 -32.5q49 0 80 32.5t31 85.5zM739 10v-57h-483v57
q88 20 144 94t69 181h58q12 -109 67 -180.5t145 -94.5zM680 602q0 -76 -52.5 -129t-130 -53t-129.5 52.5t-52 129.5q0 76 52.5 128.5t129.5 52.5q76 0 129 -53t53 -128zM619 9v3q-45 20 -79 68t-41 102h-3q-8 -53 -42.5 -102t-76.5 -68v-3h242zM609 602q0 51 -31.5 83.5
t-79.5 32.5q-50 0 -80.5 -32.5t-30.5 -83.5q0 -53 30.5 -85.5t80.5 -32.5q49 0 80 32.5t31 85.5zM934 296q0 -76 -52 -129t-129.5 -53t-129.5 52.5t-52 129.5q0 75 52 128t129 53q76 0 129 -53.5t53 -127.5zM863 296q0 51 -31 83.5t-80 32.5t-80 -32.5t-31 -83.5
q0 -53 30.5 -85.5t80.5 -32.5q49 0 80 32.5t31 85.5z" />
    <glyph glyph-name="glyph129" unicode="&#x2668;" horiz-adv-x="1064" 
d="M272 270q13 1 15 -12t-11 -16q-49 -10 -76.5 -35t-27.5 -60q0 -25 30.5 -45.5t81.5 -32.5t110.5 -18.5t123.5 -6.5q84 0 160.5 12t130 37.5t53.5 59.5q0 30 -25 51.5t-63 28.5q-14 3 -11 16t15 12q77 -7 122 -43.5t45 -83.5q0 -44 -38 -80t-100.5 -58.5t-137 -35
t-151.5 -12.5q-78 0 -153 11.5t-137.5 33t-101 57t-37.5 79.5q1 57 47 95t136 46zM416 308q0 -55 -26 -105t-62 -82q-22 -19 -37 -6q-9 9 -1 22q44 74 40 149q-3 38 -31 102q-26 57 -28 109q-6 104 91 199q12 11 25 10.5t16.5 -10.5t-5.5 -25q-43 -61 -40 -153
q3 -59 28 -109q30 -68 30 -101zM580 308q0 -52 -26 -105.5t-67 -89.5q-15 -14 -30 -3.5t-6 26.5q39 60 41 151q1 49 -30 134q-29 87 -28 138q1 49 30 101q31 52 75 92q15 14 29.5 3t2.5 -28q-47 -63 -48 -149q-1 -46 27 -136q30 -93 30 -134zM743 308q0 -55 -26.5 -105
t-62.5 -82q-21 -19 -36 -6q-10 9 -1 22q44 74 39 149q-2 38 -30 102q-26 57 -29 109q-5 104 92 199q12 11 25 10.5t16.5 -10.5t-5.5 -25q-43 -61 -40 -153q3 -59 27 -109q31 -68 31 -101z" />
    <glyph glyph-name="glyph146" unicode="&#x2669;" horiz-adv-x="1072" 
d="M555 118v721h62v-760q0 -87 -65 -142.5t-162 -55.5q-44 0 -73 23.5t-29 64.5q0 63 64 111t138 48q38 0 65 -10z" />
    <glyph glyph-name="glyph147" unicode="&#x266a;" horiz-adv-x="1064" 
d="M486 118v721h45q0 -38 9 -69.5t29 -58t41 -46t55 -45.5q69 -53 107.5 -111.5t38.5 -134.5q0 -123 -97 -269h-30q70 119 70 230q0 88 -58 153t-147 94v-503q0 -87 -65 -142.5t-162 -55.5q-44 0 -73.5 23.5t-29.5 64.5q0 63 64.5 111t138.5 48q37 0 64 -10z" />
    <glyph glyph-name="glyph148" unicode="&#x266c;" horiz-adv-x="1069" 
d="M916 837v-644q0 -86 -64.5 -141.5t-160.5 -55.5q-44 0 -72.5 23.5t-28.5 64.5q0 62 63.5 110t138.5 48q39 0 62 -9v297l-484 -87v-365q0 -85 -64 -140.5t-161 -55.5q-44 0 -72.5 23t-28.5 64q0 62 63.5 110t138.5 48q39 0 62 -9v585zM854 630v91l-484 -109v-92z" />
    <glyph glyph-name="glyph142" unicode="&#x266d;" horiz-adv-x="1064" 
d="M381 803v-510q24 46 66 73.5t98 27.5q66 0 107.5 -48t41.5 -125q0 -84 -52.5 -155t-138.5 -111t-183 -39v887h61zM381 138v-163q85 6 151.5 77t66.5 154q0 123 -81 123q-55 0 -96 -56t-41 -135z" />
    <glyph glyph-name="glyph0" unicode="&#x3001;" horiz-adv-x="1072" 
d="M594 56l-72 -68q-104 131 -222 231l64 63q55 -43 117.5 -105.5t112.5 -120.5z" />
    <glyph glyph-name="glyph1" unicode="&#x3002;" horiz-adv-x="1065" 
d="M501 231q65 0 111 -46t46 -111.5t-46 -111.5t-111 -46t-111 46t-46 111.5t46 111.5t111 46zM501.5 -1q30.5 0 52 22t22 52.5t-21.5 52.5t-52.5 22t-52.5 -22t-22 -52.5t22 -52.5t52.5 -22z" />
    <glyph glyph-name="glyph6" unicode="&#x3003;" horiz-adv-x="1065" 
d="M389 582l101 -40l-199 -469l-69 27zM677 578l101 -40l-199 -470l-69 28z" />
    <glyph glyph-name="glyph11" unicode="&#x3008;" horiz-adv-x="1064" 
d="M407 360l309 -479h-100l-308 479l308 479h100z" />
    <glyph glyph-name="glyph12" unicode="&#x3009;" horiz-adv-x="1060" 
d="M339 839h100l308 -479l-308 -479h-100l309 479z" />
    <glyph glyph-name="glyph13" unicode="&#x300a;" horiz-adv-x="1067" 
d="M335 359l221 -478l-75 -1l-223 479l223 480l75 -2zM496 359l222 -478l-76 -2l-223 480l223 479l76 -1z" />
    <glyph glyph-name="glyph14" unicode="&#x300b;" horiz-adv-x="1067" 
d="M424 837l76 2l223 -480l-223 -479l-76 1l222 478zM263 837l75 1l224 -479l-224 -480l-75 2l221 478z" />
    <glyph glyph-name="glyph15" unicode="&#x300c;" horiz-adv-x="1064" 
d="M346 164v650h333v-81h-242v-569h-91z" />
    <glyph glyph-name="glyph16" unicode="&#x300d;" horiz-adv-x="1069" 
d="M643 598v-650h-333v80h242v570h91z" />
    <glyph glyph-name="glyph17" unicode="&#x300e;" horiz-adv-x="1064" 
d="M699 660h-198v-505h-176v667h374v-162zM655 781h-286v-585h88v504h198v81z" />
    <glyph glyph-name="glyph18" unicode="&#x300f;" horiz-adv-x="1060" 
d="M352 59h197v505h178v-666h-375v161zM396 -62h287v585h-90v-505h-197v-80z" />
    <glyph glyph-name="glyph19" unicode="&#x3010;" horiz-adv-x="1060" 
d="M386 836h311v-3q-90 -83 -146 -205.5t-56 -267.5q0 -149 56 -271.5t146 -201.5v-3h-311v952z" />
    <glyph glyph-name="glyph20" unicode="&#x3011;" horiz-adv-x="1066" 
d="M651 836v-952h-311v3q91 79 146.5 201.5t55.5 271.5q0 145 -55.5 267.5t-146.5 205.5v3h311z" />
    <glyph glyph-name="glyph66" unicode="&#x3013;" horiz-adv-x="1065" 
d="M509 303h240v-93h-498v93h258zM749 417h-498v93h498v-93z" />
    <glyph glyph-name="glyph9" unicode="&#x3014;" horiz-adv-x="1067" 
d="M458 38l138 -81v-86l-220 133v710l220 133v-88l-138 -83v-638z" />
    <glyph glyph-name="glyph10" unicode="&#x3015;" horiz-adv-x="1070" 
d="M353 848l220 -133v-710l-220 -133v86l138 82v637l-138 83v88z" />
    <glyph glyph-name="glyph586" unicode="&#x3041;" horiz-adv-x="1067" 
d="M360 322q-1 19 -1 55v58h-167v83h167v91h100v-91h315v-83h-315v-84q36 7 74 7h1q17 0 24 -1l8 36l100 -19q-3 -16 -8 -31q85 -24 134 -79.5t49 -132.5q0 -55 -24.5 -99.5t-68 -73t-98 -45t-119.5 -20.5l-26 87q110 7 173 44.5t63 105.5q0 44 -28.5 78t-80.5 52
q-57 -162 -147.5 -249t-186.5 -87q-61 0 -100 40t-39 105q0 84 56 150t145 103zM392 41q-20 76 -28 187q-49 -28 -77 -68.5t-28 -86.5q0 -31 13 -48t38 -17q39 0 82 33zM461 266q3 -76 10 -132q36 58 63 140q-34 0 -73 -8z" />
    <glyph glyph-name="glyph587" unicode="&#x3042;" horiz-adv-x="1065" 
d="M342 448v142h-204v85h204v107h102v-107h378v-85h-378v-113q48 10 96 10q27 0 40 -1l9 39l100 -19q-3 -13 -9 -38q102 -29 162 -96t60 -158q0 -64 -29 -115.5t-80.5 -84t-116 -51.5t-140.5 -25l-26 90q63 4 114 16.5t91.5 34.5t62.5 57t22 80q0 64 -38.5 107t-105.5 63
q-66 -198 -172.5 -304t-220.5 -106q-73 0 -119 47t-46 124q0 100 68.5 179t175.5 122zM378 108q-24 99 -33 246q-65 -34 -104.5 -85.5t-39.5 -116.5q0 -43 17.5 -66.5t51.5 -23.5q51 0 108 46zM446 390q3 -97 15 -188q55 83 95 199h-15q-43 0 -95 -11z" />
    <glyph glyph-name="glyph588" unicode="&#x3043;" horiz-adv-x="1067" 
d="M412 160l94 -33q-16 -121 -54.5 -174t-97.5 -53q-79 0 -131.5 96t-52.5 276q0 145 20 252h101q-21 -110 -21 -250q0 -75 8 -133t20.5 -91t26.5 -49.5t29 -16.5q43 0 58 176zM830 58l-101 -14q-1 196 -118 430l97 26q59 -120 90 -222.5t32 -219.5z" />
    <glyph glyph-name="glyph589" unicode="&#x3044;" horiz-adv-x="1067" 
d="M403 292l96 -37q-37 -262 -175 -262q-93 0 -153 112.5t-60 325.5q0 169 24 296h103q-25 -123 -25 -294q0 -92 10.5 -163.5t28 -111.5t36.5 -60t38 -20q55 0 77 214zM889 181l-101 -17q0 239 -142 509l99 27q69 -138 106.5 -262t37.5 -257z" />
    <glyph glyph-name="glyph590" unicode="&#x3045;" horiz-adv-x="1066" 
d="M371 -107l-39 83q103 11 180.5 39.5t125 77.5t47.5 112q0 60 -33.5 91t-95.5 31q-133 0 -317 -73l-26 84q200 72 345 72q110 0 168.5 -51.5t58.5 -153.5q0 -59 -25 -108.5t-65 -83t-95.5 -58.5t-111 -39.5t-117.5 -22.5zM707 545l-17 -79q-182 17 -369 56l14 82
q172 -35 372 -59z" />
    <glyph glyph-name="glyph591" unicode="&#x3046;" horiz-adv-x="1067" 
d="M350 -60l-42 88q122 13 216 47.5t152 95t58 137.5q0 76 -43.5 116t-122.5 40q-171 0 -378 -85l-26 86q97 38 204.5 61t201.5 23q130 0 198 -61t68 -179q0 -69 -29.5 -127.5t-76.5 -98t-112 -70t-130.5 -47t-137.5 -26.5zM743 712l-19 -84q-239 26 -429 66l12 86
q198 -39 436 -68z" />
    <glyph glyph-name="glyph592" unicode="&#x3047;" horiz-adv-x="1067" 
d="M642 87l3 -37q3 -40 20 -54.5t64 -14.5q52 0 103 13l5 -84q-48 -12 -118 -12q-88 0 -128 30t-46 103l-3 37q-4 52 -43 52q-21 0 -41.5 -13.5t-62.5 -53.5q-70 -70 -155 -160l-77 66q213 216 386 369h-328v84h468v-76q-80 -72 -153 -144q6 1 13 2q83 0 93 -107zM303 529
q8 53 13 80q199 -35 342 -47q-1 -24 -5 -80q-191 9 -350 47z" />
    <glyph glyph-name="glyph593" unicode="&#x3048;" horiz-adv-x="1067" 
d="M665 146l2 -22q6 -59 27 -77.5t76 -18.5q64 0 119 15l6 -88q-56 -13 -136 -13q-95 0 -139.5 35t-53.5 130l-2 21q-5 46 -19.5 64.5t-43.5 18.5q-31 0 -59.5 -18t-72.5 -64q-94 -95 -186 -192l-78 65q283 295 467 459h-404v86h551v-80q-111 -99 -205 -194q26 10 54 10
q84 0 97 -137zM267 697l15 86q239 -44 398 -56l-4 -85q-224 13 -409 55z" />
    <glyph glyph-name="glyph594" unicode="&#x3049;" horiz-adv-x="1065" 
d="M538 308q114 -1 182 -53.5t68 -139.5q0 -48 -20 -87t-56.5 -65.5t-82.5 -43.5t-104 -26l-29 85q79 9 135.5 44.5t56.5 88.5q0 54 -40 83.5t-112 29.5q-55 0 -108 -11v-191q0 -67 -30 -97.5t-91 -30.5q-74 0 -122 42t-48 113q0 66 51.5 126t139.5 95v136h-157v84h157v117
h100v-117h161v-84h-161v-107q54 9 108 9h2zM328 175q-91 -51 -91 -126q0 -34 17.5 -52.5t44.5 -18.5q16 0 22.5 10t6.5 40v147zM863 392l-64 -63q-81 92 -192 162l55 63q119 -75 201 -162z" />
    <glyph glyph-name="glyph595" unicode="&#x304a;" horiz-adv-x="1066" 
d="M548 424q138 0 216.5 -64.5t78.5 -167.5q0 -55 -23 -99t-65 -74.5t-96.5 -50t-122.5 -30.5l-31 88q46 5 86.5 17.5t75 32t54.5 49t20 66.5q0 68 -50.5 108t-146.5 40q-71 0 -140 -17v-236q0 -79 -30.5 -113.5t-99.5 -34.5q-82 0 -141.5 52.5t-59.5 135.5q0 72 61.5 142.5
t167.5 111.5v174h-188v86h188v142h102v-142h199v-86h-199v-144q68 14 144 14zM302 283q-59 -31 -93 -73t-34 -84q0 -44 26 -72.5t65 -28.5q20 0 28 14.5t8 52.5v191zM927 526l-67 -66q-92 105 -223 188l58 67q137 -86 232 -189z" />
    <glyph glyph-name="glyph596" unicode="&#x304b;" horiz-adv-x="1065" 
d="M81 585h189q13 86 19 188h102q-6 -97 -18 -188h66q120 0 170.5 -44t50.5 -142q0 -177 -21 -275.5t-62.5 -137.5t-113.5 -39q-71 0 -136 19l4 87q69 -21 123 -21q36 0 57 25.5t34 107t13 230.5q0 59 -27.5 81.5t-106.5 22.5h-65q-56 -310 -197 -551l-96 38
q136 228 190 513h-175v86zM934 293l-97 -34q-39 202 -154 363l87 42q115 -166 164 -371z" />
    <glyph glyph-name="glyph597" unicode="&#x304c;" horiz-adv-x="1067" 
d="M69 563h189q13 87 20 189h102q-7 -98 -19 -189h67q119 0 169.5 -44t50.5 -142q0 -176 -21 -275t-62 -138t-114 -39q-71 0 -136 20l4 86q69 -20 123 -20q36 0 57 25.5t34 106.5t13 230q0 59 -27.5 81.5t-106.5 22.5h-65q-56 -309 -197 -551l-96 39q136 227 190 512h-175
v86zM662 552l88 40q90 -147 131 -321l-97 -33q-34 171 -122 314zM697 734l60 24q52 -67 80 -142l-62 -22q-28 73 -78 140zM806 770l60 25q52 -68 80 -142l-62 -23q-28 74 -78 140z" />
    <glyph glyph-name="glyph598" unicode="&#x304d;" horiz-adv-x="1067" 
d="M411 773l102 11q10 -56 24 -115q125 4 226 20l8 -87q-90 -13 -209 -18q17 -55 36 -104q122 8 241 29l11 -84q-97 -18 -214 -28q53 -106 119 -177l-85 -59q-78 83 -144 228q-109 -5 -193 -5h-183v86h184q78 0 157 3q-21 57 -35 107q-42 -2 -122 -2h-178v86h180q63 0 96 1
q-13 56 -21 108zM269 303l59 -62q-69 -46 -69 -110q0 -53 53 -81t160 -28q186 0 291 31v-86q-136 -31 -283 -31q-158 0 -240.5 47t-82.5 141q0 56 30.5 102.5t81.5 76.5z" />
    <glyph glyph-name="glyph599" unicode="&#x304e;" horiz-adv-x="1067" 
d="M347 755l102 11q10 -56 24 -115q108 4 203 17l8 -87q-83 -10 -186 -15q17 -55 37 -104q121 9 241 30l10 -85q-97 -18 -214 -28q54 -106 119 -177l-85 -58q-77 82 -144 227q-109 -5 -193 -5h-182v86h183q78 0 158 3q-22 57 -36 107q-42 -2 -122 -2h-178v86h180q64 0 96 1
q-12 55 -21 108zM205 285l59 -62q-69 -45 -69 -110q0 -52 53.5 -80.5t159.5 -28.5q186 0 291 31v-86q-136 -31 -283 -31q-158 0 -240.5 47t-82.5 141q0 56 30.5 102.5t81.5 76.5zM664 741l61 24q51 -67 79 -142l-62 -22q-27 73 -78 140zM774 777l60 25q52 -68 79 -142
l-62 -22q-27 73 -77 139z" />
    <glyph glyph-name="glyph600" unicode="&#x304f;" horiz-adv-x="1067" 
d="M758 -3l-74 -71q-139 164 -371 346q-40 31 -55.5 53.5t-15.5 53.5q0 29 23.5 59t75.5 67q204 141 344 289l73 -72q-123 -118 -366 -289q-48 -34 -48 -54q0 -13 14.5 -27.5t62.5 -52.5q194 -151 337 -302z" />
    <glyph glyph-name="glyph601" unicode="&#x3050;" horiz-adv-x="1067" 
d="M694 -3l-74 -71q-139 164 -371 346q-40 31 -55 53.5t-15 53.5q0 29 23 59t76 67q203 141 343 289l73 -72q-123 -118 -365 -289q-48 -34 -48 -54q0 -13 14 -27.5t62 -52.5q194 -151 337 -302zM575 529l60 23q50 -66 78 -140l-61 -23q-28 70 -77 140zM683 567l60 23
q51 -66 78 -141l-61 -22q-27 70 -77 140z" />
    <glyph glyph-name="glyph602" unicode="&#x3051;" horiz-adv-x="1065" 
d="M152 782h102q-38 -156 -46.5 -385.5t15.5 -450.5h-102q-24 221 -15.5 450.5t46.5 385.5zM897 587v-86h-157v-201q0 -126 -53.5 -214t-166.5 -148l-69 77q187 98 187 287v199h-326v86h326v195h102v-195h157z" />
    <glyph glyph-name="glyph603" unicode="&#x3052;" horiz-adv-x="1065" 
d="M796 779zM796 779l60 24q52 -67 80 -141l-63 -23q-27 73 -77 140zM113 761h102q-38 -157 -46.5 -386t16.5 -450h-103q-24 221 -15.5 450t46.5 386zM838 566v-86h-157v-201q0 -127 -54 -214.5t-166 -147.5l-69 76q186 98 186 288v199h-315v86h315v195h103v-195h157z
M697 742l60 25q52 -68 80 -142l-63 -23q-27 74 -77 140z" />
    <glyph glyph-name="glyph604" unicode="&#x3053;" horiz-adv-x="1065" 
d="M842 119l6 -87q-137 -31 -329 -31q-136 0 -218 21.5t-115 61.5t-33 104q0 88 85 187l79 -46q-62 -70 -62 -139q0 -33 21.5 -54.5t81.5 -35t161 -13.5q176 0 323 32zM791 719v-86h-589v86h589z" />
    <glyph glyph-name="glyph605" unicode="&#x3054;" horiz-adv-x="1067" 
d="M769 49l5 -87q-137 -30 -329 -30q-136 0 -217.5 21.5t-115 61.5t-33.5 104q0 88 86 186l78 -46q-62 -70 -62 -138q0 -34 22 -55.5t82 -34.5t160 -13q176 -1 324 31zM687 649v-85h-558v85h558zM672 727l60 24q52 -67 80 -141l-62 -23q-28 73 -78 140zM781 764l60 24
q52 -67 80 -142l-62 -22q-27 73 -78 140z" />
    <glyph glyph-name="glyph606" unicode="&#x3055;" horiz-adv-x="1066" 
d="M418 769l101 15q13 -93 38 -183q166 12 281 34l10 -86q-131 -23 -264 -32q62 -168 165 -273l-84 -58q-114 119 -186 325q-72 -3 -143 -3h-187v86h188q38 0 115 2q-21 78 -34 173zM272 323l62 -65q-70 -46 -70 -118q0 -59 51 -88.5t168 -29.5q71 0 150.5 9t132.5 23v-87
q-124 -31 -281 -31q-323 0 -323 198q0 121 110 189z" />
    <glyph glyph-name="glyph607" unicode="&#x3056;" horiz-adv-x="1065" 
d="M356 751l101 14q14 -92 38 -183q167 13 282 34l10 -86q-132 -23 -265 -31q62 -169 166 -274l-85 -57q-114 119 -186 325q-72 -3 -143 -3h-186v85h187q38 0 116 2q-22 79 -35 174zM210 305l62 -65q-70 -46 -70 -119q0 -58 51.5 -87.5t167.5 -29.5q71 0 150.5 9t132.5 22
v-86q-124 -31 -281 -31q-323 0 -323 198q0 121 110 189zM797 639l-62 -23q-29 68 -72 125l61 24q43 -55 73 -126zM773 777l60 25q52 -68 79 -142l-62 -22q-27 73 -77 139z" />
    <glyph glyph-name="glyph608" unicode="&#x3057;" horiz-adv-x="1065" 
d="M735 334l101 -15q-12 -85 -41 -152.5t-76 -119t-117 -79.5t-159 -28q-140 0 -209.5 74.5t-69.5 208.5v557h102v-558q0 -196 177 -196q120 0 195.5 78.5t96.5 229.5z" />
    <glyph glyph-name="glyph609" unicode="&#x3058;" horiz-adv-x="1067" 
d="M735 334l101 -15q-12 -85 -41 -152.5t-76 -119t-117 -79.5t-159 -28q-140 0 -209.5 74.5t-69.5 208.5v557h102v-558q0 -196 177 -196q120 0 195.5 78.5t96.5 229.5zM657 527l-62 -25q-29 80 -94 164l57 29q63 -75 99 -168zM776 565l-61 -25q-30 80 -95 163l57 30
q63 -76 99 -168z" />
    <glyph glyph-name="glyph610" unicode="&#x3059;" horiz-adv-x="1067" 
d="M678 256q0 -137 -81 -218t-261 -105l-38 88q124 13 194.5 58t81.5 119q-17 -24 -52 -39t-75 -15q-83 0 -139.5 53.5t-56.5 133.5q0 81 56.5 134.5t140.5 53.5q58 0 89 -27v96h-437v86h437v113h104v-113h259v-86h-259v-176q37 -61 37 -156zM354 331q0 -44 28.5 -72.5
t72 -28.5t72.5 28.5t29 72.5q0 45 -29 73.5t-72.5 28.5t-72 -28.5t-28.5 -73.5z" />
    <glyph glyph-name="glyph611" unicode="&#x305a;" horiz-adv-x="1067" 
d="M663 256q0 -137 -81.5 -218t-260.5 -105l-38 88q123 13 194 58t82 119q-17 -24 -52 -39t-75 -15q-84 0 -140 53.5t-56 133.5q0 81 56.5 134.5t140.5 53.5q58 0 89 -27v96h-437v86h437v113h104v-113h258v-86h-258v-176q37 -61 37 -156zM338 331q0 -44 29 -72.5t72.5 -28.5
t72 28.5t28.5 72.5q0 45 -28.5 73.5t-72 28.5t-72.5 -28.5t-29 -73.5zM666 479l60 24q52 -67 80 -141l-63 -23q-27 73 -77 140zM775 516l60 24q52 -67 80 -142l-62 -22q-28 73 -78 140z" />
    <glyph glyph-name="glyph612" unicode="&#x305b;" horiz-adv-x="1065" 
d="M340 451v-249q0 -69 19 -103t67.5 -49t144.5 -15q138 0 265 20v-87q-112 -18 -269 -18q-96 0 -157.5 11.5t-101 41t-55 75.5t-15.5 119v254h-179v86h179v211h102v-211h312v233h102v-233h187v-86h-187v-139q0 -76 -34 -110.5t-107 -34.5q-61 0 -114 11v85q46 -11 99 -11
q30 0 42 15t12 57v127h-312z" />
    <glyph glyph-name="glyph613" unicode="&#x305c;" horiz-adv-x="1065" 
d="M308 429v-249q0 -68 18.5 -102.5t67 -49t145.5 -14.5q138 0 265 19v-87q-112 -18 -269 -18q-97 0 -158 11.5t-100.5 41t-55 75.5t-15.5 119v254h-179v86h179v211h102v-211h312v233h102v-233h187v-86h-187v-139q0 -76 -34.5 -110.5t-106.5 -34.5q-61 0 -114 11v85
q46 -11 99 -11q30 0 42 15t12 57v127h-312zM746 748l63 18q46 -78 63 -148l-62 -18q-19 72 -64 148zM848 775l62 17q46 -77 63 -148l-62 -17q-19 71 -63 148z" />
    <glyph glyph-name="glyph614" unicode="&#x305d;" horiz-adv-x="1067" 
d="M115 339l-9 85q77 12 156 18q92 55 182 120.5t152 122.5h-372v85h519v-81q-144 -132 -316 -234q195 14 458 21l9 -85q-50 0 -160 -7q-121 -5 -207 -74.5t-86 -147.5q0 -44 28 -71t95.5 -41t183.5 -14l-8 -86q-147 0 -236.5 23.5t-127 67.5t-37.5 114q0 68 46 126.5
t125 92.5q-219 -13 -395 -35z" />
    <glyph glyph-name="glyph615" unicode="&#x305e;" horiz-adv-x="1065" 
d="M92 339l-9 85q76 12 156 18q92 55 182 120.5t151 122.5h-371v85h518v-81q-144 -132 -316 -234q195 14 458 21l9 -85q-50 0 -160 -7q-121 -5 -207 -74.5t-86 -147.5q0 -44 28 -71t96 -41t184 -14l-9 -86q-147 0 -236.5 23.5t-127 67.5t-37.5 114q0 68 46.5 126.5
t125.5 92.5q-220 -13 -395 -35zM816 512l-61 -22q-26 69 -75 135l60 24q52 -66 76 -137zM917 551l-61 -23q-26 70 -75 136l60 24q52 -67 76 -137z" />
    <glyph glyph-name="glyph616" unicode="&#x305f;" horiz-adv-x="1067" 
d="M81 651h176q7 66 12 132h102q-5 -65 -12 -132h195v-86h-206q-50 -372 -160 -628l-99 30q107 247 157 598h-165v86zM919 55v-88q-108 -19 -228 -19q-157 0 -227 43t-70 131q0 39 18.5 78.5t51.5 68.5l77 -52q-18 -17 -31.5 -43t-13.5 -48q0 -49 43 -71t149 -22
q119 0 231 22zM487 372l-7 86q117 23 236 23h159v-85h-156q-113 0 -232 -24z" />
    <glyph glyph-name="glyph617" unicode="&#x3060;" horiz-adv-x="1067" 
d="M81 640h176q7 66 12 131h102q-5 -64 -12 -131h195v-86h-206q-50 -372 -160 -628l-99 30q107 247 157 598h-165v86zM919 44v-88q-108 -20 -228 -20q-157 0 -227 43t-70 132q0 38 18.5 78t51.5 69l77 -52q-18 -18 -31.5 -44t-13.5 -47q0 -49 43 -71t149 -22q119 0 231 22z
M487 361l-7 86q117 23 236 23h159v-86h-156q-113 0 -232 -23zM646 733l61 24q52 -68 79 -142l-62 -22q-27 73 -78 140zM756 769l60 25q52 -68 79 -142l-62 -23q-27 74 -77 140z" />
    <glyph glyph-name="glyph618" unicode="&#x3061;" horiz-adv-x="1067" 
d="M371 774h102q-9 -66 -21 -130h441v-86h-459q-29 -118 -78 -226q42 43 103.5 67.5t132.5 24.5q122 0 192.5 -59t70.5 -161q0 -120 -91.5 -189t-275.5 -69q-128 0 -230 20v88q98 -23 222 -23q134 0 203.5 42.5t69.5 125.5q0 64 -45.5 102t-134.5 38q-78 0 -148.5 -36
t-122.5 -97l-89 36q78 158 119 316h-225v86h244q14 72 20 130z" />
    <glyph glyph-name="glyph619" unicode="&#x3062;" horiz-adv-x="1065" 
d="M322 753h102q-9 -66 -21 -131h334v-85h-352q-29 -119 -78 -226q42 42 103.5 67t132.5 25q121 0 192 -59.5t71 -161.5q0 -120 -91.5 -189t-275.5 -69q-128 0 -230 21v87q98 -22 222 -22q134 0 203.5 42.5t69.5 124.5q0 65 -46 102.5t-134 37.5q-78 0 -148.5 -35.5
t-122.5 -97.5l-89 36q78 159 119 317h-225v85h244q14 73 20 131zM699 735l60 24q52 -67 80 -142l-62 -22q-28 73 -78 140zM808 771l60 25q52 -68 80 -142l-62 -23q-28 74 -78 140z" />
    <glyph glyph-name="glyph620" unicode="&#x3063;" horiz-adv-x="1067" 
d="M333 -98l-24 87q226 8 330 64.5t104 179.5q0 70 -45 107.5t-133 37.5q-62 0 -132 -13t-140 -30.5t-107 -22.5l-29 83q39 6 126 25t157 30t129 11q135 0 204.5 -60t69.5 -177q0 -158 -124 -234t-386 -88z" />
    <glyph glyph-name="glyph621" unicode="&#x3064;" horiz-adv-x="1065" 
d="M302 30l-23 87q265 10 394 77.5t129 213.5q0 196 -226 196q-74 0 -153.5 -14.5t-164 -35.5t-132.5 -29l-30 87q51 8 149 29t183 35t154 14q161 0 241.5 -70.5t80.5 -207.5q0 -187 -147 -277.5t-455 -104.5z" />
    <glyph glyph-name="glyph622" unicode="&#x3065;" horiz-adv-x="1065" 
d="M275 -47l-22 87q265 10 394 73.5t129 201.5q0 181 -226 181q-74 0 -153.5 -14.5t-164.5 -35.5t-132 -29l-30 87q50 8 148.5 29t183.5 34.5t154 13.5q161 0 241.5 -66t80.5 -196q0 -180 -146.5 -266.5t-456.5 -99.5zM682 706l60 24q52 -67 79 -141l-62 -23q-27 73 -77 140
zM791 743l60 24q52 -67 80 -142l-63 -22q-27 73 -77 140z" />
    <glyph glyph-name="glyph623" unicode="&#x3066;" horiz-adv-x="1067" 
d="M98 595v86q362 56 705 56h99v-86h-85q-100 0 -190.5 -51.5t-144.5 -137.5t-54 -180q0 -107 99 -158t302 -53l-18 -88q-240 1 -363 75t-123 219q0 64 23 126t60.5 109t82.5 82.5t93 54.5q-223 -9 -486 -54z" />
    <glyph glyph-name="glyph624" unicode="&#x3067;" horiz-adv-x="1065" 
d="M92 595v86q363 56 706 56h99v-86h-85q-100 0 -190.5 -51.5t-145 -137.5t-54.5 -180q0 -107 99 -158t302 -53l-17 -88q-240 1 -363 75t-123 219q0 64 22.5 126t60 109t83 82.5t92.5 54.5q-222 -9 -486 -54zM659 504l60 25q52 -68 80 -142l-63 -22q-27 73 -77 139zM768 541
l60 25q52 -68 80 -142l-62 -23q-28 74 -78 140z" />
    <glyph glyph-name="glyph625" unicode="&#x3068;" horiz-adv-x="1065" 
d="M834 552l15 -89q-316 -45 -462.5 -118.5t-146.5 -180.5q0 -68 68.5 -101t220.5 -33q199 0 333 21v-86q-120 -21 -333 -21q-200 0 -295.5 52t-95.5 165q0 100 69 171.5t208 122.5q-30 66 -30 160v161h102v-154q0 -82 20 -137q127 36 327 67z" />
    <glyph glyph-name="glyph626" unicode="&#x3069;" horiz-adv-x="1065" 
d="M793 531l15 -90q-316 -44 -462.5 -118t-146.5 -181q0 -68 68.5 -101t220.5 -33q199 0 333 22v-87q-120 -20 -333 -20q-200 0 -295.5 52t-95.5 165q0 99 69 171t208 123q-30 65 -30 159v161h102v-154q0 -81 20 -136q127 36 327 67zM654 736l60 25q52 -68 79 -142l-62 -23
q-27 74 -77 140zM763 773l60 24q52 -67 80 -142l-63 -22q-27 73 -77 140z" />
    <glyph glyph-name="glyph627" unicode="&#x306a;" horiz-adv-x="1067" 
d="M88 647h174q8 57 13 131h103q-5 -60 -15 -131h197v-86h-211q-47 -252 -154 -459l-99 28q109 200 153 431h-161v86zM617 260v227h102v-259q92 -38 188 -124l-67 -67q-64 62 -125 95q-12 -100 -66 -145t-154 -45q-92 0 -147 44t-55 115q0 75 59.5 122t157.5 47
q59 0 107 -10zM617 171q-48 13 -106 13q-56 0 -86 -22t-30 -60q0 -37 27.5 -56t72.5 -19q62 0 90.5 32.5t31.5 111.5zM912 511l-62 -64q-85 84 -209 152l58 66q128 -70 213 -154z" />
    <glyph glyph-name="glyph628" unicode="&#x306b;" horiz-adv-x="1065" 
d="M156 778h102q-48 -198 -48 -495q0 -171 18 -341h-103q-17 158 -17 341q0 297 48 495zM887 82l5 -86q-50 -14 -128 -22t-149 -8q-156 0 -221 44.5t-65 141.5q0 46 24.5 102.5t69.5 103.5l80 -48q-33 -32 -52.5 -78.5t-19.5 -78.5q0 -53 39.5 -77.5t144.5 -24.5
q64 0 141 8.5t131 22.5zM836 712v-86h-447v86h447z" />
    <glyph glyph-name="glyph629" unicode="&#x306c;" horiz-adv-x="1067" 
d="M171 465q-29 117 -41 221l101 18q8 -84 25 -166q93 63 200 77q12 72 22 161h102q-13 -100 -23 -157q161 -9 240 -108t79 -261q0 -28 -4 -75q44 -36 83 -91l-69 -58q-18 27 -40 51q-27 -66 -78 -99.5t-120 -33.5q-75 0 -129 40t-54 107q0 71 52 116.5t140 45.5
q60 0 117 -22v20q0 272 -234 284q-36 -171 -85 -299t-113.5 -204.5t-133.5 -76.5q-72 0 -117.5 62t-45.5 161q0 71 33.5 147t92.5 140zM303 129q-58 95 -99 226q-57 -87 -57 -177q0 -68 18 -102.5t45 -34.5q40 0 93 88zM277 442q33 -132 72 -218q55 132 89 301
q-90 -20 -161 -83zM765 143q-50 24 -105 24h-2q-43 0 -67 -19.5t-24 -53.5q0 -31 23 -48t58 -17q92 0 117 114z" />
    <glyph glyph-name="glyph630" unicode="&#x306d;" horiz-adv-x="1065" 
d="M648 273q66 0 133 -26q2 47 2 77q0 102 -16 160t-47.5 81.5t-86.5 23.5q-68 0 -144.5 -46.5t-146.5 -133.5v-467h-102v342q-52 -123 -129 -205l-66 75q127 132 195 302v101h-165v86h165v135h102v-135h18v-57q-3 -7 -9 -18.5t-9 -17.5v-39q60 74 143.5 119t156.5 45
q126 0 184.5 -84t58.5 -268q0 -70 -9 -131q45 -35 79 -88l-68 -60q-21 30 -37 47q-59 -145 -215 -145q-87 0 -146 44t-59 118q0 77 58.5 121t159.5 44zM769 155q-60 32 -128 32l-1 1q-52 0 -80 -20.5t-28 -57.5t28.5 -58t74.5 -21q55 0 87 29t47 95z" />
    <glyph glyph-name="glyph631" unicode="&#x306e;" horiz-adv-x="1065" 
d="M559 649q-1 -135 -15.5 -243t-38.5 -179t-58 -118t-72.5 -67.5t-83.5 -20.5q-99 0 -160 78t-61 198q0 122 60 223.5t162 159t223 57.5q189 0 302 -104.5t113 -270.5q0 -314 -379 -379l-24 91q301 44 301 291q0 119 -71 195t-198 89zM461 647q-126 -19 -207.5 -118.5
t-81.5 -231.5q0 -85 33 -138t84 -53q23 0 45 16t45 55.5t40.5 99.5t29 155.5t12.5 214.5z" />
    <glyph glyph-name="glyph632" unicode="&#x306f;" horiz-adv-x="1065" 
d="M136 778h102q-38 -156 -46.5 -385t15.5 -450h-102q-25 222 -16.5 450t47.5 385zM624 264v251h-322v86h322v177h102v-177h152v-86h-152v-283q94 -39 187 -124l-69 -67q-65 61 -122 93q-14 -103 -70 -147.5t-158 -44.5q-92 0 -149 44.5t-57 117.5q0 77 62 123.5t165 46.5
q55 0 109 -10zM515 189q-61 0 -93 -23t-32 -62q0 -38 28.5 -57.5t76.5 -19.5q66 0 96 31.5t33 115.5q-49 15 -109 15z" />
    <glyph glyph-name="glyph633" unicode="&#x3070;" horiz-adv-x="1065" 
d="M110 757h102q-38 -156 -46.5 -385.5t15.5 -450.5h-102q-25 222 -16.5 450.5t47.5 385.5zM587 243v251h-321v85h321v178h102v-178h152v-85h-152v-283q95 -40 188 -125l-69 -67q-65 62 -123 94q-13 -103 -69 -148t-158 -45q-93 0 -149.5 44.5t-56.5 117.5q0 77 61.5 124
t165.5 47q55 0 108 -10zM479 167q-61 0 -93 -23t-32 -62q0 -37 28.5 -56.5t76.5 -19.5q66 0 95.5 31.5t32.5 115.5q-48 14 -108 14zM713 756l62 17q46 -77 63 -148l-62 -17q-19 71 -63 148zM814 783l62 17q46 -77 63 -148l-62 -17q-19 71 -63 148z" />
    <glyph glyph-name="glyph634" unicode="&#x3071;" horiz-adv-x="1065" 
d="M830.5 651q21.5 0 35 13.5t13.5 35t-13.5 35.5t-35 14t-34.5 -14t-13 -35.5t13 -35t34.5 -13.5zM110 754h102q-38 -156 -46.5 -385.5t16.5 -450.5h-102q-25 222 -16.5 450.5t46.5 385.5zM588 240v251h-322v85h322v178h102v-178h152v-85h-152v-283q94 -40 188 -125
l-70 -67q-64 62 -122 94q-14 -103 -69.5 -148t-158.5 -45q-92 0 -149 44.5t-57 117.5q0 77 62 124t166 47q54 0 108 -10zM480 164q-61 0 -93.5 -23t-32.5 -62q0 -37 28.5 -56.5t76.5 -19.5q66 0 96 31t33 116q-49 14 -108 14zM830.5 597q-46.5 0 -76.5 28.5t-30 74t30 74.5
t76.5 29t77 -29t30.5 -74.5t-30.5 -74t-77 -28.5z" />
    <glyph glyph-name="glyph635" unicode="&#x3072;" horiz-adv-x="1065" 
d="M924 330l-82 -58q-66 85 -116 203q21 -79 21 -149q0 -105 -39.5 -188t-116.5 -132.5t-179 -50.5q-130 0 -207.5 80t-77.5 221q0 112 49 209t129 166l-215 -27l-14 87l323 37l11 -86q-181 -175 -181 -385q0 -100 49 -158.5t132 -57.5q108 1 174 88t66 231q0 215 -61 372
l93 33q31 -105 94 -219.5t148 -215.5z" />
    <glyph glyph-name="glyph636" unicode="&#x3073;" horiz-adv-x="1065" 
d="M900 295l-82 -58q-66 85 -116 203q21 -79 21 -149q0 -105 -39.5 -188.5t-116.5 -132.5t-179 -50q-130 -1 -207.5 79.5t-77.5 221.5q0 112 49.5 209t128.5 166l-214 -27l-15 87l323 37l11 -86q-181 -175 -181 -385q0 -101 49 -159t132 -57q108 1 174 88t66 231
q0 215 -61 372l94 32q30 -104 93 -218.5t148 -215.5zM712 756l62 17q46 -77 63 -148l-62 -17q-19 71 -63 148zM823 783l62 17q46 -77 63 -148l-62 -17q-19 71 -63 148z" />
    <glyph glyph-name="glyph637" unicode="&#x3074;" horiz-adv-x="1065" 
d="M899 292l-83 -59q-66 86 -115 204q20 -79 20 -149q0 -105 -39 -188.5t-116 -132.5t-179 -50q-130 -1 -207.5 79.5t-77.5 221.5q0 112 49 209t129 166l-215 -27l-14 87l322 37l12 -86q-181 -175 -181 -385q0 -101 49 -159t132 -57q107 1 173.5 88t66.5 231q0 215 -62 372
l94 32q31 -104 94 -219t148 -215zM842 597q-46 0 -76.5 28.5t-30.5 74t30.5 74.5t76.5 29t76.5 -29t30.5 -74.5t-30.5 -74t-76.5 -28.5zM842 651q21 0 34.5 13.5t13.5 35t-13.5 35.5t-34.5 14t-34.5 -14t-13.5 -35.5t13.5 -35t34.5 -13.5z" />
    <glyph glyph-name="glyph638" unicode="&#x3075;" horiz-adv-x="1065" 
d="M245 321l82 -47q-35 -64 -88 -134.5t-110 -123.5l-77 55q53 48 108.5 119.5t84.5 130.5zM666 119q0 -89 -55.5 -131t-155.5 -42q-85 0 -145 24l-4 86q72 -24 144 -24q114 0 114 81q0 32 -21 64.5t-51.5 60.5t-60.5 56.5t-51 63.5t-21 70q0 38 27 73.5t91 75.5l66 -61
q-47 -32 -64.5 -50.5t-17.5 -37.5q0 -21 21 -47t51 -54t60.5 -58.5t51.5 -70t21 -79.5zM690 666l-34 -78q-155 70 -341 108l36 78q181 -36 339 -108zM948 65l-92 -43q-19 77 -61.5 169.5t-90.5 154.5l83 40q49 -63 95 -156t66 -165z" />
    <glyph glyph-name="glyph639" unicode="&#x3076;" horiz-adv-x="1067" 
d="M245 298l81 -47q-34 -64 -87.5 -134.5t-109.5 -123.5l-77 55q53 49 108 120t85 130zM665 96q0 -88 -55.5 -130.5t-155.5 -42.5q-85 0 -145 24l-4 86q72 -24 145 -24q113 0 113 82q0 32 -21 64t-51 60t-60.5 56.5t-51.5 63.5t-21 70q0 38 27.5 73.5t91.5 75.5l66 -61
q-48 -31 -65.5 -50t-17.5 -38q0 -21 21 -47t51.5 -54t60.5 -58.5t51 -70t21 -79.5zM690 643l-35 -78q-154 70 -341 108l37 78q181 -36 339 -108zM948 42l-93 -43q-18 77 -61 169.5t-91 154.5l84 40q49 -63 94.5 -156t66.5 -165zM709 753l62 17q46 -77 64 -148l-63 -17
q-19 71 -63 148zM820 779l63 18q46 -77 63 -148l-62 -18q-19 72 -64 148z" />
    <glyph glyph-name="glyph640" unicode="&#x3077;" horiz-adv-x="1066" 
d="M244 295l81 -47q-34 -64 -87.5 -134.5t-110.5 -123.5l-76 55q53 48 108 119.5t85 130.5zM664 93q0 -89 -55.5 -131t-155.5 -42q-85 0 -145 24l-4 86q72 -24 145 -24q113 0 113 81q0 32 -21 64.5t-51 60.5t-60.5 56.5t-51.5 63.5t-21 70q0 38 27.5 73.5t90.5 75.5l67 -61
q-48 -32 -65.5 -50.5t-17.5 -37.5q0 -21 21 -47t51.5 -54t60.5 -58.5t51 -70t21 -79.5zM689 640l-35 -78q-154 70 -341 108l37 78q181 -36 339 -108zM947 39l-93 -43q-18 77 -61 169.5t-91 154.5l84 40q48 -63 94 -156t67 -165zM829.5 594q-46.5 0 -77 28.5t-30.5 74
t30.5 74.5t77 29t77 -29t30.5 -74.5t-30.5 -74t-77 -28.5zM829.5 648q21.5 0 35 13.5t13.5 35t-13.5 35.5t-35 14t-34.5 -14t-13 -35.5t13 -35t34.5 -13.5z" />
    <glyph glyph-name="glyph641" unicode="&#x3078;" horiz-adv-x="1067" 
d="M950 132l-71 -74q-253 215 -458 481q-24 32 -37 32q-7 0 -16 -10t-30 -41q-81 -117 -212 -261l-76 67q107 99 220 259q29 40 56.5 58.5t61.5 18.5q63 0 114 -70q189 -257 448 -460z" />
    <glyph glyph-name="glyph642" unicode="&#x3079;" horiz-adv-x="1067" 
d="M950 79l-71 -74q-253 215 -458 481q-24 32 -37 32q-7 0 -16 -10t-30 -41q-81 -117 -212 -261l-76 67q107 99 220 259q29 40 56.5 58t61.5 18q63 0 114 -69q189 -257 448 -460zM790 508l-61 -24q-30 80 -95 163l57 30q63 -76 99 -169zM909 546l-61 -24q-30 79 -95 163
l57 30q63 -76 99 -169z" />
    <glyph glyph-name="glyph643" unicode="&#x307a;" horiz-adv-x="1067" 
d="M950 84l-71 -73q-253 214 -458 481q-24 31 -37 31q-7 0 -16 -9.5t-30 -41.5q-81 -116 -212 -260l-76 66q107 100 220 260q29 40 56.5 58t61.5 18q63 0 114 -69q189 -258 448 -461zM774.5 503q-46.5 0 -77 28.5t-30.5 74t30.5 74.5t77 29t77 -29t30.5 -74.5t-30.5 -74
t-77 -28.5zM774.5 557q21.5 0 35 13.5t13.5 35.5t-13.5 35.5t-35 13.5t-34.5 -13.5t-13 -35.5t13 -35.5t34.5 -13.5z" />
    <glyph glyph-name="glyph644" unicode="&#x307b;" horiz-adv-x="1065" 
d="M134 778h102q-49 -202 -49 -499q0 -173 18 -336h-102q-18 163 -18 336q0 297 49 499zM517 264q48 0 88 -7v137h-268v85h268v148h-258v86h524v-86h-164v-148h175v-85h-175v-164q112 -41 208 -131l-68 -66q-63 68 -140 103q-4 -96 -60 -145t-155 -49q-83 0 -137 43.5
t-54 112.5q0 74 59.5 120t156.5 46zM605 170q-43 8 -88 8q-53 0 -83.5 -22t-30.5 -58q0 -33 26 -52t63 -19q58 0 85 30.5t28 112.5z" />
    <glyph glyph-name="glyph645" unicode="&#x307c;" horiz-adv-x="1065" 
d="M104 757h102q-49 -202 -49 -499q0 -173 18 -337h-102q-18 164 -18 337q0 297 49 499zM487 243q48 0 88 -8v137h-268v86h268v148h-258v86h411q-20 32 -32 47l61 24q52 -67 79 -142l-62 -22q0 1 -1.5 3.5t-1.5 3.5h-94v-148h175v-86h-175v-163q112 -41 208 -132l-68 -65
q-63 68 -140 103q-4 -96 -60 -145.5t-155 -49.5q-84 0 -137.5 43.5t-53.5 112.5q0 75 59.5 121t156.5 46zM575 149q-44 8 -88 8q-53 0 -83.5 -22.5t-30.5 -58.5q0 -33 25.5 -51.5t63.5 -18.5q58 0 85 30.5t28 112.5zM806 775l60 25q52 -68 80 -142l-63 -22q-27 73 -77 139z
" />
    <glyph glyph-name="glyph646" unicode="&#x307d;" horiz-adv-x="1066" 
d="M105 754h102q-49 -202 -49 -499q0 -173 18 -337h-102q-18 164 -18 337q0 297 49 499zM489 240q48 0 88 -8v137h-269v86h269v148h-259v86h413q-1 4 -1 9v2q0 45 30 74t76.5 29t77 -29t30.5 -74.5t-30.5 -74t-76.5 -28.5h-1q-20 0 -38 6h-119v-148h174v-86h-174v-163
q111 -41 208 -132l-69 -65q-63 68 -139 103q-5 -97 -61 -146t-155 -49q-83 0 -137 43.5t-54 112.5q0 75 60 121t157 46zM577 146q-44 8 -88 8q-54 0 -84.5 -22.5t-30.5 -58.5q0 -33 26 -51.5t63 -18.5q59 0 86 30.5t28 112.5zM836.5 651q21.5 0 35 13.5t13.5 35t-13.5 35.5
t-35 14t-34.5 -14t-13 -35.5t13 -35t34.5 -13.5z" />
    <glyph glyph-name="glyph647" unicode="&#x307e;" horiz-adv-x="1067" 
d="M478 265v119h-317v86h317v107h-328v86h328v115h102v-115h270v-86h-270v-107h259v-86h-259v-141q148 -44 270 -160l-68 -67q-86 89 -204 134q-8 -114 -57.5 -161t-158.5 -47q-90 0 -147.5 44t-57.5 115q0 77 65 123t171 46q43 0 85 -5zM393 184q-65 0 -99.5 -22t-34.5 -61
q0 -35 29.5 -54.5t75.5 -19.5q62 0 87 30.5t27 119.5q-41 7 -82 7h-1.5h-1.5z" />
    <glyph glyph-name="glyph648" unicode="&#x307f;" horiz-adv-x="1067" 
d="M585 -32l-78 65q76 59 113 128t50 158q-83 31 -170 45q-56 -180 -127.5 -256t-162.5 -76q-70 0 -114 42.5t-44 112.5q0 78 47 140t126 95.5t173 33.5h22q24 87 47 211h-291v85h396v-77q-22 -127 -49 -228q72 -9 156 -34q2 27 2 86v79h102v-80q0 -72 -4 -123
q87 -38 169 -86l-41 -90q-68 45 -142 80q-17 -93 -59.5 -168t-120.5 -143zM395 371q-106 -1 -173.5 -51.5t-67.5 -135.5q0 -31 16 -48.5t44 -17.5q44 0 90.5 60t90.5 193z" />
    <glyph glyph-name="glyph649" unicode="&#x3080;" horiz-adv-x="1067" 
d="M366 655h169v-85h-169v-104q50 -43 50 -133q0 -70 -29 -120.5t-77 -73.5q-4 -26 -4 -52q0 -24 11.5 -35t57 -17.5t140.5 -6.5q132 0 186 30t54 106q0 87 -26 219l101 14q27 -139 27 -243q0 -112 -84 -162t-258 -50q-122 0 -188.5 12.5t-94 40t-27.5 78.5q0 25 8 50
q-58 5 -91.5 47.5t-33.5 107.5q0 90 49 150.5t127 64.5v77h-184v85h184v123h102v-123zM190 283q0 -78 47 -78q36 0 56.5 34t20.5 96q0 75 -46 75q-36 0 -57 -33.5t-21 -93.5zM920 515l-72 -65q-83 103 -227 225l65 68q145 -121 234 -228z" />
    <glyph glyph-name="glyph650" unicode="&#x3081;" horiz-adv-x="1065" 
d="M596 621q158 -7 238.5 -95.5t80.5 -234.5q0 -143 -103 -237.5t-278 -110.5l-27 90q145 14 225.5 83t80.5 176q0 118 -59 179t-174 64q-36 -171 -85.5 -299t-113.5 -204.5t-134 -76.5q-72 0 -117 62t-45 162q0 71 33 147t92 140q-29 116 -41 220l101 18q8 -83 25 -166
q92 63 200 79q13 70 22 160h102q-8 -72 -23 -156zM244 353q-57 -86 -57 -174q0 -69 17.5 -103.5t44.5 -34.5q42 0 94 87q-57 95 -99 225zM478 524q-90 -22 -161 -85q34 -130 73 -215q53 134 88 300z" />
    <glyph glyph-name="glyph651" unicode="&#x3082;" horiz-adv-x="1065" 
d="M374 209q0 -106 44 -144t163 -38q110 0 165.5 40t55.5 116q0 50 -15.5 106.5t-38.5 97.5l93 39q63 -123 63 -246q0 -64 -25 -111.5t-70.5 -74.5t-101.5 -39.5t-126 -12.5q-165 0 -237 59.5t-72 206.5v85h-176v85h178q2 101 5 150h-177v86h181q3 58 13 164h102
q-5 -61 -13 -164h273v-86h-277q-3 -49 -5 -150h143q99 0 150 18l19 -83q-57 -20 -167 -20h-147v-84z" />
    <glyph glyph-name="glyph652" unicode="&#x3083;" horiz-adv-x="1067" 
d="M155 278l-32 84l152 48l-40 167l98 21l37 -157q75 22 135 37q-24 63 -44 106l92 25q28 -55 48 -113q24 3 49 3q105 0 166 -49t61 -138t-59.5 -141t-159.5 -52q-81 0 -145 22l11 84q69 -22 132 -22q54 0 86.5 28.5t32.5 80.5q0 47 -34 75t-91 28h-4q-10 0 -21 -1
q14 -55 19 -93l-93 -20q-7 43 -21 97q-62 -16 -140 -41l104 -444l-98 -20l-102 432z" />
    <glyph glyph-name="glyph653" unicode="&#x3084;" horiz-adv-x="1067" 
d="M190 747l101 22q8 -35 23 -100t22 -91q94 30 181 51q-22 65 -54 125l95 28q32 -61 57 -135q32 4 63 4h1q123 0 194.5 -57.5t71.5 -160.5q0 -105 -69 -165.5t-188 -60.5q-95 0 -169 25l13 87q64 -26 152 -26q72 0 115.5 37t43.5 103q0 59 -44 96t-120 37q-12 0 -38 -2
q15 -58 23 -117l-95 -20q-9 61 -25 120q-68 -17 -141 -41l-47 -15q61 -267 125 -531l-101 -22q-62 260 -123 521l-170 -55l-32 86l182 57q-8 33 -24 100t-23 100z" />
    <glyph glyph-name="glyph654" unicode="&#x3085;" horiz-adv-x="1065" 
d="M287 28l-100 -9q-22 130 -19 282t34 283l100 -6q-23 -111 -28 -233q37 57 95 98t124 57l-9 110h100q4 -36 7 -102q113 -6 177 -71t64 -175q0 -109 -72.5 -172t-189.5 -63q-13 0 -19 1q-29 -53 -73.5 -84t-104.5 -51l-45 79q83 28 122 82q-84 37 -123 119l83 47
q27 -57 74 -86q15 56 15 132q0 98 -3 150q-77 -20 -137 -82t-84 -142q3 -85 12 -164zM582 111q69 3 109.5 44.5t40.5 106.5q0 69 -35 111t-101 50q3 -79 3 -156q0 -87 -17 -156z" />
    <glyph glyph-name="glyph655" unicode="&#x3086;" horiz-adv-x="1065" 
d="M554 97q-32 -63 -82.5 -99.5t-121.5 -59.5l-47 84q99 31 146 99q-108 43 -153 147l79 45q39 -80 111 -113q20 74 20 178q0 125 -3 192q-101 -25 -180 -105.5t-103 -181.5q3 -90 14 -186l-102 -10q-26 153 -23 331.5t39 332.5l102 -7q-25 -121 -32 -286q45 75 120.5 128
t160.5 70q-2 42 -10 126h102q1 -7 9 -119q138 -7 214.5 -83.5t76.5 -207t-87.5 -203.5t-227.5 -73h-4q-9 0 -18 1zM609 379q0 -111 -22 -197q93 2 147.5 54.5t54.5 136.5q0 188 -185 204q5 -90 5 -198z" />
    <glyph glyph-name="glyph656" unicode="&#x3087;" horiz-adv-x="1065" 
d="M461 192v411h100v-149h251v-83h-251v-200q143 -45 261 -150l-67 -67q-87 84 -195 126q-5 -102 -51.5 -144.5t-144.5 -42.5q-80 0 -133 42.5t-53 105.5q0 73 57 114.5t154 41.5q36 0 72 -5zM389 113q-54 0 -82.5 -18.5t-28.5 -53.5q0 -29 24 -46.5t64 -17.5
q54 0 73.5 25.5t21.5 104.5q-36 6 -72 6z" />
    <glyph glyph-name="glyph657" unicode="&#x3088;" horiz-adv-x="1067" 
d="M463 285v493h102v-179h302v-86h-302v-250q179 -53 312 -175l-69 -70q-100 97 -244 150q-5 -125 -55.5 -175.5t-170.5 -50.5q-95 0 -155 48t-60 123q0 85 66.5 132.5t180.5 47.5h3q45 0 90 -8zM370 207q-69 0 -107 -25t-38 -69q0 -38 31.5 -62t81.5 -24q73 0 99 34.5
t26 136.5q-46 9 -93 9z" />
    <glyph glyph-name="glyph658" unicode="&#x3089;" horiz-adv-x="1065" 
d="M238 -46l-8 89q84 -15 188 -15q153 0 240.5 49t86.5 137q-1 71 -47.5 109t-139.5 38q-90 0 -175.5 -42t-129.5 -114l-100 9q52 190 72 376l103 -8q-27 -165 -57 -267q44 57 123 94.5t173 37.5q130 0 204 -59.5t76 -166.5q2 -126 -108.5 -202t-320.5 -76q-109 0 -180 11z
M707 685l-29 -86q-191 77 -379 97l16 81q222 -27 392 -92z" />
    <glyph glyph-name="glyph659" unicode="&#x308a;" horiz-adv-x="1067" 
d="M231 785l102 -11q-34 -117 -46 -247q38 88 110 144t158 56q121 0 191 -87t70 -262q0 -158 -55 -253.5t-178 -142t-328 -47.5l-20 87q137 0 228.5 19.5t147.5 63.5t79.5 109.5t23.5 162.5q0 143 -41.5 204t-122.5 61q-97 0 -168 -88.5t-89 -215.5q-8 -57 2 -124l-100 -6
q-11 83 -11 160q0 192 47 417z" />
    <glyph glyph-name="glyph660" unicode="&#x308b;" horiz-adv-x="1065" 
d="M603 71q71 17 110.5 61t39.5 113q0 72 -45.5 114t-126.5 42q-87 0 -172 -37.5t-155 -98.5l-39 -34l-70 71l442 360h-356v85h489v-88l-264 -207q63 32 155 32q107 0 175.5 -65.5t68.5 -170.5q0 -89 -49.5 -153t-127.5 -93t-176 -29q-114 -1 -179 45t-65 116q0 59 44 99.5
t116 40.5q82 0 135 -51.5t53 -125.5q0 -16 -3 -26zM498 58q5 18 6 37q0 42 -23.5 67.5t-60.5 25.5q-29 0 -44.5 -14.5t-15.5 -40.5q0 -75 135 -75h3z" />
    <glyph glyph-name="glyph661" unicode="&#x308c;" horiz-adv-x="1067" 
d="M258 -58v342q-52 -123 -128 -205l-67 75q127 132 195 302v101h-165v86h165v135h102v-135h19v-57q-4 -7 -10 -18.5t-9 -17.5v-42q61 73 145.5 120t159.5 47q175 0 163 -206l-17 -278q-2 -41 0.5 -63t16.5 -37.5t39 -21.5t70 -7l-7 -87q-71 -2 -117 12t-69 45t-30.5 69.5
t-4.5 94.5l17 274q7 119 -79 119q-67 0 -143.5 -48.5t-143.5 -131.5v-467h-102z" />
    <glyph glyph-name="glyph662" unicode="&#x308d;" horiz-adv-x="1065" 
d="M722 659l-264 -207q63 32 155 32q110 0 177 -67.5t67 -174.5q0 -67 -29.5 -120t-81.5 -85t-118 -48t-143 -16q-83 0 -143 9l-7 87q69 -11 147 -11q121 0 197 47.5t76 133.5q0 73 -45 117.5t-128 44.5q-88 0 -172.5 -37.5t-153.5 -98.5l-40 -35l-69 72l440 360h-355v85
h490v-88z" />
    <glyph glyph-name="glyph663" unicode="&#x308e;" horiz-adv-x="1067" 
d="M384 367q53 52 124 83t134 31q106 0 171 -63t65 -171q0 -127 -91 -210t-250 -107l-16 87q120 19 188.5 80.5t68.5 146.5q0 71 -39.5 111t-109.5 40q-58 0 -123.5 -31.5t-121.5 -89.5v-381h-100v262q-38 -82 -96 -145l-66 72q108 109 162 241v79h-137v86h137v115h100v-115
h15v-61q-7 -15 -15 -28v-32z" />
    <glyph glyph-name="glyph664" unicode="&#x308f;" horiz-adv-x="1067" 
d="M352 491q65 66 151 105t161 39q128 0 204.5 -74t76.5 -207q0 -150 -106 -245.5t-296 -124.5l-18 87q148 24 233 98t85 182q0 96 -51 147t-139 51q-69 0 -149 -40t-152 -116v-451h-103v342q-51 -123 -128 -205l-66 75q127 132 194 302v101h-165v86h165v135h103v-135h18
v-57q-3 -7 -9 -18.5t-9 -17.5v-59z" />
    <glyph glyph-name="glyph665" unicode="&#x3090;" horiz-adv-x="1067" 
d="M585 552q147 0 235 -79.5t88 -220.5q0 -128 -68 -204t-181 -76q-79 0 -130.5 39.5t-51.5 106.5q0 59 44 99t112 40q114 0 159 -100q14 41 14 93q0 102 -59 159t-166 57q-16 0 -46 -2q-58 -234 -128 -335.5t-166 -101.5q-65 0 -107 44t-42 112q0 111 100 214t256 140
q1 7 11 53t15 72h-258v86h364v-77q-12 -60 -25 -120q13 1 25 1h2.5h2.5zM423 440q-102 -36 -165.5 -109t-63.5 -149q0 -69 49 -69q93 0 180 327zM718 71q-3 51 -25 75.5t-56 24.5q-27 0 -42.5 -14.5t-15.5 -38.5q0 -29 20 -44.5t56 -15.5h1q32 0 62 13z" />
    <glyph glyph-name="glyph666" unicode="&#x3091;" horiz-adv-x="1065" 
d="M529 227q-23 0 -60 2q-71 -34 -119 -69q13 4 31 4q42 0 76.5 -25t47.5 -74q25 58 76 94.5t115 36.5q161 0 246 -211l-98 -30q-31 81 -68.5 118.5t-88.5 37.5t-90.5 -44t-43.5 -107h-101q-5 64 -31.5 100t-70.5 36q-52 0 -97 -33.5t-109 -109.5l-86 52q67 78 135.5 137.5
t164.5 111.5q-79 32 -79 100q0 47 43 80t113 33q78 0 119.5 -31.5t41.5 -85.5q0 -20 -12 -40q57 8 89.5 38.5t32.5 77.5q0 49 -44 75.5t-124 26.5q-95 0 -181.5 -29t-189.5 -84l-54 70l404 200h-313v82h502v-76l-256 -115q73 29 135 29q96 0 159.5 -46t63.5 -131
q0 -95 -77.5 -148t-201.5 -53zM465 310q29 22 29 43q0 17 -15 27.5t-41.5 10.5t-41.5 -11t-15 -26q0 -35 84 -44z" />
    <glyph glyph-name="glyph667" unicode="&#x3092;" horiz-adv-x="1067" 
d="M184 189l-78 64q151 135 228 325h-235v86h264q17 64 20 115h102q-4 -59 -19 -115h353v-86h-378q-17 -48 -49 -112q54 31 109 31q61 0 95.5 -30.5t45.5 -96.5q103 34 243 64l16 -89q-155 -35 -254 -68v-159h-102v122q-88 -37 -122.5 -71t-34.5 -68q0 -39 43.5 -56.5
t156.5 -17.5q120 0 248 15l4 -88q-121 -13 -252 -13q-160 0 -231 38t-71 120q0 134 257 236q-5 45 -21 63.5t-54 18.5q-32 0 -71 -15.5t-71 -46.5q-62 -90 -142 -166z" />
    <glyph glyph-name="glyph668" unicode="&#x3093;" horiz-adv-x="1067" 
d="M813 366l101 -19q-5 -69 -15.5 -125.5t-29.5 -110t-45 -90t-65 -58.5t-88 -22q-82 0 -125.5 51.5t-43.5 150.5v112q0 55 -15.5 78t-50.5 23q-46 0 -94 -45.5t-69 -102.5q-49 -133 -88 -264l-99 30q137 445 310 805l100 -27q-91 -183 -170 -386q56 78 140 78
q67 0 102.5 -46.5t35.5 -134.5v-117q0 -66 16.5 -92.5t53.5 -26.5q52 0 90 91.5t49 247.5z" />
    <glyph glyph-name="glyph669" unicode="&#x30a1;" horiz-adv-x="1067" 
d="M163 561h674v-77q-52 -124 -175 -220l-68 67q42 28 78.5 69t51.5 77h-561v84zM432 399h99v-164q0 -67 -21 -123.5t-59.5 -97t-86.5 -69t-107 -48.5l-49 85q224 71 224 256v161z" />
    <glyph glyph-name="glyph670" unicode="&#x30a2;" horiz-adv-x="1067" 
d="M100 750h800v-86q-70 -149 -203 -252l-69 69q49 36 93.5 87t67.5 97h-689v85zM425 557h103v-189q0 -80 -24.5 -146.5t-69 -114t-100 -81.5t-124.5 -56l-50 88q265 86 265 313v186z" />
    <glyph glyph-name="glyph671" unicode="&#x30a3;" horiz-adv-x="1067" 
d="M233 159l-48 84q169 56 317 151.5t241 214.5l72 -63q-78 -101 -205 -193v-460h-99v396q-133 -79 -278 -130z" />
    <glyph glyph-name="glyph672" unicode="&#x30a4;" horiz-adv-x="1066" 
d="M180 261l-50 86q198 65 373.5 179t287.5 256l77 -65q-97 -122 -247 -231v-548h-102v481q-157 -95 -339 -158z" />
    <glyph glyph-name="glyph673" unicode="&#x30a5;" horiz-adv-x="1067" 
d="M807 494v-123q0 -374 -422 -478l-45 88q368 83 368 390v39h-416v-200h-99v284h252v115h98v-115h264z" />
    <glyph glyph-name="glyph674" unicode="&#x30a6;" horiz-adv-x="1067" 
d="M862 646v-140q0 -446 -499 -570l-47 91q223 49 333.5 171t110.5 308v55h-520v-246h-102v331h305v138h102v-138h317z" />
    <glyph glyph-name="glyph675" unicode="&#x30a7;" horiz-adv-x="1067" 
d="M862 -14v-84h-724v84h312v392h-256v83h612v-83h-257v-392h313z" />
    <glyph glyph-name="glyph676" unicode="&#x30a8;" horiz-adv-x="1065" 
d="M930 117v-86h-860v86h379v486h-311v86h724v-86h-311v-486h379z" />
    <glyph glyph-name="glyph677" unicode="&#x30a9;" horiz-adv-x="1065" 
d="M570 4v281q-70 -83 -166.5 -159.5t-193.5 -129.5l-62 74q108 56 210 137.5t170 172.5h-357v84h399v138h99v-138h183v-84h-183v-372q0 -64 -25.5 -89.5t-88.5 -25.5q-44 0 -117 11l-6 82q61 -10 107 -10q17 0 24 6t7 22z" />
    <glyph glyph-name="glyph678" unicode="&#x30aa;" horiz-adv-x="1067" 
d="M591 67v359q-81 -101 -199 -196t-240 -165l-66 78q131 70 256 171.5t206 212.5h-438v85h481v166h102v-166h221v-85h-221v-452q0 -75 -28 -104t-101 -29q-57 0 -134 12l-8 87q69 -12 126 -12q23 0 33 8.5t10 29.5z" />
    <glyph glyph-name="glyph679" unicode="&#x30ab;" horiz-adv-x="1067" 
d="M419 781h102q0 -94 -6 -182h365l-19 -427q-5 -120 -53.5 -174t-150.5 -54q-63 1 -125 13l-8 85q73 -11 126 -11t79.5 31.5t29.5 114.5l16 336h-267q-11 -95 -33 -174t-59 -153.5t-94.5 -137t-133.5 -110.5l-68 78q135 86 200.5 207.5t85.5 289.5h-265v86h273q5 72 5 182z
" />
    <glyph glyph-name="glyph680" unicode="&#x30ac;" horiz-adv-x="1067" 
d="M363 759h102q0 -93 -6 -182h365l-19 -427q-5 -120 -54 -173.5t-150 -53.5q-63 0 -125 12l-8 85q73 -11 126 -11t79 31.5t30 114.5l15 336h-266q-12 -95 -33.5 -174t-58.5 -153.5t-94.5 -137t-133.5 -110.5l-68 78q134 86 200 207.5t86 289.5h-265v86h273q5 72 5 182z
M688 742l61 24q54 -72 78 -141l-62 -23q-29 75 -77 140zM797 779l60 24q51 -66 79 -142l-62 -22q-27 72 -77 140z" />
    <glyph glyph-name="glyph681" unicode="&#x30ad;" horiz-adv-x="1065" 
d="M93 568l317 38l-21 170l102 12l21 -169l316 38l11 -86l-317 -39l24 -207l350 43l11 -86l-349 -43l34 -294l-101 -13l-35 294l-348 -43l-12 87l349 43l-25 207l-315 -39z" />
    <glyph glyph-name="glyph682" unicode="&#x30ae;" horiz-adv-x="1065" 
d="M735 631l11 -85l-260 -32l24 -207l349 43l11 -86l-349 -43l35 -294l-101 -13l-36 294l-348 -43l-11 87l349 43l-25 207l-316 -39l-11 87l316 38l-20 170l102 12l21 -170zM695 745l61 23q54 -72 78 -141l-62 -22q-29 75 -77 140zM804 782l60 24q52 -67 79 -142l-62 -22
q-27 71 -77 140z" />
    <glyph glyph-name="glyph683" unicode="&#x30af;" horiz-adv-x="1065" 
d="M454 644h406v-86q-31 -217 -167 -375.5t-350 -251.5l-61 83q198 79 323.5 220.5t151.5 323.5h-344q-79 -151 -192 -260l-82 61q87 81 156 194.5t104 235.5l97 -34q-19 -56 -42 -111z" />
    <glyph glyph-name="glyph684" unicode="&#x30b0;" horiz-adv-x="1066" 
d="M145 281l-82 62q86 80 155 194t104 235l97 -33q-18 -56 -42 -112h350q14 -24 23 -50l34 13v-48q-31 -217 -167 -376t-350 -251l-61 83q198 79 323.5 220.5t150.5 323.5h-344q-79 -151 -191 -261zM685 744l61 23q53 -72 77 -141l-61 -22q-29 75 -77 140zM794 780l60 25
q51 -67 79 -142l-63 -22q-26 71 -76 139z" />
    <glyph glyph-name="glyph685" unicode="&#x30b1;" horiz-adv-x="1065" 
d="M152 295l-82 61q87 81 156 195t104 235l97 -34q-28 -84 -66 -164h569v-86h-258v-62q0 -187 -103.5 -317.5t-286.5 -188.5l-48 92q158 45 247 154.5t89 259.5v62h-256q-67 -114 -162 -207z" />
    <glyph glyph-name="glyph686" unicode="&#x30b2;" horiz-adv-x="1065" 
d="M133 279l-82 61q86 81 155 194.5t104 235.5l97 -34q-27 -84 -65 -164h568v-86h-257v-62q0 -187 -103.5 -318t-287.5 -188l-48 91q158 46 247.5 155.5t89.5 259.5v62h-256q-68 -114 -162 -207zM701 741l61 24q54 -72 78 -141l-61 -23q-30 75 -78 140zM810 778l60 24
q52 -66 79 -141l-62 -23q-27 72 -77 140z" />
    <glyph glyph-name="glyph687" unicode="&#x30b3;" horiz-adv-x="1067" 
d="M850 699v-678h-700v85h599v508h-588v85h689z" />
    <glyph glyph-name="glyph688" unicode="&#x30b4;" horiz-adv-x="1067" 
d="M783 564v-615h-695v86h594v506h-583v86h590q21 -32 39 -83zM664 710l62 23q53 -72 77 -141l-61 -22q-30 75 -78 140zM774 746l60 25q51 -67 78 -142l-62 -23q-27 72 -76 140z" />
    <glyph glyph-name="glyph689" unicode="&#x30b5;" horiz-adv-x="1067" 
d="M658 398v113h-307v-310h-102v310h-183v85h183v173h102v-173h307v186h102v-186h174v-85h-174v-118q0 -191 -101.5 -299.5t-301.5 -155.5q-5 9 -25 44t-25 44q178 37 264.5 126t86.5 246z" />
    <glyph glyph-name="glyph690" unicode="&#x30b6;" horiz-adv-x="1067" 
d="M622 377v113h-297v-310h-102v310h-182v85h182v173h102v-173h297v186h80q2 -5 10 -21.5t13 -25.5v-139h183v-85h-183v-118q0 -192 -98 -300t-295 -155q-6 9 -25.5 44t-24.5 44q175 37 257.5 125.5t82.5 246.5zM725 763l63 15q45 -78 59 -150l-63 -14q-18 73 -59 149z
M837 787l63 16q46 -82 59 -150l-63 -15q-19 75 -59 149z" />
    <glyph glyph-name="glyph691" unicode="&#x30b7;" horiz-adv-x="1065" 
d="M404 395l-34 -85q-125 59 -279 96l25 88q162 -38 288 -99zM822 566l87 -54q-192 -433 -732 -548l-45 92q520 103 690 510zM482 631l-50 -78q-122 76 -269 119l36 84q163 -49 283 -125z" />
    <glyph glyph-name="glyph692" unicode="&#x30b8;" horiz-adv-x="1065" 
d="M394 358l-34 -84q-125 58 -279 96l25 87q162 -37 288 -99zM812 530l87 -54q-192 -434 -732 -548l-45 92q520 103 690 510zM472 595l-50 -78q-122 76 -269 119l37 84q162 -50 282 -125zM670 731l61 23q54 -72 78 -140l-61 -23q-30 75 -78 140zM779 768l61 24
q51 -66 78 -142l-62 -22q-27 72 -77 140z" />
    <glyph glyph-name="glyph693" unicode="&#x30b9;" horiz-adv-x="1067" 
d="M145 -28l-59 78q208 94 362.5 258.5t204.5 360.5h-498v85h601v-83q-48 -178 -154 -327q165 -137 312 -313l-79 -66q-132 172 -291 306q-159 -187 -399 -299z" />
    <glyph glyph-name="glyph694" unicode="&#x30ba;" horiz-adv-x="1065" 
d="M579 294q165 -137 312 -313l-79 -66q-132 172 -290 306q-160 -187 -399 -299l-60 78q208 94 362.5 258.5t204.5 360.5h-498v85h559q26 -40 42 -73v-10q-48 -177 -154 -327zM692 743l61 24q54 -72 78 -141l-61 -23q-30 75 -78 140zM801 780l60 24q52 -66 79 -141l-62 -23
q-27 72 -77 140z" />
    <glyph glyph-name="glyph695" unicode="&#x30bb;" horiz-adv-x="1065" 
d="M296 129v321l-195 -13l-6 86l201 12v244h101v-237l503 32l5 -78q-21 -105 -94 -186t-181 -130l-57 75q84 39 143 99t81 130l-400 -27v-324q0 -26 1.5 -41.5t10.5 -28.5t21.5 -19t40 -10.5t59.5 -5.5t86 -1q159 0 285 10l-4 -87q-120 -9 -282 -9q-72 0 -120 3t-85.5 11.5
t-58 20.5t-34 35t-17.5 49.5t-4 68.5z" />
    <glyph glyph-name="glyph696" unicode="&#x30bc;" horiz-adv-x="1065" 
d="M258 107v321l-195 -13l-6 86l201 12v244h101v-237l503 32l5 -78q-21 -105 -93.5 -186t-180.5 -130l-57 75q84 39 143 99t80 130l-400 -26v-325q0 -26 2 -41.5t11 -28.5t21 -19t39.5 -10.5t59.5 -5.5t87 -1q159 0 284 10l-4 -87q-119 -9 -281 -9q-72 0 -120 3t-85.5 11.5
t-58.5 20.5t-34.5 35t-17.5 49.5t-4 68.5zM695 740l61 23q54 -72 78 -141l-62 -22q-29 75 -77 140zM804 776l60 25q52 -67 79 -142l-62 -22q-27 71 -77 139z" />
    <glyph glyph-name="glyph697" unicode="&#x30bd;" horiz-adv-x="1067" 
d="M382 447l-88 -44q-57 142 -151 267l86 48q95 -132 153 -271zM757 749l100 -18q-35 -316 -176.5 -498t-409.5 -262l-48 88q239 65 371.5 234t162.5 456z" />
    <glyph glyph-name="glyph698" unicode="&#x30be;" horiz-adv-x="1067" 
d="M344 400l-87 -44q-58 142 -151 266l85 48q95 -131 153 -270zM699 573l101 -20q-51 -254 -189 -406t-378 -224l-48 89q211 57 339 195t175 366zM646 736l62 23q52 -68 77 -141l-61 -22q-30 75 -78 140zM756 772l60 25q51 -67 78 -142l-62 -23q-27 72 -76 140z" />
    <glyph glyph-name="glyph699" unicode="&#x30bf;" horiz-adv-x="1067" 
d="M585 211q-94 76 -220 142l59 78q122 -61 225 -141q87 120 108 268h-344q-79 -151 -192 -260l-81 61q86 81 155 194.5t104 235.5l97 -34q-18 -56 -42 -111h406v-86q-30 -217 -166 -375.5t-350 -251.5l-61 83q181 73 302 197z" />
    <glyph glyph-name="glyph700" unicode="&#x30c0;" horiz-adv-x="1067" 
d="M519 204q-86 68 -208 133l59 78q121 -62 212 -132q81 117 101 259h-344q-79 -151 -192 -261l-82 62q86 80 155.5 194t103.5 235l97 -33q-18 -56 -41 -112h350q13 -24 22 -50l34 13v-48q-31 -217 -167 -376t-350 -251l-61 83q189 75 311 206zM687 744l61 23
q54 -72 78 -141l-62 -22q-29 75 -77 140zM796 780l60 25q51 -67 79 -142l-62 -22q-27 71 -77 139z" />
    <glyph glyph-name="glyph701" unicode="&#x30c1;" horiz-adv-x="1067" 
d="M578 361v-20q0 -165 -89.5 -262.5t-266.5 -141.5l-36 90q145 33 217.5 108.5t72.5 204.5v21h-384v86h384v176q-148 -20 -296 -25l-23 86q165 0 339 26.5t289 72.5l42 -78q-98 -38 -249 -65v-193h330v-86h-330z" />
    <glyph glyph-name="glyph702" unicode="&#x30c2;" horiz-adv-x="1067" 
d="M552 361v-20q0 -165 -89.5 -262.5t-265.5 -141.5l-37 90q145 33 217.5 108.5t72.5 204.5v21h-384v86h384v176q-147 -20 -296 -25l-22 86q165 0 338.5 26.5t288.5 72.5l42 -78q-97 -38 -249 -65v-193h331v-86h-331zM686 622l61 24q54 -72 78 -141l-62 -23q-29 75 -77 140z
M795 659l60 25q51 -67 79 -142l-63 -23q-26 72 -76 140z" />
    <glyph glyph-name="glyph703" unicode="&#x30c3;" horiz-adv-x="1065" 
d="M334 284l-88 -24q-28 127 -86 249l87 29q60 -117 87 -254zM743 557l97 -17q-31 -267 -150.5 -422.5t-345.5 -222.5l-45 85q199 55 308 195t136 382zM545 324l-89 -26q-29 134 -87 249l87 31q56 -113 89 -254z" />
    <glyph glyph-name="glyph704" unicode="&#x30c4;" horiz-adv-x="1067" 
d="M294 421l-94 -27q-31 151 -100 287l93 34q67 -137 101 -294zM800 737l100 -18q-36 -315 -177 -499t-408 -262l-48 89q238 64 370 232.5t163 457.5zM545 468l-93 -27q-32 151 -100 287l92 34q68 -137 101 -294z" />
    <glyph glyph-name="glyph705" unicode="&#x30c5;" horiz-adv-x="1067" 
d="M268 387l-94 -28q-32 152 -100 288l93 33q67 -137 101 -293zM752 563l99 -21q-53 -249 -190 -399.5t-373 -219.5l-48 89q208 56 335 191.5t177 359.5zM519 433l-94 -27q-32 152 -100 288l93 33q67 -137 101 -294zM678 736l60 23q54 -70 79 -141l-61 -22q-30 75 -78 140z
M786 772l62 25q51 -67 78 -142l-62 -23q-27 74 -78 140z" />
    <glyph glyph-name="glyph706" unicode="&#x30c6;" horiz-adv-x="1067" 
d="M910 502v-86h-347q0 -196 -81 -305t-268 -161l-45 83q161 41 226.5 130t65.5 253h-371v86h820zM812 770v-85h-624v85h624z" />
    <glyph glyph-name="glyph707" unicode="&#x30c7;" horiz-adv-x="1065" 
d="M871 469v-86h-347q0 -196 -81 -305.5t-268 -160.5l-44 83q161 41 226 130t65 253h-371v86h820zM149 651v86h555q20 -42 36 -86h-591zM714 764l64 15q45 -79 59 -150l-63 -14q-18 73 -60 149zM827 787l63 16q45 -81 59 -150l-63 -15q-19 76 -59 149z" />
    <glyph glyph-name="glyph708" unicode="&#x30c8;" horiz-adv-x="1065" 
d="M327 779v-283q226 -52 446 -169l-45 -90q-194 111 -401 164v-460h-101v838h101z" />
    <glyph glyph-name="glyph709" unicode="&#x30c9;" horiz-adv-x="1067" 
d="M322 778v-282q226 -52 446 -170q-4 -7 -12.5 -24.5t-19 -39t-12.5 -25.5q-198 111 -402 164v-459h-101v836h101zM660 556l-61 -25q-30 80 -95 164l57 30q62 -74 99 -169zM779 595l-61 -25q-30 81 -95 164l58 29q64 -79 98 -168z" />
    <glyph glyph-name="glyph710" unicode="&#x30ca;" horiz-adv-x="1065" 
d="M924 548v-86h-356v-73q0 -189 -100.5 -297t-300.5 -155l-50 89q176 37 262.5 124.5t86.5 245.5v66h-390v86h390v235h102v-235h356z" />
    <glyph glyph-name="glyph711" unicode="&#x30cb;" horiz-adv-x="1065" 
d="M91 121h818v-86h-818v86zM842 599h-684v86h684v-86z" />
    <glyph glyph-name="glyph712" unicode="&#x30cc;" horiz-adv-x="1067" 
d="M203 -25l-60 77q228 80 385 237q-126 87 -261 158l52 77q142 -74 273 -165q110 137 149 300h-530v86h632v-84q-50 -203 -174 -358q103 -78 188 -156l-67 -74q-79 76 -184 157q-161 -164 -403 -255z" />
    <glyph glyph-name="glyph713" unicode="&#x30cd;" horiz-adv-x="1065" 
d="M797 559q-90 -133 -257 -244v-373h-102v313q-138 -75 -304 -130l-55 82q194 60 360 156.5t236 195.5h-531v86h294v133h102v-133h257v-86zM922 192l-58 -79q-129 99 -265 166l58 68q141 -62 265 -155z" />
    <glyph glyph-name="glyph714" unicode="&#x30ce;" horiz-adv-x="1067" 
d="M716 749l100 -17q-35 -317 -176.5 -501t-407.5 -260l-48 87q237 64 369.5 233.5t162.5 457.5z" />
    <glyph glyph-name="glyph715" unicode="&#x30cf;" horiz-adv-x="1065" 
d="M282 758l101 -6q-9 -489 -239 -792l-82 62q107 138 163 325.5t57 410.5zM937 25l-82 -62q-227 282 -256 789l101 8q8 -223 68.5 -411.5t168.5 -323.5z" />
    <glyph glyph-name="glyph716" unicode="&#x30d0;" horiz-adv-x="1067" 
d="M270 714l101 -6q-10 -489 -239 -792l-83 62q107 139 163 326t58 410zM925 -19l-83 -62q-226 282 -256 789l101 8q9 -222 69.5 -411t168.5 -324zM716 764l63 15q45 -78 59 -150l-63 -14q-18 73 -59 149zM828 788l63 16q46 -82 60 -150l-64 -15q-18 75 -59 149z" />
    <glyph glyph-name="glyph717" unicode="&#x30d1;" horiz-adv-x="1065" 
d="M269 711l101 -7q-10 -488 -239 -792l-83 63q107 138 163 325t58 411zM924 -22l-83 -63q-226 282 -256 789l101 9q9 -223 69.5 -412t168.5 -323zM952 704q0 -45 -30.5 -74t-77 -29t-77.5 29t-31 74t31 74.5t77.5 29.5t77 -29.5t30.5 -74.5zM892 704q0 21 -13 34.5
t-34.5 13.5t-34.5 -13.5t-13 -34.5t13 -35t34.5 -14t34.5 14t13 35z" />
    <glyph glyph-name="glyph718" unicode="&#x30d2;" horiz-adv-x="1066" 
d="M162 144v620h102v-309q117 29 242.5 79.5t224.5 111.5l57 -83q-106 -61 -245.5 -114.5t-278.5 -90.5v-215q0 -24 2 -38.5t12 -27t24.5 -18.5t45 -10.5t68.5 -5.5t100 -1q198 0 320 10l-4 -86q-129 -10 -317 -10q-81 0 -135 3t-95 12.5t-64 21.5t-37 35t-18 49t-4 67z" />
    <glyph glyph-name="glyph719" unicode="&#x30d3;" horiz-adv-x="1065" 
d="M147 112v619h102v-328q117 28 242.5 79t224.5 112l57 -84q-106 -60 -245.5 -114t-278.5 -90v-195q0 -24 2 -38.5t12 -27t24.5 -18.5t45.5 -10.5t68.5 -5.5t99.5 -1q198 0 320 10l-4 -87q-128 -9 -317 -9q-81 0 -135 3t-95 12t-64 21.5t-37 35.5t-18 49t-4 67zM606 735
l60 23q51 -66 79 -141l-63 -22q-25 68 -76 140zM714 771l61 25q54 -73 78 -142l-61 -23q-31 79 -78 140z" />
    <glyph glyph-name="glyph720" unicode="&#x30d4;" horiz-adv-x="1065" 
d="M799 695q0 21 -13.5 34.5t-33.5 13.5q-22 0 -35 -13.5t-13 -34.5t13 -35t35 -14q20 0 33.5 14t13.5 35zM141 109v620h102v-329q117 29 243 79.5t225 111.5l57 -84q-106 -60 -246 -113.5t-279 -90.5v-195q0 -24 2.5 -38t12 -27t24.5 -18.5t45.5 -10t68.5 -6t99 -1.5
q198 0 321 11l-4 -87q-129 -9 -318 -9q-80 0 -134.5 3t-95.5 12t-63.5 21.5t-36.5 35t-18.5 48.5t-4.5 67zM859 695.5q0 -45.5 -30.5 -75t-77 -29.5t-77.5 29.5t-31 75t31 74t77.5 28.5t77 -28.5t30.5 -74z" />
    <glyph glyph-name="glyph721" unicode="&#x30d5;" horiz-adv-x="1067" 
d="M850 732v-82q-8 -264 -163.5 -434t-438.5 -228l-47 90q260 48 399.5 195t147.5 373h-598v86h700z" />
    <glyph glyph-name="glyph722" unicode="&#x30d6;" horiz-adv-x="1065" 
d="M88 576v86h599q20 -36 41 -87l61 21v-16q-8 -264 -163.5 -434.5t-439.5 -227.5l-46 89q260 49 399.5 195.5t147.5 373.5h-599zM663 741l61 24q54 -72 78 -141l-61 -23q-30 75 -78 140zM772 778l60 24q52 -66 79 -141l-62 -23q-27 72 -77 140z" />
    <glyph glyph-name="glyph723" unicode="&#x30d7;" horiz-adv-x="1065" 
d="M919 701.5q0 -45.5 -30 -74.5t-77 -29q-18 0 -31 4v-25q-8 -264 -163.5 -434t-438.5 -228l-47 90q260 48 399.5 195t147.5 373h-598v86h631q-8 21 -8 43q0 45 31 74t77.5 29t76.5 -29t30 -74.5zM859 702q0 21 -13 34.5t-34 13.5t-34.5 -13.5t-13.5 -34.5
q0 -22 13.5 -35.5t34.5 -13.5t34 13.5t13 35.5z" />
    <glyph glyph-name="glyph724" unicode="&#x30d8;" horiz-adv-x="1067" 
d="M950 132l-71 -74q-253 215 -458 481q-24 32 -37 32q-7 0 -16 -10t-30 -41q-81 -117 -212 -261l-76 67q107 99 220 259q29 40 56.5 58.5t61.5 18.5q63 0 114 -70q189 -257 448 -460z" />
    <glyph glyph-name="glyph725" unicode="&#x30d9;" horiz-adv-x="1065" 
d="M950 79l-71 -74q-253 215 -458 481q-24 32 -37 32q-7 0 -16 -10t-30 -41q-81 -117 -212 -261l-76 67q107 99 220 259q29 40 56.5 58t61.5 18q63 0 114 -69q189 -257 448 -460zM790 509l-61 -25q-30 80 -95 163l57 30q63 -76 99 -168zM909 546l-61 -24q-30 79 -95 163
l57 30q63 -76 99 -169z" />
    <glyph glyph-name="glyph726" unicode="&#x30da;" horiz-adv-x="1065" 
d="M950 84l-72 -73q-252 214 -457 481q-24 31 -38 31q-6 0 -15 -9.5t-31 -41.5q-80 -116 -211 -260l-76 66q106 100 220 260q29 40 56.5 58t61.5 18q63 0 114 -69q189 -258 448 -461zM774.5 503q-46.5 0 -77 28.5t-30.5 74t30.5 74.5t77 29t76.5 -29t30 -74.5t-30 -74
t-76.5 -28.5zM774.5 557q21.5 0 34.5 13.5t13 35.5t-13 35.5t-34.5 13.5t-35 -13.5t-13.5 -35.5t13.5 -35.5t35 -13.5z" />
    <glyph glyph-name="glyph727" unicode="&#x30db;" horiz-adv-x="1066" 
d="M259 437l85 -42q-72 -187 -199 -328l-79 61q119 130 193 309zM448 62v472h-362v86h362v158h102v-158h361v-86h-361v-465q0 -74 -26 -100.5t-95 -26.5q-58 0 -106 11l-6 86q58 -11 95 -11q19 0 27.5 7.5t8.5 26.5zM652 396l86 41q76 -180 193 -309l-79 -60
q-127 141 -200 328z" />
    <glyph glyph-name="glyph728" unicode="&#x30dc;" horiz-adv-x="1065" 
d="M255 415l85 -42q-73 -187 -199 -329l-79 61q118 130 193 310zM444 40v456h-362v86h362v173h101v-173h362v-86h-362v-450q0 -74 -25.5 -100t-94.5 -26q-58 0 -106 11l-6 86q58 -12 95 -12q19 0 27.5 8t8.5 27zM648 374l86 41q76 -180 193 -310l-79 -60q-127 142 -201 329
h1zM690 739l62 24q53 -72 77 -141l-61 -23q-30 75 -78 140zM800 776l60 24q51 -66 78 -141l-62 -23q-27 72 -76 140z" />
    <glyph glyph-name="glyph729" unicode="&#x30dd;" horiz-adv-x="1067" 
d="M258 412l86 -42q-73 -187 -199 -328l-80 61q119 129 193 309zM448 37v457h-362v85h362v174h101v-174h361v-85h-361v-450q0 -74 -25.5 -100.5t-94.5 -26.5q-58 0 -107 11l-6 86q58 -11 95 -11q20 0 28.5 7.5t8.5 26.5zM651 371l87 41q75 -180 193 -309l-80 -60
q-126 141 -200 328zM935 699.5q0 -45.5 -30.5 -74.5t-77 -29t-77.5 29t-31 74.5t31 74.5t77.5 29t77 -29t30.5 -74.5zM875 700q0 21 -13.5 34.5t-33.5 13.5q-22 0 -35 -13.5t-13 -34.5q0 -22 13 -35.5t35 -13.5q20 0 33.5 13.5t13.5 35.5z" />
    <glyph glyph-name="glyph730" unicode="&#x30de;" horiz-adv-x="1065" 
d="M750 48l-75 -65q-179 215 -439 402l68 71q112 -82 192 -153q103 74 183 167t114 181h-690v86h795v-84q-47 -116 -135.5 -222.5t-196.5 -189.5q103 -98 184 -193z" />
    <glyph glyph-name="glyph731" unicode="&#x30df;" horiz-adv-x="1067" 
d="M854 46l-24 -83q-317 90 -687 118l3 86q364 -28 708 -121zM196 387l3 85q323 -20 576 -85l-26 -82q-235 60 -553 82zM857 677l-24 -82q-295 65 -625 76l3 86q347 -17 646 -80z" />
    <glyph glyph-name="glyph732" unicode="&#x30e0;" horiz-adv-x="1065" 
d="M166 93q136 311 246 684l103 -16q-106 -343 -245 -664q275 10 496 32q-76 152 -178 288l86 48q173 -240 263 -482l-92 -40q-25 69 -47 117q-303 -37 -721 -55l-14 85q33 1 103 3z" />
    <glyph glyph-name="glyph733" unicode="&#x30e1;" horiz-adv-x="1065" 
d="M880 175l-74 -68q-90 103 -202 194q-153 -208 -424 -352l-60 81q256 133 402 334q-139 100 -291 178l49 86q151 -75 296 -180q84 143 121 323l98 -26q-43 -204 -136 -361q125 -102 221 -209z" />
    <glyph glyph-name="glyph734" unicode="&#x30e2;" horiz-adv-x="1067" 
d="M829 661h-340v-209h414v-85h-414v-201q0 -26 2 -42t10 -28.5t18 -19t31.5 -10.5t45.5 -5.5t64 -1.5q88 0 214 11l-6 -87q-119 -9 -212 -9q-59 0 -99 3t-71.5 11.5t-49.5 21.5t-29.5 35t-15.5 49t-4 67v206h-290v85h290v209h-228v85h670v-85z" />
    <glyph glyph-name="glyph735" unicode="&#x30e3;" horiz-adv-x="1065" 
d="M149 290l-17 83l208 40l-50 177l95 27l52 -186l418 79l13 -72q-39 -167 -195 -297l-64 63q54 45 96 100t61 107l-306 -61l122 -432l-96 -26l-123 440z" />
    <glyph glyph-name="glyph736" unicode="&#x30e4;" horiz-adv-x="1065" 
d="M66 498l251 48l-61 216l99 26l63 -223l501 95l15 -75q-21 -100 -80.5 -190t-145.5 -163l-68 68q67 53 116.5 122t68.5 134l-383 -75l149 -522l-100 -27l-150 530l-258 -50z" />
    <glyph glyph-name="glyph737" unicode="&#x30e5;" horiz-adv-x="1067" 
d="M857 -16v-83h-714v83h461q38 174 38 412h-433v83h530v-73q0 -233 -36 -422h154z" />
    <glyph glyph-name="glyph738" unicode="&#x30e6;" horiz-adv-x="1067" 
d="M919 107v-86h-838v86h552q23 110 35 249.5t12 256.5h-521v86h622v-81q0 -114 -11.5 -254t-33.5 -257h183z" />
    <glyph glyph-name="glyph739" unicode="&#x30e7;" horiz-adv-x="1065" 
d="M699 149h-462v84h462v163h-489v83h588v-578h-596v83h497v165z" />
    <glyph glyph-name="glyph740" unicode="&#x30e8;" horiz-adv-x="1067" 
d="M749 318h-557v86h557v209h-588v86h689v-678h-700v86h599v211z" />
    <glyph glyph-name="glyph741" unicode="&#x30e9;" horiz-adv-x="1067" 
d="M865 540v-87q-83 -417 -605 -496l-40 92q221 24 363 129.5t178 275.5h-626v86h730zM811 763v-86h-620v86h620z" />
    <glyph glyph-name="glyph742" unicode="&#x30ea;" horiz-adv-x="1065" 
d="M323 752v-492h-102v492h102zM678 412v360h101v-367q0 -98 -22.5 -171.5t-70 -127t-112.5 -91t-159 -67.5l-49 88q82 26 138 56t96.5 74t59 104.5t18.5 141.5z" />
    <glyph glyph-name="glyph743" unicode="&#x30eb;" horiz-adv-x="1066" 
d="M245 745h102v-171q0 -211 -46.5 -355t-169.5 -268l-81 64q109 105 153 235.5t42 321.5v173zM612 769v-704q89 32 156 119t81 207l98 -29q-23 -150 -116.5 -256t-231.5 -146h-89v809h102z" />
    <glyph glyph-name="glyph744" unicode="&#x30ec;" horiz-adv-x="1067" 
d="M259 759v-704q77 6 147.5 34.5t135.5 81t118 138.5t86 197l97 -29q-32 -105 -80.5 -189.5t-105.5 -142t-126 -97.5t-139.5 -60.5t-149.5 -26.5h-85v798h102z" />
    <glyph glyph-name="glyph745" unicode="&#x30ed;" horiz-adv-x="1065" 
d="M864 699v-678h-728v678h728zM238 106h525v508h-525v-508z" />
    <glyph glyph-name="glyph746" unicode="&#x30ee;" horiz-adv-x="1065" 
d="M808 552v-167q0 -189 -102.5 -311.5t-315.5 -177.5l-46 90q365 85 365 398v85h-418v-221h-99v304h616z" />
    <glyph glyph-name="glyph747" unicode="&#x30ef;" horiz-adv-x="1067" 
d="M862 745v-195q0 -223 -120 -366.5t-372 -208.5l-49 91q440 101 440 483v111h-521v-269h-102v354h724z" />
    <glyph glyph-name="glyph748" unicode="&#x30f0;" horiz-adv-x="1065" 
d="M724 224h206v-86h-206v-197h-103v197h-551v86h204v327h-160v86h507v142h103v-142h174v-86h-174v-327zM621 224v327h-244v-327h244z" />
    <glyph glyph-name="glyph749" unicode="&#x30f1;" horiz-adv-x="1065" 
d="M608 417q57 40 102.5 93t65.5 104h-649v85h757v-77q-26 -79 -82.5 -150t-124.5 -121zM527 106h403v-85h-860v85h355v410h102v-410z" />
    <glyph glyph-name="glyph750" unicode="&#x30f2;" horiz-adv-x="1065" 
d="M149 747h700v-81q-7 -285 -161.5 -460t-440.5 -233l-47 89q342 65 471 295h-489v86h528q33 97 37 219h-598v85z" />
    <glyph glyph-name="glyph751" unicode="&#x30f3;" horiz-adv-x="1065" 
d="M352 466q-97 110 -230 200l64 73q134 -92 234 -203zM804 583l87 -54q-192 -434 -732 -548l-45 92q520 103 690 510z" />
    <glyph glyph-name="glyph752" unicode="&#x30f4;" horiz-adv-x="1067" 
d="M807 626l-62 -22q-29 75 -77 140l61 23q54 -72 78 -141zM712 625q11 -21 21 -48l76 28v-119q0 -447 -499 -571l-47 91q223 49 333.5 171t110.5 309v54h-521v-246h-102v331h305v138h102v-138h221zM837 805q52 -67 79 -142l-62 -22q-27 71 -77 139z" />
    <glyph glyph-name="glyph753" unicode="&#x30f5;" horiz-adv-x="1065" 
d="M521 454h302l-15 -341q-4 -85 -22.5 -131.5t-51.5 -64.5t-91.5 -18t-119.5 11l-6 84q65 -11 109 -11q41 0 60 26t23 102l11 259h-207q-22 -161 -85.5 -281t-188.5 -196l-62 76q110 70 165 168.5t73 232.5h-219v84h227q4 65 4 154h99q0 -91 -5 -154z" />
    <glyph glyph-name="glyph143" unicode="&#x30fb;" horiz-adv-x="1067" 
d="M563 356v-137h-126v137h126z" />
    <glyph glyph-name="glyph4384" unicode="&#x3131;" horiz-adv-x="1069" 
d="M183 654h735v-588h-165v547h-570v41z" />
    <glyph glyph-name="glyph4385" unicode="&#x3132;" horiz-adv-x="1069" 
d="M168 533h765v-345h-164v305h-197v-305h-164v305h-240v40z" />
    <glyph glyph-name="glyph4386" unicode="&#x3133;" horiz-adv-x="1069" 
d="M962 236q0 -29 -5 -61h-164q5 9 13 25t21 55.5t13 68.5q0 64 -63 67l-77 -216h-164l131 371h164l-41 -116q23 -3 43.5 -8.5t45 -19t42 -34t29.5 -54.5t12 -78zM139 546h395v-371h-165v330h-230v41z" />
    <glyph glyph-name="glyph4387" unicode="&#x3134;" horiz-adv-x="1069" 
d="M398 187q18 -8 94.5 -11t196 5t229.5 27v-41q-398 -105 -591 -75q-28 4 -40 9q-51 22 -77.5 64t-26.5 88v381h165v-372v-1q0 -50 50 -74z" />
    <glyph glyph-name="glyph4388" unicode="&#x3135;" horiz-adv-x="1069" 
d="M941 235q0 -29 -5 -61h-164q5 9 13 25t21 55.5t13 68.5q0 68 -71 68h-6l-76 -217h-165l118 333h-85v41h360v-41h-111l-27 -77q22 -1 43 -5.5t48 -17.5t46.5 -33t33.5 -56t14 -83zM324 215h172v-41h-336v374h164v-333z" />
    <glyph glyph-name="glyph4389" unicode="&#x3136;" horiz-adv-x="1069" 
d="M713 188q7 0 15 1t22.5 6.5t26 14t20 27t8.5 43.5t-8.5 43.5t-20 27t-26 14t-22.5 6.5t-15 1h-2h-2q-7 0 -15 -1t-23 -6.5t-26 -14t-19.5 -27t-8.5 -43.5t8.5 -43.5t19.5 -27t26 -14t23 -6.5t15 -1h2h2zM715 401q13 0 27.5 -1t41.5 -4.5t50.5 -12t46 -20.5t36 -33.5
t13.5 -49t-13.5 -49.5t-36 -34t-46 -20.5t-50.5 -12t-41.5 -4.5t-27.5 -1h-4h-5q-12 0 -26.5 1t-42 4.5t-50.5 12t-46 21t-36 34t-13 49t13 49t36 33.5t46 20.5t50.5 12t42 4.5t26.5 1h5h4zM793 469h157v-41h-478v41h157v93h164v-93zM315 216h172v-41h-336v374h164v-333z
" />
    <glyph glyph-name="glyph4390" unicode="&#x3137;" horiz-adv-x="1069" 
d="M918 594h-570v-332v-1q0 -50 50 -74q18 -8 94.5 -11t196 5t229.5 27v-41q-137 -36 -252 -56t-182 -23t-114 -0.5t-65 7.5l-18 6q-51 22 -77.5 64t-26.5 88v381h735v-40z" />
    <glyph glyph-name="glyph4391" unicode="&#x3138;" horiz-adv-x="1068" 
d="M669 187q11 -6 20 -9.5t35.5 -7.5t75.5 0.5t118 17.5v-41q-73 -27 -136.5 -41t-100 -17.5t-68.5 0t-39.5 6t-15.5 6.5q-12 5 -23 12q-50 -13 -94 -19t-71.5 -5.5t-47.5 3t-29 6.5l-8 3q-51 22 -77.5 64t-26.5 88v381h734v-40h-297v-333q1 -43 51 -74zM396 187
q29 -18 82 -18q-24 39 -24 84v341h-109v-333q0 -43 51 -74z" />
    <glyph glyph-name="glyph4392" unicode="&#x3139;" horiz-adv-x="1069" 
d="M918 373h-570v-135v-1q0 -50 50 -73q18 -9 94.5 -11.5t196 5t229.5 26.5v-41q-137 -36 -252 -56t-182 -23t-114 -0.5t-65 7.5l-18 6q-51 22 -77.5 64t-26.5 88v185h570v203h-570v41h735v-285z" />
    <glyph glyph-name="glyph4393" unicode="&#x313a;" horiz-adv-x="1069" 
d="M551 548h367v-374h-165v333h-202v41zM529 358l-181 1v-144h181v-41h-346v225h181v108h-181v41h346v-190z" />
    <glyph glyph-name="glyph4394" unicode="&#x313b;" horiz-adv-x="1069" 
d="M753 215v292h-44v-292h44zM544 548h374v-374h-374v374zM529 358l-181 1v-144h181v-41h-346v225h181v108h-181v41h346v-190z" />
    <glyph glyph-name="glyph4395" unicode="&#x313c;" horiz-adv-x="1069" 
d="M753 215v126h-44v-126h44zM753 548h165v-374h-374v374h165v-167h44v167zM529 358l-181 1v-144h181v-41h-346v225h181v108h-181v41h346v-190z" />
    <glyph glyph-name="glyph4396" unicode="&#x313d;" horiz-adv-x="1069" 
d="M941 235q0 -29 -5 -61h-164q5 9 13 25t21.5 55.5t13.5 68.5q0 58 -53 67l-76 -216h-165l132 374h165l-43 -120q22 -4 42 -10t42.5 -20.5t39 -34.5t27 -53t10.5 -75zM505 358l-180 1v-144h180v-41h-345v225h181v108h-181v41h345v-190z" />
    <glyph glyph-name="glyph4397" unicode="&#x313e;" horiz-adv-x="1069" 
d="M918 507h-209v-126h209v-40h-209v-126h209v-41h-374v374h374v-41zM529 358l-181 1v-144h181v-41h-346v225h181v108h-181v41h346v-190z" />
    <glyph glyph-name="glyph4398" unicode="&#x313f;" horiz-adv-x="1069" 
d="M758 334v173h-60v-173q0 -55 7 -80.5t23 -32.5q16 7 23 32.5t7 80.5zM909 278q0 -35 -22 -63h42v-41h-402v41h42q-21 28 -21 63v229h-21v41h402v-41h-20v-229zM510 358l-174 1v-144h174v-41h-338v225h174v108h-174v41h338v-190z" />
    <glyph glyph-name="glyph4399" unicode="&#x3140;" horiz-adv-x="1069" 
d="M724 188q5 0 11.5 1t19 6.5t21.5 14t16 27t7 43.5t-7 43.5t-16 27t-21.5 14t-19 6.5t-11.5 1h-2h-1q-6 0 -12.5 -1t-18.5 -6.5t-21 -14t-16 -27t-7 -43.5t7 -43.5t16 -27t21 -14t18.5 -6.5t12.5 -1h1h2zM726 401q12 0 25.5 -1t39 -4.5t47 -12t42.5 -20.5t33.5 -33.5
t12.5 -49t-12.5 -49.5t-33.5 -34t-42.5 -20.5t-47 -12t-39 -4.5t-25.5 -1h-4h-4q-11 0 -25 1t-39 4.5t-47 12t-43 21t-33.5 34t-12.5 49t12.5 49t33.5 33.5t43 20.5t47 12t39 4.5t25 1h4h4zM804 469h133v-41h-430v41h133v93h164v-93zM503 360h-175v-144h175v-41h-339v226
h174v108h-174v40h339v-189z" />
    <glyph glyph-name="glyph4400" unicode="&#x3141;" horiz-adv-x="1069" 
d="M183 634h735v-467q-137 -36 -252 -56t-182 -23t-114 -0.5t-65 7.5l-18 6q-51 22 -77.5 64t-26.5 88v381zM753 186v408h-405v-332v-1q0 -50 50 -74q21 -10 121 -11t234 10z" />
    <glyph glyph-name="glyph4401" unicode="&#x3142;" horiz-adv-x="1069" 
d="M753 634h165v-467q-137 -36 -252 -56t-182 -23t-114 -0.5t-65 7.5l-18 6q-51 22 -77.5 64t-26.5 88v381h165v-206h405v206zM753 186v201h-405v-125v-1q0 -50 50 -74q21 -10 121 -11t234 10z" />
    </font>
</defs>
</svg>
