<svg width="580" height="260" viewBox="0 0 580 260" fill="none" xmlns="http://www.w3.org/2000/svg">
<rect width="580" height="260" fill="black"/>
<path d="M182.899 124.566C181.765 124.503 180.883 124.125 180.127 123.369C179.371 122.613 178.993 121.731 178.993 120.597V106.611H194.932V82.923H168.598V85.506H184.537V104.091H168.598V124.125C168.598 125.952 169.228 127.527 170.551 128.787C171.811 130.047 173.386 130.677 175.213 130.677C175.339 130.677 175.843 130.74 176.599 130.74C177.355 130.74 177.985 130.74 178.363 130.74C178.741 130.74 179.371 130.677 180.379 130.551C181.324 130.425 182.332 130.236 183.34 129.921C184.348 129.669 185.671 129.291 187.246 128.787C188.758 128.346 190.585 127.716 192.727 126.897C194.806 126.141 197.137 125.196 199.72 124.062V138.552H209.359V82.419H199.72V112.596H189.388V115.179H199.72V121.29C190.9 123.558 185.293 124.692 182.899 124.566ZM211.69 139.434H221.329V81.537H211.69V139.434ZM251.515 123.999C249.058 124.503 247.42 124.503 246.538 124.125C244.648 123.432 243.766 122.235 243.766 120.597V105.351H251.515V123.999ZM251.515 82.923V102.768H243.766V82.923H233.371V124.125C233.371 125.952 234.001 127.527 235.261 128.787C236.521 130.047 238.096 130.677 239.923 130.677C240.049 130.677 240.427 130.74 240.994 130.74C241.498 130.74 241.876 130.74 242.002 130.74C242.128 130.74 242.506 130.677 243.073 130.614C243.577 130.551 244.081 130.425 244.459 130.299C244.837 130.173 245.404 130.047 246.223 129.795C246.979 129.543 247.861 129.291 248.743 128.913C249.625 128.598 250.696 128.157 252.019 127.653C253.279 127.149 254.728 126.582 256.366 125.889C257.941 125.196 259.768 124.377 261.847 123.495H261.91V105.855H266.257V138.552H275.896V82.419H266.257V103.335H261.91V82.923H251.515ZM278.227 139.434H287.866V81.537H278.227V139.434ZM298.176 82.923V85.506H319.848V94.704C319.785 97.539 319.533 100.311 319.029 103.083H298.176V105.666H318.462C317.832 108.249 316.95 110.643 315.879 112.911C314.745 115.179 313.611 117.132 312.477 118.644C311.343 120.219 310.083 121.668 308.697 122.991C307.311 124.314 306.051 125.322 305.043 126.078C303.972 126.834 302.901 127.527 301.83 128.094C300.696 128.724 300.003 129.102 299.625 129.228C299.247 129.354 298.932 129.48 298.743 129.543L300.129 131.685C304.224 130.551 307.941 128.913 311.217 126.897C314.493 124.881 317.202 122.739 319.218 120.597C321.234 118.455 322.998 116.061 324.51 113.415C326.022 110.832 327.093 108.564 327.786 106.611C328.479 104.595 329.046 102.579 329.424 100.5C329.802 98.421 330.054 97.035 330.054 96.342C330.117 95.649 330.117 95.145 330.117 94.767V82.986L298.176 82.923ZM347.379 105.729V81.6H337.047V139.497H347.379V108.312H355.947V105.729H347.379ZM392.377 91.743V89.16H382.045V81.537H371.65V89.16H361.318V91.743H371.272L360.688 130.677H371.083L377.32 107.556C378.391 107.934 379.273 108.69 379.966 109.698C380.722 110.769 381.226 111.966 381.478 113.289C381.793 114.549 381.982 116.061 382.045 117.825C382.045 119.526 382.045 121.038 381.919 122.361C381.793 123.747 381.667 125.133 381.478 126.582C381.289 128.094 381.163 129.039 381.037 129.543C380.911 130.047 380.848 130.425 380.785 130.677H391.117C391.117 126.96 390.802 123.621 390.172 120.66C389.542 117.636 388.723 115.305 387.778 113.541C386.833 111.777 385.699 110.265 384.439 109.005C383.179 107.745 382.045 106.863 381.037 106.359C380.029 105.855 379.021 105.414 377.95 105.162L381.541 91.806L392.377 91.743ZM393.574 103.398H383.242V105.918H393.574V138.615H403.213V82.482H393.574V103.398ZM405.544 139.497H415.183V81.6H405.544V139.497Z" fill="white"/>
<path d="M218.326 181.392H211.22V166.636H218.326H218.564C218.734 166.636 218.972 166.704 219.244 166.772C219.516 166.84 219.822 166.976 220.162 167.112C220.502 167.248 220.808 167.52 221.148 167.86C221.488 168.234 221.794 168.676 222.066 169.152C222.338 169.662 222.576 170.342 222.746 171.192C222.916 172.008 223.018 172.96 223.018 174.014C223.018 175.068 222.916 176.02 222.746 176.87C222.542 177.686 222.338 178.366 222.066 178.876C221.794 179.386 221.488 179.828 221.114 180.168C220.774 180.508 220.434 180.78 220.128 180.95C219.856 181.086 219.55 181.222 219.21 181.29C218.87 181.358 218.666 181.426 218.53 181.426L218.326 181.392ZM226.248 183.772C225.84 183.432 225.398 183.126 224.922 182.854C224.31 182.48 223.63 182.208 222.916 182.004C222.984 181.97 223.018 181.97 223.018 181.97C223.834 181.596 224.582 181.12 225.262 180.542C226.282 179.726 227.098 178.808 227.642 177.72C228.254 176.564 228.56 175.34 228.56 174.014C228.56 172.722 228.254 171.464 227.642 170.308C227.098 169.22 226.282 168.302 225.262 167.486C223.29 165.854 220.876 165.038 218.088 165.038H205.61V196.284H211.186V182.99H215.198C217.238 182.99 218.972 183.602 220.4 184.758C221.828 185.948 222.542 187.376 222.542 189.042V196.318H228.866V189.042C228.866 186.968 228.016 185.2 226.248 183.772ZM237.974 185.982C237.974 184.894 238.076 183.942 238.28 183.058C238.45 182.174 238.654 181.494 238.892 180.95C239.13 180.406 239.402 179.964 239.742 179.59C240.082 179.216 240.354 178.944 240.626 178.774C240.898 178.638 241.17 178.502 241.476 178.434C241.748 178.366 241.952 178.298 242.054 178.298H242.292C242.632 178.298 243.04 178.366 243.516 178.536C245.488 179.42 246.508 181.902 246.61 185.982H237.974ZM253.104 185.982C253.036 184.826 252.73 183.704 252.22 182.616C251.608 181.392 250.826 180.338 249.84 179.42C247.732 177.55 245.216 176.598 242.292 176.598C239.368 176.598 236.852 177.55 234.778 179.42C233.758 180.338 232.942 181.392 232.364 182.616C231.752 183.908 231.48 185.234 231.48 186.628C231.48 188.056 231.752 189.416 232.364 190.674C232.942 191.898 233.758 192.986 234.778 193.87C236.852 195.74 239.368 196.658 242.292 196.658C245.216 196.658 247.732 195.74 249.84 193.87C250.792 192.986 251.574 191.966 252.152 190.81H246.202C245.998 191.626 245.692 192.34 245.352 192.952C245.012 193.564 244.672 193.972 244.366 194.21C244.026 194.482 243.686 194.652 243.346 194.788C242.972 194.924 242.734 194.992 242.598 194.992H242.292C241.952 195.026 241.544 194.924 241.102 194.72C239.13 193.87 238.076 191.422 237.974 187.376H253.104C253.104 187.206 253.138 187.002 253.138 186.798V186.628V186.492C253.138 186.356 253.104 186.186 253.104 185.982ZM268.302 195.162H268.2H268.132H268.098C267.554 195.162 266.976 195.094 266.432 194.89C265.888 194.686 265.412 194.482 265.072 194.244C264.698 194.006 264.324 193.734 263.984 193.428C263.644 193.156 263.406 192.952 263.304 192.816C263.202 192.714 263.134 192.612 263.1 192.51V180.474C263.746 179.862 264.494 179.42 265.378 179.08C266.262 178.774 266.908 178.604 267.316 178.57C267.724 178.536 268.064 178.502 268.37 178.502C268.506 178.502 268.676 178.536 268.88 178.536C269.05 178.57 269.322 178.638 269.662 178.774C270.002 178.91 270.342 179.08 270.648 179.284C270.988 179.488 271.328 179.794 271.668 180.202C272.008 180.61 272.314 181.12 272.586 181.698C272.858 182.242 273.062 182.99 273.232 183.874C273.402 184.758 273.47 185.778 273.47 186.866C273.47 188.056 273.368 189.11 273.164 190.062C272.96 191.014 272.722 191.762 272.45 192.34C272.178 192.884 271.804 193.394 271.396 193.802C270.988 194.21 270.648 194.482 270.308 194.686C269.968 194.856 269.628 194.992 269.288 195.06C268.948 195.128 268.71 195.196 268.574 195.196C268.438 195.196 268.37 195.196 268.302 195.162ZM268.846 176.972H268.03C267.486 176.972 266.738 177.074 265.786 177.278C264.834 177.482 263.916 177.788 263.066 178.196V165.004H257.456V196.25H263.066V195.502C263.916 195.91 264.834 196.216 265.854 196.42C266.874 196.624 267.588 196.726 267.962 196.726C268.37 196.726 268.642 196.726 268.846 196.726H269.458C269.866 196.726 270.41 196.692 271.056 196.556C271.702 196.454 272.416 196.284 273.198 196.08C273.98 195.876 274.762 195.536 275.544 195.06C276.326 194.584 277.04 194.04 277.686 193.36C278.332 192.68 278.842 191.796 279.25 190.64C279.658 189.518 279.828 188.26 279.828 186.832C279.828 185.438 279.624 184.18 279.216 183.058C278.808 181.936 278.298 181.052 277.686 180.372C277.074 179.692 276.36 179.114 275.51 178.638C274.694 178.162 273.912 177.822 273.232 177.618C272.552 177.414 271.804 177.244 271.022 177.142C270.274 177.04 269.764 176.972 269.492 176.972H268.846ZM289.771 185.982C289.771 184.894 289.873 183.942 290.077 183.058C290.247 182.174 290.451 181.494 290.689 180.95C290.927 180.406 291.199 179.964 291.539 179.59C291.879 179.216 292.151 178.944 292.423 178.774C292.695 178.638 292.967 178.502 293.273 178.434C293.545 178.366 293.749 178.298 293.851 178.298H294.089C294.429 178.298 294.837 178.366 295.313 178.536C297.285 179.42 298.305 181.902 298.407 185.982H289.771ZM304.901 185.982C304.833 184.826 304.527 183.704 304.017 182.616C303.405 181.392 302.623 180.338 301.637 179.42C299.529 177.55 297.013 176.598 294.089 176.598C291.165 176.598 288.649 177.55 286.575 179.42C285.555 180.338 284.739 181.392 284.161 182.616C283.549 183.908 283.277 185.234 283.277 186.628C283.277 188.056 283.549 189.416 284.161 190.674C284.739 191.898 285.555 192.986 286.575 193.87C288.649 195.74 291.165 196.658 294.089 196.658C297.013 196.658 299.529 195.74 301.637 193.87C302.589 192.986 303.371 191.966 303.949 190.81H297.999C297.795 191.626 297.489 192.34 297.149 192.952C296.809 193.564 296.469 193.972 296.163 194.21C295.823 194.482 295.483 194.652 295.143 194.788C294.769 194.924 294.531 194.992 294.395 194.992H294.089C293.749 195.026 293.341 194.924 292.899 194.72C290.927 193.87 289.873 191.422 289.771 187.376H304.901C304.901 187.206 304.935 187.002 304.935 186.798V186.628V186.492C304.935 186.356 304.901 186.186 304.901 185.982ZM319.384 178.4H319.69C319.894 178.4 320.166 178.468 320.506 178.604C320.846 178.74 321.186 178.944 321.56 179.182C321.9 179.454 322.274 179.862 322.648 180.44C322.988 181.052 323.294 181.766 323.532 182.582H329.516C328.904 181.392 328.088 180.372 327.068 179.488C324.926 177.652 322.376 176.7 319.384 176.7C316.392 176.7 313.842 177.652 311.7 179.488C310.646 180.372 309.83 181.426 309.218 182.65C308.572 183.942 308.266 185.302 308.266 186.73C308.266 188.192 308.572 189.552 309.218 190.81C309.83 192.068 310.646 193.122 311.7 194.006C313.842 195.842 316.392 196.76 319.384 196.76C322.376 196.76 324.926 195.842 327.068 194.006C328.088 193.156 328.904 192.136 329.516 190.946H323.532C323.294 191.762 322.988 192.442 322.614 193.054C322.24 193.666 321.9 194.074 321.56 194.346C321.22 194.584 320.88 194.788 320.506 194.924C320.098 195.06 319.86 195.128 319.724 195.128H319.384H319.146C318.942 195.128 318.738 195.06 318.466 194.992C318.194 194.89 317.922 194.754 317.582 194.584C317.242 194.414 316.936 194.142 316.596 193.734C316.256 193.326 315.984 192.816 315.712 192.272C315.44 191.694 315.202 190.946 315.032 189.994C314.862 189.042 314.794 187.954 314.794 186.764C314.794 185.574 314.862 184.52 315.032 183.568C315.202 182.616 315.406 181.834 315.678 181.29C315.95 180.712 316.256 180.236 316.596 179.828C316.936 179.42 317.276 179.114 317.582 178.944C317.854 178.774 318.16 178.638 318.5 178.57C318.806 178.468 319.01 178.434 319.112 178.434L319.384 178.4ZM342.925 178.4H343.231C343.435 178.4 343.707 178.468 344.047 178.604C344.387 178.74 344.727 178.944 345.101 179.182C345.441 179.454 345.815 179.862 346.189 180.44C346.529 181.052 346.835 181.766 347.073 182.582H353.057C352.445 181.392 351.629 180.372 350.609 179.488C348.467 177.652 345.917 176.7 342.925 176.7C339.933 176.7 337.383 177.652 335.241 179.488C334.187 180.372 333.371 181.426 332.759 182.65C332.113 183.942 331.807 185.302 331.807 186.73C331.807 188.192 332.113 189.552 332.759 190.81C333.371 192.068 334.187 193.122 335.241 194.006C337.383 195.842 339.933 196.76 342.925 196.76C345.917 196.76 348.467 195.842 350.609 194.006C351.629 193.156 352.445 192.136 353.057 190.946H347.073C346.835 191.762 346.529 192.442 346.155 193.054C345.781 193.666 345.441 194.074 345.101 194.346C344.761 194.584 344.421 194.788 344.047 194.924C343.639 195.06 343.401 195.128 343.265 195.128H342.925H342.687C342.483 195.128 342.279 195.06 342.007 194.992C341.735 194.89 341.463 194.754 341.123 194.584C340.783 194.414 340.477 194.142 340.137 193.734C339.797 193.326 339.525 192.816 339.253 192.272C338.981 191.694 338.743 190.946 338.573 189.994C338.403 189.042 338.335 187.954 338.335 186.764C338.335 185.574 338.403 184.52 338.573 183.568C338.743 182.616 338.947 181.834 339.219 181.29C339.491 180.712 339.797 180.236 340.137 179.828C340.477 179.42 340.817 179.114 341.123 178.944C341.395 178.774 341.701 178.638 342.041 178.57C342.347 178.468 342.551 178.434 342.653 178.434L342.925 178.4ZM368.676 186.968V192.918L368.2 193.326C367.86 193.598 367.384 193.904 366.772 194.21C366.16 194.516 365.548 194.686 364.936 194.72C364.8 194.754 364.664 194.754 364.528 194.754H364.222C364.188 194.754 364.018 194.754 363.712 194.686C363.372 194.618 363.134 194.55 362.964 194.448C362.76 194.346 362.522 194.176 362.216 193.938C361.876 193.7 361.638 193.394 361.468 193.054C361.264 192.714 361.094 192.238 360.958 191.66C360.822 191.116 360.72 190.47 360.72 189.722V189.654V189.552V189.416C360.72 187.546 361.196 186.152 362.148 185.268C362.284 185.132 362.488 184.962 362.726 184.826C363.338 184.452 363.916 184.282 364.528 184.316C366.126 184.452 367.52 185.336 368.676 186.968ZM362.692 182.65C361.876 182.786 361.06 183.024 360.312 183.296C359.734 183.534 359.19 183.806 358.68 184.146C358.442 184.282 358.238 184.452 358.034 184.588C357.762 184.792 357.49 185.03 357.286 185.268C356.062 186.526 355.45 187.954 355.45 189.552C355.45 190.606 355.722 191.592 356.3 192.544C356.844 193.496 357.66 194.312 358.68 194.924C360.312 196.012 362.284 196.556 364.528 196.556C365.99 196.556 367.35 196.318 368.642 195.808V196.318H374.252V184.18C374.184 183.092 373.878 182.038 373.402 181.018C372.858 179.998 372.178 179.114 371.294 178.366C369.526 176.904 367.452 176.156 365.072 176.156C362.658 176.156 360.584 176.904 358.85 178.366C358.034 179.046 357.354 179.862 356.844 180.814H360.958C361.23 180.304 361.536 179.862 361.91 179.488C362.284 179.148 362.624 178.876 362.964 178.706C363.304 178.57 363.644 178.434 364.018 178.366C364.358 178.298 364.63 178.23 364.766 178.23C364.902 178.23 365.004 178.23 365.072 178.264H365.412C365.616 178.264 365.854 178.332 366.194 178.502C366.5 178.672 366.806 178.91 367.146 179.216C367.486 179.488 367.792 179.998 368.064 180.712C368.336 181.426 368.506 182.276 368.608 183.262C367.316 182.786 365.956 182.548 364.528 182.548C363.916 182.548 363.304 182.582 362.692 182.65Z" fill="white"/>
</svg>
